WorkSans-ExtraLight.ufo
<glyph name="exclam" format="2">
  <advance width="199"/>
  <unicode hex="0021"/>
  <outline>
    <contour>
      <point x="85" y="660" type="line"/>
      <point x="85" y="316" type="line"/>
      <point x="87" y="177" type="line"/>
      <point x="112" y="177" type="line"/>
      <point x="114" y="316" type="line"/>
      <point x="114" y="660" type="line"/>
    </contour>
    <contour>
      <point x="69" y="24" type="curve" smooth="yes"/>
      <point x="69" y="6"/>
      <point x="82" y="-6"/>
      <point x="99" y="-6" type="curve" smooth="yes"/>
      <point x="117" y="-6"/>
      <point x="130" y="6"/>
      <point x="130" y="24" type="curve" smooth="yes"/>
      <point x="130" y="42"/>
      <point x="117" y="54"/>
      <point x="99" y="54" type="curve" smooth="yes"/>
      <point x="82" y="54"/>
      <point x="69" y="42"/>
    </contour>
  </outline>
</glyph>
<glyph name="numbersign" format="2">
  <advance width="634"/>
  <unicode hex="0023"/>
  <outline>
    <contour>
      <point x="461" y="660" type="line"/>
      <point x="359" y="0" type="line"/>
      <point x="385" y="0" type="line"/>
      <point x="487" y="660" type="line"/>
    </contour>
    <contour>
      <point x="39" y="231" type="line"/>
      <point x="39" y="208" type="line"/>
      <point x="562" y="208" type="line"/>
      <point x="562" y="231" type="line"/>
    </contour>
    <contour>
      <point x="244" y="660" type="line"/>
      <point x="142" y="0" type="line"/>
      <point x="168" y="0" type="line"/>
      <point x="270" y="660" type="line"/>
    </contour>
    <contour>
      <point x="71" y="461" type="line"/>
      <point x="71" y="438" type="line"/>
      <point x="595" y="438" type="line"/>
      <point x="595" y="461" type="line"/>
    </contour>
  </outline>
</glyph>
<glyph name="comma" format="2">
  <advance width="186"/>
  <unicode hex="002C"/>
  <outline>
    <contour>
      <point x="63" y="24" type="curve" smooth="yes"/>
      <point x="63" y="6"/>
      <point x="76" y="-6"/>
      <point x="91" y="-6" type="curve" smooth="yes"/>
      <point x="101" y="-6"/>
      <point x="106" y="-2"/>
      <point x="110" y="5" type="curve"/>
      <point x="112" y="5" type="line"/>
      <point x="122" y="-30"/>
      <point x="92" y="-83"/>
      <point x="49" y="-100" type="curve"/>
      <point x="67" y="-114" type="line"/>
      <point x="112" y="-91"/>
      <point x="135" y="-44"/>
      <point x="135" y="-1" type="curve" smooth="yes"/>
      <point x="135" y="31"/>
      <point x="121" y="54"/>
      <point x="94" y="54" type="curve" smooth="yes"/>
      <point x="76" y="54"/>
      <point x="63" y="40"/>
    </contour>
  </outline>
</glyph>
<glyph name="hyphen" format="2">
  <advance width="434"/>
  <unicode hex="002D"/>
  <outline>
    <contour>
      <point x="72" y="283" type="line"/>
      <point x="72" y="254" type="line"/>
      <point x="362" y="254" type="line"/>
      <point x="362" y="283" type="line"/>
    </contour>
  </outline>
</glyph>
<glyph name="period" format="2">
  <advance width="186"/>
  <unicode hex="002E"/>
  <anchor x="63" y="24" name="_center"/>
  <outline>
    <contour>
      <point x="63" y="24" type="curve" smooth="yes"/>
      <point x="63" y="6"/>
      <point x="75" y="-6"/>
      <point x="93" y="-6" type="curve" smooth="yes"/>
      <point x="111" y="-6"/>
      <point x="123" y="6"/>
      <point x="123" y="24" type="curve" smooth="yes"/>
      <point x="123" y="42"/>
      <point x="111" y="54"/>
      <point x="93" y="54" type="curve" smooth="yes"/>
      <point x="75" y="54"/>
      <point x="63" y="42"/>
    </contour>
  </outline>
</glyph>
<glyph name="slash" format="2">
  <advance width="366"/>
  <unicode hex="002F"/>
  <outline>
    <contour>
      <point x="303" y="730" type="line"/>
      <point x="34" y="-70" type="line"/>
      <point x="62" y="-70" type="line"/>
      <point x="331" y="730" type="line"/>
    </contour>
  </outline>
</glyph>
<glyph name="one" format="2">
  <advance width="333"/>
  <unicode hex="0031"/>
  <outline>
    <contour>
      <point x="240" y="660" type="line"/>
      <point x="213" y="660" type="line"/>
      <point x="212" y="612"/>
      <point x="212" y="559"/>
      <point x="212" y="512" type="curve" smooth="yes"/>
      <point x="212" y="0" type="line"/>
      <point x="240" y="0" type="line"/>
      <point x="240" y="516" type="line"/>
    </contour>
    <contour>
      <point x="235" y="655" type="curve"/>
      <point x="213" y="660" type="line"/>
      <point x="179" y="593"/>
      <point x="96" y="541"/>
      <point x="30" y="518" type="curve"/>
      <point x="38" y="494" type="line"/>
      <point x="118" y="518"/>
      <point x="199" y="575"/>
    </contour>
  </outline>
</glyph>
<glyph name="five" format="2">
  <advance width="544"/>
  <unicode hex="0035"/>
  <outline>
    <contour>
      <point x="102" y="327" type="curve"/>
      <point x="101" y="327" type="line"/>
      <point x="102" y="345" type="line"/>
      <point x="128" y="635" type="line"/>
      <point x="466" y="635" type="line"/>
      <point x="466" y="660" type="line"/>
      <point x="105" y="660" type="line"/>
      <point x="73" y="298" type="line"/>
      <point x="98" y="298" type="line"/>
      <point x="129" y="340"/>
      <point x="183" y="379"/>
      <point x="283" y="379" type="curve" smooth="yes"/>
      <point x="391" y="379"/>
      <point x="463" y="306"/>
      <point x="464" y="198" type="curve" smooth="yes"/>
      <point x="464" y="90"/>
      <point x="388" y="15"/>
      <point x="278" y="15" type="curve" smooth="yes"/>
      <point x="167" y="15"/>
      <point x="96" y="62"/>
      <point x="78" y="160" type="curve"/>
      <point x="52" y="148" type="line"/>
      <point x="78" y="34"/>
      <point x="163" y="-10"/>
      <point x="278" y="-10" type="curve" smooth="yes"/>
      <point x="406" y="-10"/>
      <point x="492" y="75"/>
      <point x="492" y="199" type="curve" smooth="yes"/>
      <point x="492" y="320"/>
      <point x="408" y="404"/>
      <point x="286" y="404" type="curve" smooth="yes"/>
      <point x="188" y="404"/>
      <point x="133" y="369"/>
    </contour>
  </outline>
</glyph>
<glyph name="equal" format="2">
  <advance width="604"/>
  <unicode hex="003D"/>
  <outline>
    <contour>
      <point x="83" y="426" type="line"/>
      <point x="83" y="400" type="line"/>
      <point x="521" y="400" type="line"/>
      <point x="521" y="426" type="line"/>
    </contour>
    <contour>
      <point x="83" y="222" type="line"/>
      <point x="83" y="197" type="line"/>
      <point x="521" y="197" type="line"/>
      <point x="521" y="222" type="line"/>
    </contour>
  </outline>
</glyph>
<glyph name="at" format="2">
  <advance width="952"/>
  <unicode hex="0040"/>
  <outline>
    <contour>
      <point x="56" y="232" type="curve" smooth="yes"/>
      <point x="56" y="-33"/>
      <point x="230" y="-192"/>
      <point x="489" y="-192" type="curve" smooth="yes"/>
      <point x="585" y="-192"/>
      <point x="676" y="-159"/>
      <point x="735" y="-111" type="curve"/>
      <point x="720" y="-92" type="line"/>
      <point x="667" y="-140"/>
      <point x="577" y="-169"/>
      <point x="489" y="-169" type="curve" smooth="yes"/>
      <point x="248" y="-169"/>
      <point x="82" y="-20"/>
      <point x="82" y="232" type="curve" smooth="yes"/>
      <point x="82" y="485"/>
      <point x="238" y="646"/>
      <point x="482" y="646" type="curve" smooth="yes"/>
      <point x="762" y="646"/>
      <point x="866" y="455"/>
      <point x="866" y="248" type="curve" smooth="yes"/>
      <point x="866" y="99"/>
      <point x="827" y="13"/>
      <point x="760" y="13" type="curve" smooth="yes"/>
      <point x="702" y="13"/>
      <point x="677" y="60"/>
      <point x="678" y="135" type="curve" smooth="yes"/>
      <point x="685" y="457" type="line"/>
      <point x="664" y="457" type="line"/>
      <point x="660" y="339" type="line"/>
      <point x="636" y="421"/>
      <point x="573" y="473"/>
      <point x="476" y="473" type="curve" smooth="yes"/>
      <point x="345" y="473"/>
      <point x="252" y="379"/>
      <point x="252" y="229" type="curve" smooth="yes"/>
      <point x="252" y="84"/>
      <point x="338" y="-8"/>
      <point x="465" y="-8" type="curve" smooth="yes"/>
      <point x="560" y="-8"/>
      <point x="627" y="45"/>
      <point x="654" y="130" type="curve"/>
      <point x="656" y="38"/>
      <point x="685" y="-9"/>
      <point x="755" y="-9" type="curve" smooth="yes"/>
      <point x="840" y="-9"/>
      <point x="891" y="87"/>
      <point x="891" y="248" type="curve" smooth="yes"/>
      <point x="891" y="464"/>
      <point x="780" y="668"/>
      <point x="482" y="668" type="curve" smooth="yes"/>
      <point x="224" y="668"/>
      <point x="56" y="497"/>
    </contour>
    <contour>
      <point x="656" y="252" type="curve" smooth="yes"/>
      <point x="655" y="218" type="line" smooth="yes"/>
      <point x="653" y="101"/>
      <point x="580" y="15"/>
      <point x="469" y="15" type="curve" smooth="yes"/>
      <point x="353" y="15"/>
      <point x="279" y="99"/>
      <point x="279" y="230" type="curve" smooth="yes"/>
      <point x="279" y="365"/>
      <point x="357" y="451"/>
      <point x="478" y="451" type="curve" smooth="yes"/>
      <point x="593" y="451"/>
      <point x="658" y="363"/>
    </contour>
  </outline>
</glyph>
<glyph name="B" format="2">
  <advance width="617"/>
  <unicode hex="0042"/>
  <anchor x="280" y="0" name="bottomC"/>
  <anchor x="299" y="660" name="top"/>
  <anchor x="333" y="0" name="ogonek"/>
  <anchor x="299" y="0" name="bottom"/>
  <outline>
    <contour>
      <point x="333" y="0" type="line" smooth="yes"/>
      <point x="480" y="0"/>
      <point x="558" y="61"/>
      <point x="558" y="172" type="curve" smooth="yes"/>
      <point x="558" y="262"/>
      <point x="503" y="320"/>
      <point x="412" y="333" type="curve"/>
      <point x="412" y="334" type="line"/>
      <point x="497" y="352"/>
      <point x="540" y="408"/>
      <point x="540" y="490" type="curve" smooth="yes"/>
      <point x="540" y="601"/>
      <point x="471" y="660"/>
      <point x="333" y="660" type="curve" smooth="yes"/>
      <point x="101" y="660" type="line"/>
      <point x="101" y="0" type="line"/>
    </contour>
    <contour>
      <point x="129" y="320" type="line"/>
      <point x="337" y="320" type="line" smooth="yes"/>
      <point x="464" y="320"/>
      <point x="529" y="270"/>
      <point x="529" y="173" type="curve" smooth="yes"/>
      <point x="529" y="76"/>
      <point x="464" y="25"/>
      <point x="337" y="25" type="curve" smooth="yes"/>
      <point x="129" y="25" type="line"/>
    </contour>
    <contour>
      <point x="129" y="635" type="line"/>
      <point x="333" y="635" type="line" smooth="yes"/>
      <point x="450" y="635"/>
      <point x="511" y="585"/>
      <point x="511" y="489" type="curve" smooth="yes"/>
      <point x="511" y="394"/>
      <point x="450" y="346"/>
      <point x="333" y="346" type="curve" smooth="yes"/>
      <point x="129" y="346" type="line"/>
    </contour>
  </outline>
</glyph>
<glyph name="C" format="2">
  <advance width="656"/>
  <unicode hex="0043"/>
  <anchor x="343" y="0" name="bottomC"/>
  <anchor x="345" y="660" name="top"/>
  <anchor x="438" y="0" name="ogonek"/>
  <anchor x="345" y="0" name="bottom"/>
  <outline>
    <contour>
      <point x="588" y="176" type="line"/>
      <point x="558" y="73"/>
      <point x="473" y="15"/>
      <point x="354" y="15" type="curve" smooth="yes"/>
      <point x="194" y="15"/>
      <point x="87" y="136"/>
      <point x="87" y="330" type="curve" smooth="yes"/>
      <point x="87" y="524"/>
      <point x="194" y="645"/>
      <point x="354" y="645" type="curve" smooth="yes"/>
      <point x="476" y="645"/>
      <point x="550" y="592"/>
      <point x="582" y="487" type="curve"/>
      <point x="609" y="500" type="line"/>
      <point x="575" y="613"/>
      <point x="490" y="670"/>
      <point x="353" y="670" type="curve" smooth="yes"/>
      <point x="176" y="670"/>
      <point x="58" y="539"/>
      <point x="58" y="330" type="curve" smooth="yes"/>
      <point x="58" y="121"/>
      <point x="176" y="-10"/>
      <point x="354" y="-10" type="curve" smooth="yes"/>
      <point x="485" y="-10"/>
      <point x="581" y="54"/>
      <point x="616" y="166" type="curve"/>
    </contour>
  </outline>
</glyph>
<glyph name="D" format="2">
  <advance width="691"/>
  <unicode hex="0044"/>
  <anchor x="274" y="0" name="bottomC"/>
  <anchor x="312" y="660" name="top"/>
  <anchor x="306" y="0" name="ogonek"/>
  <anchor x="357" y="330" name="center"/>
  <anchor x="312" y="0" name="bottom"/>
  <outline>
    <contour>
      <point x="116" y="660" type="line"/>
      <point x="116" y="635" type="line"/>
      <point x="307" y="635" type="line" smooth="yes"/>
      <point x="500" y="635"/>
      <point x="603" y="531"/>
      <point x="603" y="338" type="curve" smooth="yes"/>
      <point x="603" y="134"/>
      <point x="500" y="25"/>
      <point x="307" y="25" type="curve" smooth="yes"/>
      <point x="115" y="25" type="line"/>
      <point x="115" y="0" type="line"/>
      <point x="306" y="0" type="line" smooth="yes"/>
      <point x="518" y="0"/>
      <point x="632" y="117"/>
      <point x="632" y="338" type="curve" smooth="yes"/>
      <point x="632" y="549"/>
      <point x="518" y="660"/>
      <point x="306" y="660" type="curve" smooth="yes"/>
    </contour>
    <contour>
      <point x="101" y="660" type="line"/>
      <point x="101" y="0" type="line"/>
      <point x="129" y="0" type="line"/>
      <point x="129" y="660" type="line"/>
    </contour>
  </outline>
</glyph>
<glyph name="G" format="2">
  <advance width="685"/>
  <unicode hex="0047"/>
  <anchor x="343" y="0" name="bottomC"/>
  <anchor x="349" y="660" name="top"/>
  <anchor x="435" y="0" name="ogonek"/>
  <anchor x="361" y="0" name="bottom"/>
  <outline>
    <contour>
      <point x="605" y="227" type="curve"/>
      <point x="590" y="242" type="line"/>
      <point x="590" y="150"/>
      <point x="534" y="15"/>
      <point x="351" y="15" type="curve" smooth="yes"/>
      <point x="189" y="15"/>
      <point x="87" y="136"/>
      <point x="87" y="330" type="curve" smooth="yes"/>
      <point x="87" y="524"/>
      <point x="194" y="645"/>
      <point x="354" y="645" type="curve" smooth="yes"/>
      <point x="477" y="645"/>
      <point x="554" y="592"/>
      <point x="587" y="487" type="curve"/>
      <point x="612" y="500" type="line"/>
      <point x="575" y="614"/>
      <point x="492" y="670"/>
      <point x="354" y="670" type="curve" smooth="yes"/>
      <point x="176" y="670"/>
      <point x="58" y="539"/>
      <point x="58" y="330" type="curve" smooth="yes"/>
      <point x="58" y="121"/>
      <point x="173" y="-10"/>
      <point x="350" y="-10" type="curve" smooth="yes"/>
      <point x="516" y="-10"/>
      <point x="605" y="85"/>
    </contour>
    <contour>
      <point x="617" y="0" type="line"/>
      <point x="617" y="315" type="line"/>
      <point x="355" y="315" type="line"/>
      <point x="355" y="290" type="line"/>
      <point x="590" y="290" type="line"/>
      <point x="590" y="194" type="line"/>
      <point x="591" y="182" type="line"/>
      <point x="592" y="0" type="line"/>
    </contour>
  </outline>
</glyph>
<glyph name="J" format="2">
  <advance width="511"/>
  <unicode hex="004A"/>
  <anchor x="228" y="0" name="bottomC"/>
  <anchor x="403" y="660" name="top"/>
  <anchor x="281" y="0" name="ogonek"/>
  <anchor x="226" y="0" name="bottom"/>
  <outline>
    <contour>
      <point x="389" y="660" type="line"/>
      <point x="389" y="216" type="line" smooth="yes"/>
      <point x="389" y="92"/>
      <point x="334" y="15"/>
      <point x="217" y="15" type="curve" smooth="yes"/>
      <point x="101" y="15"/>
      <point x="44" y="84"/>
      <point x="62" y="213" type="curve"/>
      <point x="35" y="203" type="line"/>
      <point x="15" y="75"/>
      <point x="82" y="-10"/>
      <point x="217" y="-10" type="curve" smooth="yes"/>
      <point x="348" y="-10"/>
      <point x="417" y="76"/>
      <point x="417" y="212" type="curve" smooth="yes"/>
      <point x="417" y="660" type="line"/>
    </contour>
  </outline>
</glyph>
<glyph name="K" format="2">
  <advance width="576"/>
  <unicode hex="004B"/>
  <anchor x="552" y="0" name="bottomC"/>
  <anchor x="325" y="660" name="top"/>
  <anchor x="560" y="0" name="ogonek"/>
  <anchor x="329" y="0" name="bottom"/>
  <outline>
    <contour>
      <point x="513" y="660" type="line"/>
      <point x="114" y="254" type="line"/>
      <point x="114" y="215" type="line"/>
      <point x="279" y="382" type="line"/>
      <point x="283" y="386" type="line"/>
      <point x="551" y="660" type="line"/>
    </contour>
    <contour>
      <point x="101" y="660" type="line"/>
      <point x="101" y="0" type="line"/>
      <point x="129" y="0" type="line"/>
      <point x="129" y="660" type="line"/>
    </contour>
    <contour>
      <point x="263" y="386" type="line"/>
      <point x="525" y="0" type="line"/>
      <point x="560" y="0" type="line"/>
      <point x="284" y="406" type="line"/>
    </contour>
  </outline>
</glyph>
<glyph name="N" format="2">
  <advance width="702"/>
  <unicode hex="004E"/>
  <anchor x="593" y="0" name="bottomC"/>
  <anchor x="356" y="660" name="top"/>
  <anchor x="601" y="0" name="ogonek"/>
  <anchor x="356" y="0" name="bottom"/>
  <outline>
    <contour>
      <point x="574" y="660" type="line"/>
      <point x="574" y="96" type="line"/>
      <point x="575" y="30" type="line"/>
      <point x="575" y="30" type="line"/>
      <point x="541" y="86" type="line"/>
      <point x="137" y="660" type="line"/>
      <point x="101" y="660" type="line"/>
      <point x="101" y="0" type="line"/>
      <point x="128" y="0" type="line"/>
      <point x="128" y="564" type="line"/>
      <point x="126" y="631" type="line"/>
      <point x="127" y="631" type="line"/>
      <point x="161" y="574" type="line"/>
      <point x="564" y="0" type="line"/>
      <point x="601" y="0" type="line"/>
      <point x="601" y="660" type="line"/>
    </contour>
  </outline>
</glyph>
<glyph name="O" format="2">
  <advance width="720"/>
  <unicode hex="004F"/>
  <anchor x="360" y="0" name="bottomC"/>
  <anchor x="360" y="660" name="top"/>
  <anchor x="437" y="0" name="ogonek"/>
  <anchor x="360" y="0" name="bottom"/>
  <outline>
    <contour>
      <point x="58" y="330" type="curve" smooth="yes"/>
      <point x="58" y="121"/>
      <point x="175" y="-10"/>
      <point x="360" y="-10" type="curve" smooth="yes"/>
      <point x="546" y="-10"/>
      <point x="662" y="121"/>
      <point x="662" y="330" type="curve" smooth="yes"/>
      <point x="662" y="539"/>
      <point x="546" y="670"/>
      <point x="360" y="670" type="curve" smooth="yes"/>
      <point x="175" y="670"/>
      <point x="58" y="539"/>
    </contour>
    <contour>
      <point x="633" y="330" type="curve" smooth="yes"/>
      <point x="633" y="136"/>
      <point x="528" y="15"/>
      <point x="360" y="15" type="curve" smooth="yes"/>
      <point x="192" y="15"/>
      <point x="87" y="136"/>
      <point x="87" y="330" type="curve" smooth="yes"/>
      <point x="87" y="524"/>
      <point x="192" y="645"/>
      <point x="360" y="645" type="curve" smooth="yes"/>
      <point x="528" y="645"/>
      <point x="633" y="524"/>
    </contour>
  </outline>
</glyph>
<glyph name="P" format="2">
  <advance width="570"/>
  <unicode hex="0050"/>
  <anchor x="121" y="0" name="bottomC"/>
  <anchor x="282" y="660" name="top"/>
  <anchor x="129" y="0" name="ogonek"/>
  <anchor x="115" y="0" name="bottom"/>
  <outline>
    <contour>
      <point x="115" y="660" type="line"/>
      <point x="115" y="635" type="line"/>
      <point x="308" y="635" type="line" smooth="yes"/>
      <point x="434" y="635"/>
      <point x="506" y="574"/>
      <point x="506" y="472" type="curve" smooth="yes"/>
      <point x="506" y="370"/>
      <point x="434" y="310"/>
      <point x="308" y="310" type="curve" smooth="yes"/>
      <point x="115" y="310" type="line"/>
      <point x="115" y="285" type="line"/>
      <point x="310" y="285" type="line" smooth="yes"/>
      <point x="450" y="285"/>
      <point x="535" y="355"/>
      <point x="535" y="472" type="curve" smooth="yes"/>
      <point x="535" y="590"/>
      <point x="450" y="660"/>
      <point x="310" y="660" type="curve" smooth="yes"/>
    </contour>
    <contour>
      <point x="101" y="660" type="line"/>
      <point x="101" y="0" type="line"/>
      <point x="129" y="0" type="line"/>
      <point x="129" y="660" type="line"/>
    </contour>
  </outline>
</glyph>
<glyph name="U" format="2">
  <advance width="688"/>
  <unicode hex="0055"/>
  <anchor x="344" y="0" name="bottomC"/>
  <anchor x="344" y="660" name="top"/>
  <anchor x="444" y="10" name="ogonek"/>
  <anchor x="344" y="0" name="bottom"/>
  <outline>
    <contour>
      <point x="567" y="660" type="line"/>
      <point x="567" y="241" type="line" smooth="yes"/>
      <point x="567" y="96"/>
      <point x="485" y="15"/>
      <point x="344" y="15" type="curve" smooth="yes"/>
      <point x="202" y="15"/>
      <point x="121" y="96"/>
      <point x="121" y="241" type="curve" smooth="yes"/>
      <point x="121" y="660" type="line"/>
      <point x="93" y="660" type="line"/>
      <point x="93" y="237" type="line" smooth="yes"/>
      <point x="93" y="78"/>
      <point x="186" y="-10"/>
      <point x="344" y="-10" type="curve" smooth="yes"/>
      <point x="502" y="-10"/>
      <point x="595" y="78"/>
      <point x="595" y="237" type="curve" smooth="yes"/>
      <point x="595" y="660" type="line"/>
    </contour>
  </outline>
</glyph>
<glyph name="V" format="2">
  <advance width="590"/>
  <unicode hex="0056"/>
  <anchor x="306" y="0" name="bottomC"/>
  <anchor x="295" y="660" name="top"/>
  <anchor x="312" y="0" name="ogonek"/>
  <anchor x="295" y="0" name="bottom"/>
  <outline>
    <contour>
      <point x="541" y="660" type="line"/>
      <point x="325" y="109" type="line"/>
      <point x="295" y="28" type="line"/>
      <point x="265" y="109" type="line"/>
      <point x="49" y="660" type="line"/>
      <point x="19" y="660" type="line"/>
      <point x="277" y="0" type="line"/>
      <point x="312" y="0" type="line"/>
      <point x="570" y="660" type="line"/>
    </contour>
  </outline>
</glyph>
<glyph name="X" format="2">
  <advance width="540"/>
  <unicode hex="0058"/>
  <anchor x="514" y="0" name="bottomC"/>
  <anchor x="270" y="660" name="top"/>
  <anchor x="520" y="0" name="ogonek"/>
  <anchor x="270" y="0" name="bottom"/>
  <outline>
    <contour>
      <point x="478" y="660" type="line"/>
      <point x="265" y="355" type="line"/>
      <point x="261" y="351" type="line"/>
      <point x="14" y="0" type="line"/>
      <point x="49" y="0" type="line"/>
      <point x="277" y="327" type="line"/>
      <point x="282" y="332" type="line"/>
      <point x="512" y="660" type="line"/>
    </contour>
    <contour>
      <point x="35" y="660" type="line"/>
      <point x="259" y="332" type="line"/>
      <point x="264" y="325" type="line"/>
      <point x="487" y="0" type="line"/>
      <point x="520" y="0" type="line"/>
      <point x="283" y="347" type="line"/>
      <point x="276" y="358" type="line"/>
      <point x="69" y="660" type="line"/>
    </contour>
  </outline>
</glyph>
<glyph name="bracketleft" format="2">
  <advance width="283"/>
  <unicode hex="005B"/>
  <outline>
    <contour>
      <point x="78" y="730" type="line"/>
      <point x="78" y="-168" type="line"/>
      <point x="104" y="-168" type="line"/>
      <point x="104" y="730" type="line"/>
    </contour>
    <contour>
      <point x="92" y="-144" type="line"/>
      <point x="92" y="-168" type="line"/>
      <point x="268" y="-168" type="line"/>
      <point x="268" y="-144" type="line"/>
    </contour>
    <contour>
      <point x="92" y="730" type="line"/>
      <point x="92" y="706" type="line"/>
      <point x="268" y="706" type="line"/>
      <point x="268" y="730" type="line"/>
    </contour>
  </outline>
</glyph>
<glyph name="c" format="2">
  <advance width="532"/>
  <unicode hex="0063"/>
  <anchor x="266" y="0" name="bottomC"/>
  <anchor x="279" y="500" name="top"/>
  <anchor x="400" y="20" name="ogonek"/>
  <anchor x="279" y="0" name="bottom"/>
  <outline>
    <contour>
      <point x="53" y="250" type="curve" smooth="yes"/>
      <point x="53" y="88"/>
      <point x="137" y="-10"/>
      <point x="283" y="-10" type="curve" smooth="yes"/>
      <point x="385" y="-10"/>
      <point x="468" y="47"/>
      <point x="488" y="137" type="curve"/>
      <point x="463" y="146" type="line"/>
      <point x="449" y="65"/>
      <point x="373" y="15"/>
      <point x="283" y="15" type="curve" smooth="yes"/>
      <point x="154" y="15"/>
      <point x="81" y="103"/>
      <point x="81" y="250" type="curve" smooth="yes"/>
      <point x="81" y="397"/>
      <point x="157" y="486"/>
      <point x="285" y="486" type="curve" smooth="yes"/>
      <point x="374" y="486"/>
      <point x="437" y="441"/>
      <point x="459" y="361" type="curve"/>
      <point x="484" y="374" type="line"/>
      <point x="458" y="461"/>
      <point x="385" y="510"/>
      <point x="285" y="510" type="curve" smooth="yes"/>
      <point x="139" y="510"/>
      <point x="53" y="412"/>
    </contour>
  </outline>
</glyph>
<glyph name="e" format="2">
  <advance width="543"/>
  <unicode hex="0065"/>
  <anchor x="273" y="0" name="bottomC"/>
  <anchor x="276" y="500" name="top"/>
  <anchor x="375" y="25" name="ogonek"/>
  <anchor x="286" y="0" name="bottom"/>
  <outline>
    <contour>
      <point x="488" y="107" type="curve"/>
      <point x="465" y="119" type="line"/>
      <point x="434" y="54"/>
      <point x="366" y="15"/>
      <point x="285" y="15" type="curve" smooth="yes"/>
      <point x="156" y="15"/>
      <point x="81" y="103"/>
      <point x="81" y="250" type="curve" smooth="yes"/>
      <point x="81" y="397"/>
      <point x="154" y="486"/>
      <point x="279" y="486" type="curve" smooth="yes"/>
      <point x="400" y="486"/>
      <point x="466" y="397"/>
      <point x="467" y="250" type="curve"/>
      <point x="480" y="261" type="line"/>
      <point x="69" y="261" type="line"/>
      <point x="69" y="235" type="line"/>
      <point x="492" y="235" type="line"/>
      <point x="492" y="240"/>
      <point x="493" y="246"/>
      <point x="493" y="252" type="curve" smooth="yes"/>
      <point x="493" y="410"/>
      <point x="414" y="510"/>
      <point x="279" y="510" type="curve" smooth="yes"/>
      <point x="137" y="510"/>
      <point x="53" y="413"/>
      <point x="53" y="250" type="curve" smooth="yes"/>
      <point x="53" y="87"/>
      <point x="139" y="-10"/>
      <point x="285" y="-10" type="curve" smooth="yes"/>
      <point x="379" y="-10"/>
      <point x="452" y="34"/>
    </contour>
  </outline>
</glyph>
<glyph name="f" format="2">
  <advance width="334"/>
  <unicode hex="0066"/>
  <anchor x="136" y="0" name="bottomC"/>
  <anchor x="225" y="730" name="top"/>
  <anchor x="144" y="0" name="ogonek"/>
  <anchor x="130" y="0" name="bottom"/>
  <outline>
    <contour>
      <point x="116" y="583" type="curve" smooth="yes"/>
      <point x="116" y="0" type="line"/>
      <point x="144" y="0" type="line"/>
      <point x="144" y="488" type="line"/>
      <point x="144" y="500" type="line"/>
      <point x="144" y="582" type="line" smooth="yes"/>
      <point x="144" y="663"/>
      <point x="186" y="710"/>
      <point x="256" y="710" type="curve" smooth="yes"/>
      <point x="286" y="710"/>
      <point x="306" y="703"/>
      <point x="323" y="684" type="curve"/>
      <point x="333" y="706" type="line"/>
      <point x="317" y="723"/>
      <point x="293" y="735"/>
      <point x="255" y="735" type="curve" smooth="yes"/>
      <point x="167" y="735"/>
      <point x="116" y="677"/>
    </contour>
    <contour>
      <point x="16" y="500" type="line"/>
      <point x="16" y="476" type="line"/>
      <point x="326" y="476" type="line"/>
      <point x="326" y="500" type="line"/>
    </contour>
  </outline>
</glyph>
<glyph name="g" format="2">
  <advance width="503"/>
  <unicode hex="0067"/>
  <anchor x="256" y="-210" name="bottomC"/>
  <anchor x="256" y="500" name="top"/>
  <anchor x="399" y="-190" name="ogonek"/>
  <anchor x="256" y="-210" name="bottom"/>
  <outline>
    <contour>
      <point x="378" y="468" type="curve"/>
      <point x="398" y="460" type="line"/>
      <point x="398" y="526"/>
      <point x="435" y="568"/>
      <point x="503" y="568" type="curve"/>
      <point x="495" y="592" type="line"/>
      <point x="424" y="592"/>
      <point x="378" y="544"/>
    </contour>
    <component base="gbase" xOffset="-14"/>
  </outline>
</glyph>
<glyph name="i" format="2">
  <advance width="201"/>
  <unicode hex="0069"/>
  <anchor x="107" y="0" name="bottomC"/>
  <anchor x="101" y="646" name="top"/>
  <anchor x="115" y="0" name="ogonek"/>
  <anchor x="101" y="0" name="bottom"/>
  <outline>
    <contour>
      <point x="130" y="627" type="curve" smooth="yes"/>
      <point x="130" y="644"/>
      <point x="118" y="656"/>
      <point x="101" y="656" type="curve" smooth="yes"/>
      <point x="83" y="656"/>
      <point x="71" y="644"/>
      <point x="71" y="627" type="curve" smooth="yes"/>
      <point x="71" y="609"/>
      <point x="83" y="598"/>
      <point x="101" y="598" type="curve" smooth="yes"/>
      <point x="118" y="598"/>
      <point x="130" y="609"/>
    </contour>
    <component base="idotless"/>
  </outline>
</glyph>
<glyph name="j" format="2">
  <advance width="201"/>
  <unicode hex="006A"/>
  <anchor x="8" y="-210" name="bottomC"/>
  <anchor x="101" y="646" name="top"/>
  <anchor x="34" y="-204" name="ogonek"/>
  <anchor x="8" y="-210" name="bottom"/>
  <outline>
    <contour>
      <point x="71" y="627" type="curve" smooth="yes"/>
      <point x="71" y="610"/>
      <point x="84" y="598"/>
      <point x="101" y="598" type="curve" smooth="yes"/>
      <point x="117" y="598"/>
      <point x="130" y="610"/>
      <point x="130" y="627" type="curve" smooth="yes"/>
      <point x="130" y="644"/>
      <point x="117" y="656"/>
      <point x="101" y="656" type="curve" smooth="yes"/>
      <point x="84" y="656"/>
      <point x="71" y="644"/>
    </contour>
    <component base="jdotless"/>
  </outline>
</glyph>
<glyph name="k" format="2">
  <advance width="498"/>
  <unicode hex="006B"/>
  <anchor x="101" y="730" name="top"/>
  <anchor x="311" y="0" name="bottom"/>
  <outline>
    <contour>
      <point x="439" y="500" type="line"/>
      <point x="101" y="182" type="line"/>
      <point x="101" y="145" type="line"/>
      <point x="248" y="285" type="line"/>
      <point x="255" y="291" type="line"/>
      <point x="478" y="500" type="line"/>
    </contour>
    <contour>
      <point x="87" y="730" type="line"/>
      <point x="87" y="0" type="line"/>
      <point x="115" y="0" type="line"/>
      <point x="115" y="730" type="line"/>
    </contour>
    <contour>
      <point x="233" y="289" type="line"/>
      <point x="449" y="0" type="line"/>
      <point x="484" y="0" type="line"/>
      <point x="256" y="306" type="line"/>
    </contour>
  </outline>
</glyph>
<glyph name="q" format="2">
  <advance width="594"/>
  <unicode hex="0071"/>
  <anchor x="276" y="0" name="bottomC"/>
  <anchor x="288" y="500" name="top"/>
  <anchor x="394" y="20" name="ogonek"/>
  <anchor x="494" y="-210" name="bottom"/>
  <outline>
    <contour>
      <point x="482" y="500" type="line"/>
      <point x="481" y="330" type="line"/>
      <point x="480" y="322" type="line"/>
      <point x="480" y="-210" type="line"/>
      <point x="508" y="-210" type="line"/>
      <point x="508" y="396" type="line"/>
      <point x="508" y="500" type="line"/>
    </contour>
    <component base="bowl" yScale="-1.0" xOffset="-62" yOffset="500"/>
  </outline>
</glyph>
<glyph name="r" format="2">
  <advance width="355"/>
  <unicode hex="0072"/>
  <anchor x="107" y="0" name="bottomC"/>
  <anchor x="200" y="500" name="top"/>
  <anchor x="115" y="0" name="ogonek"/>
  <anchor x="106" y="0" name="bottom"/>
  <outline>
    <contour>
      <point x="102" y="303" type="curve"/>
      <point x="115" y="287" type="line"/>
      <point x="115" y="393"/>
      <point x="184" y="485"/>
      <point x="271" y="485" type="curve" smooth="yes"/>
      <point x="306" y="485"/>
      <point x="321" y="476"/>
      <point x="335" y="464" type="curve"/>
      <point x="345" y="489" type="line"/>
      <point x="331" y="502"/>
      <point x="309" y="510"/>
      <point x="277" y="510" type="curve" smooth="yes"/>
      <point x="171" y="510"/>
      <point x="102" y="416"/>
    </contour>
    <contour>
      <point x="87" y="500" type="line"/>
      <point x="87" y="0" type="line"/>
      <point x="115" y="0" type="line"/>
      <point x="115" y="341" type="line"/>
      <point x="115" y="349" type="line"/>
      <point x="112" y="500" type="line"/>
    </contour>
  </outline>
</glyph>
<glyph name="s" format="2">
  <advance width="488"/>
  <unicode hex="0073"/>
  <anchor x="239" y="0" name="bottomC"/>
  <anchor x="244" y="500" name="top"/>
  <anchor x="374" y="20" name="ogonek"/>
  <anchor x="257" y="0" name="bottom"/>
  <outline>
    <contour>
      <point x="440" y="127" type="curve" smooth="yes"/>
      <point x="440" y="199"/>
      <point x="393" y="237"/>
      <point x="257" y="260" type="curve" smooth="yes"/>
      <point x="130" y="282"/>
      <point x="89" y="314"/>
      <point x="89" y="376" type="curve" smooth="yes"/>
      <point x="89" y="437"/>
      <point x="156" y="486"/>
      <point x="248" y="486" type="curve" smooth="yes"/>
      <point x="336" y="486"/>
      <point x="393" y="451"/>
      <point x="411" y="372" type="curve"/>
      <point x="435" y="386" type="line"/>
      <point x="415" y="472"/>
      <point x="351" y="510"/>
      <point x="248" y="510" type="curve" smooth="yes"/>
      <point x="138" y="510"/>
      <point x="61" y="449"/>
      <point x="61" y="371" type="curve" smooth="yes"/>
      <point x="61" y="297"/>
      <point x="108" y="259"/>
      <point x="249" y="235" type="curve" smooth="yes"/>
      <point x="372" y="213"/>
      <point x="412" y="182"/>
      <point x="412" y="126" type="curve" smooth="yes"/>
      <point x="412" y="59"/>
      <point x="350" y="15"/>
      <point x="248" y="15" type="curve" smooth="yes"/>
      <point x="153" y="15"/>
      <point x="82" y="51"/>
      <point x="63" y="124" type="curve"/>
      <point x="39" y="110" type="line"/>
      <point x="62" y="30"/>
      <point x="143" y="-10"/>
      <point x="244" y="-10" type="curve" smooth="yes"/>
      <point x="364" y="-10"/>
      <point x="440" y="43"/>
    </contour>
  </outline>
</glyph>
<glyph name="t" format="2">
  <advance width="346"/>
  <unicode hex="0074"/>
  <anchor x="127" y="275" name="center"/>
  <anchor x="218" y="0" name="bottomC"/>
  <anchor x="129" y="730" name="top"/>
  <anchor x="227" y="0" name="bottom"/>
  <anchor x="255" y="767" name="topright"/>
  <anchor x="315" y="11" name="ogonek"/>
  <outline>
    <contour>
      <point x="115" y="628" type="line"/>
      <point x="115" y="126" type="line" smooth="yes"/>
      <point x="115" y="35"/>
      <point x="159" y="-10"/>
      <point x="238" y="-10" type="curve" smooth="yes"/>
      <point x="281" y="-10"/>
      <point x="318" y="7"/>
      <point x="341" y="29" type="curve"/>
      <point x="329" y="52" type="line"/>
      <point x="305" y="27"/>
      <point x="277" y="15"/>
      <point x="241" y="15" type="curve" smooth="yes"/>
      <point x="175" y="15"/>
      <point x="143" y="54"/>
      <point x="143" y="128" type="curve" smooth="yes"/>
      <point x="143" y="636" type="line"/>
    </contour>
    <contour>
      <point x="15" y="500" type="line"/>
      <point x="15" y="476" type="line"/>
      <point x="334" y="476" type="line"/>
      <point x="334" y="500" type="line"/>
    </contour>
  </outline>
</glyph>
<glyph name="u" format="2">
  <advance width="574"/>
  <unicode hex="0075"/>
  <anchor x="486" y="0" name="bottomC"/>
  <anchor x="285" y="500" name="top"/>
  <anchor x="488" y="0" name="ogonek"/>
  <anchor x="285" y="0" name="bottom"/>
  <outline>
    <contour>
      <point x="81" y="500" type="line"/>
      <point x="81" y="168" type="line" smooth="yes"/>
      <point x="81" y="52"/>
      <point x="149" y="-10"/>
      <point x="257" y="-10" type="curve" smooth="yes"/>
      <point x="384" y="-10"/>
      <point x="472" y="73"/>
      <point x="472" y="188" type="curve"/>
      <point x="460" y="202" type="line"/>
      <point x="460" y="120"/>
      <point x="395" y="15"/>
      <point x="262" y="15" type="curve" smooth="yes"/>
      <point x="165" y="15"/>
      <point x="109" y="69"/>
      <point x="109" y="174" type="curve" smooth="yes"/>
      <point x="109" y="500" type="line"/>
    </contour>
    <contour>
      <point x="460" y="500" type="line"/>
      <point x="460" y="185" type="line"/>
      <point x="460" y="156" type="line"/>
      <point x="462" y="0" type="line"/>
      <point x="488" y="0" type="line"/>
      <point x="488" y="500" type="line"/>
    </contour>
  </outline>
</glyph>
<glyph name="w" format="2">
  <advance width="793"/>
  <unicode hex="0077"/>
  <anchor x="591" y="0" name="bottomC"/>
  <anchor x="397" y="500" name="top"/>
  <anchor x="595" y="0" name="ogonek"/>
  <anchor x="397" y="0" name="bottom"/>
  <outline>
    <contour>
      <point x="382" y="500" type="line"/>
      <point x="567" y="0" type="line"/>
      <point x="594" y="0" type="line"/>
      <point x="411" y="500" type="line"/>
    </contour>
    <contour>
      <point x="31" y="500" type="line"/>
      <point x="198" y="0" type="line"/>
      <point x="224" y="0" type="line"/>
      <point x="61" y="500" type="line"/>
    </contour>
    <contour>
      <point x="382" y="500" type="line"/>
      <point x="200" y="0" type="line"/>
      <point x="226" y="0" type="line"/>
      <point x="409" y="500" type="line"/>
    </contour>
    <contour>
      <point x="732" y="500" type="line"/>
      <point x="569" y="0" type="line"/>
      <point x="595" y="0" type="line"/>
      <point x="763" y="500" type="line"/>
    </contour>
  </outline>
</glyph>
<glyph name="x" format="2">
  <advance width="483"/>
  <unicode hex="0078"/>
  <anchor x="465" y="0" name="bottomC"/>
  <anchor x="242" y="500" name="top"/>
  <anchor x="469" y="0" name="ogonek"/>
  <anchor x="242" y="0" name="bottom"/>
  <outline>
    <contour>
      <point x="29" y="500" type="line"/>
      <point x="229" y="251" type="line"/>
      <point x="234" y="245" type="line"/>
      <point x="431" y="0" type="line"/>
      <point x="469" y="0" type="line"/>
      <point x="251" y="271" type="line"/>
      <point x="247" y="276" type="line"/>
      <point x="67" y="500" type="line"/>
    </contour>
    <contour>
      <point x="410" y="500" type="line"/>
      <point x="234" y="272" type="line"/>
      <point x="231" y="269" type="line"/>
      <point x="21" y="0" type="line"/>
      <point x="56" y="0" type="line"/>
      <point x="248" y="247" type="line"/>
      <point x="254" y="254" type="line"/>
      <point x="445" y="500" type="line"/>
    </contour>
  </outline>
</glyph>
<glyph name="z" format="2">
  <advance width="484"/>
  <unicode hex="007A"/>
  <anchor x="240" y="0" name="bottomC"/>
  <anchor x="240" y="500" name="top"/>
  <anchor x="451" y="0" name="ogonek"/>
  <anchor x="240" y="0" name="bottom"/>
  <outline>
    <contour>
      <point x="451" y="0" type="line"/>
      <point x="451" y="24" type="line"/>
      <point x="161" y="24" type="line"/>
      <point x="76" y="24" type="line"/>
      <point x="134" y="92" type="line"/>
      <point x="437" y="477" type="line"/>
      <point x="437" y="500" type="line"/>
      <point x="36" y="500" type="line"/>
      <point x="36" y="476" type="line"/>
      <point x="333" y="476" type="line"/>
      <point x="405" y="476" type="line"/>
      <point x="360" y="424" type="line"/>
      <point x="42" y="23" type="line"/>
      <point x="42" y="0" type="line"/>
    </contour>
  </outline>
</glyph>
<glyph name="asciitilde" format="2">
  <advance width="490"/>
  <unicode hex="007E"/>
  <outline>
    <contour>
      <point x="420" y="393" type="line"/>
      <point x="411" y="341"/>
      <point x="389" y="314"/>
      <point x="344" y="314" type="curve" smooth="yes"/>
      <point x="268" y="314"/>
      <point x="234" y="388"/>
      <point x="145" y="388" type="curve" smooth="yes"/>
      <point x="85" y="388"/>
      <point x="52" y="353"/>
      <point x="43" y="284" type="curve"/>
      <point x="70" y="284" type="line"/>
      <point x="79" y="336"/>
      <point x="101" y="363"/>
      <point x="146" y="363" type="curve" smooth="yes"/>
      <point x="223" y="363"/>
      <point x="257" y="289"/>
      <point x="346" y="289" type="curve" smooth="yes"/>
      <point x="405" y="289"/>
      <point x="439" y="323"/>
      <point x="447" y="393" type="curve"/>
    </contour>
  </outline>
</glyph>
<glyph name="cent" format="2">
  <advance width="543"/>
  <unicode hex="00A2"/>
  <outline>
    <contour>
      <point x="58" y="250" type="curve" smooth="yes"/>
      <point x="58" y="88"/>
      <point x="142" y="-10"/>
      <point x="288" y="-10" type="curve" smooth="yes"/>
      <point x="390" y="-10"/>
      <point x="473" y="47"/>
      <point x="493" y="137" type="curve"/>
      <point x="468" y="146" type="line"/>
      <point x="453" y="64"/>
      <point x="377" y="14"/>
      <point x="288" y="14" type="curve" smooth="yes"/>
      <point x="158" y="14"/>
      <point x="85" y="102"/>
      <point x="85" y="250" type="curve" smooth="yes"/>
      <point x="85" y="398"/>
      <point x="161" y="486"/>
      <point x="290" y="486" type="curve" smooth="yes"/>
      <point x="379" y="486"/>
      <point x="442" y="442"/>
      <point x="463" y="361" type="curve"/>
      <point x="489" y="374" type="line"/>
      <point x="463" y="461"/>
      <point x="390" y="510"/>
      <point x="291" y="510" type="curve" smooth="yes"/>
      <point x="144" y="510"/>
      <point x="58" y="412"/>
    </contour>
    <contour>
      <point x="270" y="600" type="line"/>
      <point x="270" y="-100" type="line"/>
      <point x="294" y="-100" type="line"/>
      <point x="294" y="600" type="line"/>
    </contour>
  </outline>
</glyph>
<glyph name="brokenbar" format="2">
  <advance width="195"/>
  <unicode hex="00A6"/>
  <outline>
    <contour>
      <point x="85" y="730" type="line"/>
      <point x="85" y="365" type="line"/>
      <point x="110" y="365" type="line"/>
      <point x="110" y="730" type="line"/>
    </contour>
    <contour>
      <point x="85" y="197" type="line"/>
      <point x="85" y="-168" type="line"/>
      <point x="110" y="-168" type="line"/>
      <point x="110" y="197" type="line"/>
    </contour>
  </outline>
</glyph>
<glyph name="section" format="2">
  <advance width="548"/>
  <unicode hex="00A7"/>
  <outline>
    <contour>
      <point x="98" y="529" type="curve" smooth="yes"/>
      <point x="98" y="444"/>
      <point x="152" y="401"/>
      <point x="309" y="379" type="curve" smooth="yes"/>
      <point x="445" y="359"/>
      <point x="488" y="328"/>
      <point x="488" y="266" type="curve" smooth="yes"/>
      <point x="488" y="194"/>
      <point x="409" y="161"/>
      <point x="343" y="150" type="curve"/>
      <point x="358" y="133" type="line"/>
      <point x="442" y="145"/>
      <point x="516" y="190"/>
      <point x="516" y="267" type="curve" smooth="yes"/>
      <point x="516" y="344"/>
      <point x="465" y="383"/>
      <point x="316" y="405" type="curve" smooth="yes"/>
      <point x="173" y="426"/>
      <point x="126" y="461"/>
      <point x="126" y="531" type="curve" smooth="yes"/>
      <point x="126" y="597"/>
      <point x="183" y="646"/>
      <point x="285" y="646" type="curve" smooth="yes"/>
      <point x="367" y="646"/>
      <point x="424" y="621"/>
      <point x="445" y="566" type="curve"/>
      <point x="466" y="582" type="line"/>
      <point x="441" y="641"/>
      <point x="378" y="670"/>
      <point x="285" y="670" type="curve" smooth="yes"/>
      <point x="163" y="670"/>
      <point x="98" y="605"/>
    </contour>
    <contour>
      <point x="464" y="31" type="curve" smooth="yes"/>
      <point x="464" y="116"/>
      <point x="410" y="157"/>
      <point x="252" y="181" type="curve" smooth="yes"/>
      <point x="117" y="202"/>
      <point x="74" y="232"/>
      <point x="74" y="294" type="curve" smooth="yes"/>
      <point x="74" y="366"/>
      <point x="153" y="399"/>
      <point x="219" y="410" type="curve"/>
      <point x="203" y="427" type="line"/>
      <point x="120" y="415"/>
      <point x="46" y="370"/>
      <point x="46" y="293" type="curve" smooth="yes"/>
      <point x="46" y="216"/>
      <point x="97" y="178"/>
      <point x="246" y="156" type="curve" smooth="yes"/>
      <point x="389" y="134"/>
      <point x="436" y="99"/>
      <point x="436" y="29" type="curve" smooth="yes"/>
      <point x="436" y="-37"/>
      <point x="379" y="-86"/>
      <point x="277" y="-86" type="curve" smooth="yes"/>
      <point x="195" y="-86"/>
      <point x="138" y="-62"/>
      <point x="117" y="-6" type="curve"/>
      <point x="95" y="-22" type="line"/>
      <point x="122" y="-82"/>
      <point x="186" y="-110"/>
      <point x="277" y="-110" type="curve" smooth="yes"/>
      <point x="398" y="-110"/>
      <point x="464" y="-45"/>
    </contour>
  </outline>
</glyph>
<glyph name="dieresis" format="2">
  <advance width="541"/>
  <unicode hex="00A8"/>
  <anchor x="272" y="500" name="_top"/>
  <outline>
    <contour>
      <point x="149" y="624" type="curve" smooth="yes"/>
      <point x="149" y="607"/>
      <point x="161" y="595"/>
      <point x="178" y="595" type="curve" smooth="yes"/>
      <point x="195" y="595"/>
      <point x="207" y="607"/>
      <point x="207" y="624" type="curve" smooth="yes"/>
      <point x="207" y="641"/>
      <point x="195" y="652"/>
      <point x="178" y="652" type="curve" smooth="yes"/>
      <point x="161" y="652"/>
      <point x="149" y="641"/>
    </contour>
    <contour>
      <point x="335" y="624" type="curve" smooth="yes"/>
      <point x="335" y="607"/>
      <point x="347" y="595"/>
      <point x="364" y="595" type="curve" smooth="yes"/>
      <point x="381" y="595"/>
      <point x="392" y="607"/>
      <point x="392" y="624" type="curve" smooth="yes"/>
      <point x="392" y="641"/>
      <point x="381" y="652"/>
      <point x="364" y="652" type="curve" smooth="yes"/>
      <point x="347" y="652"/>
      <point x="335" y="641"/>
    </contour>
  </outline>
</glyph>
<glyph name="copyright" format="2">
  <advance width="801"/>
  <unicode hex="00A9"/>
  <outline>
    <contour>
      <point x="58" y="330" type="curve" smooth="yes"/>
      <point x="58" y="126"/>
      <point x="195" y="-10"/>
      <point x="400" y="-10" type="curve" smooth="yes"/>
      <point x="606" y="-10"/>
      <point x="742" y="126"/>
      <point x="742" y="330" type="curve" smooth="yes"/>
      <point x="742" y="534"/>
      <point x="606" y="670"/>
      <point x="400" y="670" type="curve" smooth="yes"/>
      <point x="195" y="670"/>
      <point x="58" y="534"/>
    </contour>
    <contour>
      <point x="229" y="328" type="curve" smooth="yes"/>
      <point x="229" y="212"/>
      <point x="298" y="143"/>
      <point x="411" y="143" type="curve" smooth="yes"/>
      <point x="487" y="143"/>
      <point x="547" y="185"/>
      <point x="566" y="252" type="curve"/>
      <point x="544" y="261" type="line"/>
      <point x="529" y="202"/>
      <point x="477" y="166"/>
      <point x="410" y="166" type="curve" smooth="yes"/>
      <point x="313" y="166"/>
      <point x="255" y="226"/>
      <point x="255" y="328" type="curve" smooth="yes"/>
      <point x="255" y="430"/>
      <point x="313" y="490"/>
      <point x="410" y="490" type="curve" smooth="yes"/>
      <point x="477" y="490"/>
      <point x="521" y="461"/>
      <point x="539" y="403" type="curve"/>
      <point x="562" y="414" type="line"/>
      <point x="539" y="479"/>
      <point x="488" y="513"/>
      <point x="411" y="513" type="curve" smooth="yes"/>
      <point x="298" y="513"/>
      <point x="229" y="444"/>
    </contour>
    <contour>
      <point x="716" y="330" type="curve" smooth="yes"/>
      <point x="716" y="140"/>
      <point x="590" y="14"/>
      <point x="400" y="14" type="curve" smooth="yes"/>
      <point x="211" y="14"/>
      <point x="85" y="140"/>
      <point x="85" y="330" type="curve" smooth="yes"/>
      <point x="85" y="520"/>
      <point x="211" y="646"/>
      <point x="400" y="646" type="curve" smooth="yes"/>
      <point x="590" y="646"/>
      <point x="716" y="520"/>
    </contour>
  </outline>
</glyph>
<glyph name="ordfeminine" format="2">
  <advance width="358"/>
  <unicode hex="00AA"/>
  <outline>
    <contour>
      <point x="57" y="574" type="line"/>
      <point x="75" y="622"/>
      <point x="111" y="644"/>
      <point x="169" y="644" type="curve" smooth="yes"/>
      <point x="232" y="644"/>
      <point x="267" y="610"/>
      <point x="267" y="554" type="curve" smooth="yes"/>
      <point x="267" y="410" type="line"/>
      <point x="269" y="388" type="line"/>
      <point x="269" y="340"/>
      <point x="293" y="326"/>
      <point x="320" y="326" type="curve" smooth="yes"/>
      <point x="333" y="326"/>
      <point x="342" y="329"/>
      <point x="349" y="333" type="curve"/>
      <point x="350" y="352" type="line"/>
      <point x="344" y="349"/>
      <point x="337" y="347"/>
      <point x="325" y="347" type="curve" smooth="yes"/>
      <point x="304" y="347"/>
      <point x="293" y="359"/>
      <point x="293" y="388" type="curve" smooth="yes"/>
      <point x="293" y="556" type="line" smooth="yes"/>
      <point x="293" y="627"/>
      <point x="246" y="665"/>
      <point x="169" y="665" type="curve" smooth="yes"/>
      <point x="100" y="665"/>
      <point x="54" y="635"/>
      <point x="37" y="583" type="curve"/>
    </contour>
    <contour>
      <point x="337" y="219" type="line"/>
      <point x="337" y="240" type="line"/>
      <point x="36" y="240" type="line"/>
      <point x="36" y="219" type="line"/>
    </contour>
    <contour>
      <point x="277" y="423" type="curve"/>
      <point x="267" y="437" type="line"/>
      <point x="267" y="377"/>
      <point x="194" y="348"/>
      <point x="142" y="348" type="curve" smooth="yes"/>
      <point x="88" y="348"/>
      <point x="57" y="370"/>
      <point x="57" y="408" type="curve" smooth="yes"/>
      <point x="57" y="448"/>
      <point x="88" y="473"/>
      <point x="167" y="487" type="curve" smooth="yes"/>
      <point x="279" y="508" type="line"/>
      <point x="276" y="527" type="line"/>
      <point x="157" y="506" type="line" smooth="yes"/>
      <point x="70" y="491"/>
      <point x="31" y="459"/>
      <point x="31" y="408" type="curve" smooth="yes"/>
      <point x="31" y="355"/>
      <point x="73" y="326"/>
      <point x="139" y="326" type="curve" smooth="yes"/>
      <point x="205" y="326"/>
      <point x="277" y="359"/>
    </contour>
  </outline>
</glyph>
<glyph name="logicalnot" format="2">
  <advance width="604"/>
  <unicode hex="00AC"/>
  <outline>
    <contour>
      <point x="502" y="317" type="line"/>
      <point x="502" y="168" type="line"/>
      <point x="530" y="168" type="line"/>
      <point x="530" y="317" type="line"/>
    </contour>
    <contour>
      <point x="74" y="329" type="line"/>
      <point x="74" y="303" type="line"/>
      <point x="530" y="303" type="line"/>
      <point x="530" y="329" type="line"/>
    </contour>
  </outline>
</glyph>
<glyph name="degree" format="2">
  <advance width="387"/>
  <unicode hex="00B0"/>
  <outline>
    <contour>
      <point x="334" y="529" type="curve" smooth="yes"/>
      <point x="334" y="612"/>
      <point x="278" y="670"/>
      <point x="193" y="670" type="curve" smooth="yes"/>
      <point x="109" y="670"/>
      <point x="53" y="612"/>
      <point x="53" y="529" type="curve" smooth="yes"/>
      <point x="53" y="446"/>
      <point x="109" y="389"/>
      <point x="193" y="389" type="curve" smooth="yes"/>
      <point x="278" y="389"/>
      <point x="334" y="446"/>
    </contour>
    <contour>
      <point x="79" y="529" type="curve" smooth="yes"/>
      <point x="79" y="598"/>
      <point x="124" y="646"/>
      <point x="193" y="646" type="curve" smooth="yes"/>
      <point x="263" y="646"/>
      <point x="308" y="598"/>
      <point x="308" y="529" type="curve" smooth="yes"/>
      <point x="308" y="461"/>
      <point x="263" y="412"/>
      <point x="193" y="412" type="curve" smooth="yes"/>
      <point x="124" y="412"/>
      <point x="79" y="461"/>
    </contour>
  </outline>
</glyph>
<glyph name="plusminus" format="2">
  <advance width="604"/>
  <unicode hex="00B1"/>
  <outline>
    <contour>
      <point x="289" y="625" type="line"/>
      <point x="289" y="115" type="line"/>
      <point x="316" y="115" type="line"/>
      <point x="316" y="625" type="line"/>
    </contour>
    <contour>
      <point x="74" y="385" type="line"/>
      <point x="74" y="360" type="line"/>
      <point x="530" y="360" type="line"/>
      <point x="530" y="385" type="line"/>
    </contour>
    <contour>
      <point x="74" y="25" type="line"/>
      <point x="74" y="0" type="line"/>
      <point x="530" y="0" type="line"/>
      <point x="530" y="25" type="line"/>
    </contour>
  </outline>
</glyph>
<glyph name="twosuperior" format="2">
  <advance width="336"/>
  <unicode hex="00B2"/>
  <anchor x="165" y="517" name="_indexring"/>
  <outline>
    <contour>
      <point x="305" y="333" type="line"/>
      <point x="305" y="355" type="line"/>
      <point x="105" y="355" type="line" smooth="yes"/>
      <point x="96" y="355"/>
      <point x="82" y="355"/>
      <point x="72" y="355" type="curve"/>
      <point x="72" y="356" type="line"/>
      <point x="103" y="381"/>
      <point x="133" y="406"/>
      <point x="164" y="431" type="curve" smooth="yes"/>
      <point x="231" y="485"/>
      <point x="290" y="551"/>
      <point x="290" y="615" type="curve" smooth="yes"/>
      <point x="290" y="687"/>
      <point x="242" y="735"/>
      <point x="163" y="735" type="curve" smooth="yes"/>
      <point x="84" y="735"/>
      <point x="35" y="684"/>
      <point x="30" y="611" type="curve"/>
      <point x="54" y="604" type="line"/>
      <point x="57" y="671"/>
      <point x="97" y="713"/>
      <point x="162" y="713" type="curve" smooth="yes"/>
      <point x="225" y="713"/>
      <point x="264" y="674"/>
      <point x="264" y="615" type="curve" smooth="yes"/>
      <point x="264" y="556"/>
      <point x="214" y="501"/>
      <point x="147" y="446" type="curve" smooth="yes"/>
      <point x="111" y="415"/>
      <point x="74" y="384"/>
      <point x="37" y="354" type="curve"/>
      <point x="37" y="333" type="line"/>
    </contour>
  </outline>
</glyph>
<glyph name="threesuperior" format="2">
  <advance width="317"/>
  <unicode hex="00B3"/>
  <anchor x="147" y="530" name="_indexring"/>
  <outline>
    <contour>
      <point x="28" y="652" type="curve"/>
      <point x="51" y="642" type="line"/>
      <point x="61" y="685"/>
      <point x="96" y="713"/>
      <point x="149" y="713" type="curve" smooth="yes"/>
      <point x="208" y="713"/>
      <point x="242" y="680"/>
      <point x="242" y="627" type="curve" smooth="yes"/>
      <point x="242" y="581"/>
      <point x="211" y="543"/>
      <point x="154" y="543" type="curve" smooth="yes"/>
      <point x="129" y="543" type="line"/>
      <point x="129" y="522" type="line"/>
      <point x="154" y="522" type="line" smooth="yes"/>
      <point x="218" y="522"/>
      <point x="252" y="491"/>
      <point x="252" y="439" type="curve" smooth="yes"/>
      <point x="252" y="382"/>
      <point x="209" y="349"/>
      <point x="150" y="349" type="curve" smooth="yes"/>
      <point x="85" y="349"/>
      <point x="50" y="381"/>
      <point x="39" y="431" type="curve"/>
      <point x="16" y="419" type="line"/>
      <point x="33" y="361"/>
      <point x="78" y="327"/>
      <point x="149" y="327" type="curve" smooth="yes"/>
      <point x="223" y="327"/>
      <point x="278" y="370"/>
      <point x="278" y="438" type="curve" smooth="yes"/>
      <point x="278" y="489"/>
      <point x="243" y="527"/>
      <point x="195" y="532" type="curve"/>
      <point x="195" y="534" type="line"/>
      <point x="240" y="546"/>
      <point x="269" y="579"/>
      <point x="269" y="629" type="curve" smooth="yes"/>
      <point x="269" y="690"/>
      <point x="225" y="735"/>
      <point x="149" y="735" type="curve" smooth="yes"/>
      <point x="89" y="735"/>
      <point x="42" y="703"/>
    </contour>
  </outline>
</glyph>
<glyph name="uni00B5" format="2">
  <advance width="580"/>
  <unicode hex="00B5"/>
  <anchor x="491" y="0" name="bottomC"/>
  <anchor x="298" y="500" name="top"/>
  <anchor x="494" y="0" name="ogonek"/>
  <anchor x="298" y="-210" name="bottom"/>
  <outline>
    <contour>
      <point x="115" y="174" type="curve"/>
      <point x="97" y="168" type="line"/>
      <point x="97" y="52"/>
      <point x="169" y="-10"/>
      <point x="263" y="-10" type="curve" smooth="yes"/>
      <point x="390" y="-10"/>
      <point x="475" y="73"/>
      <point x="478" y="181" type="curve"/>
      <point x="466" y="196" type="line"/>
      <point x="463" y="97"/>
      <point x="381" y="15"/>
      <point x="268" y="15" type="curve" smooth="yes"/>
      <point x="178" y="15"/>
      <point x="115" y="68"/>
    </contour>
    <contour>
      <point x="87" y="500" type="line"/>
      <point x="87" y="-210" type="line"/>
      <point x="115" y="-210" type="line"/>
      <point x="115" y="500" type="line"/>
    </contour>
    <contour>
      <point x="466" y="500" type="line"/>
      <point x="466" y="188" type="line"/>
      <point x="467" y="150" type="line"/>
      <point x="468" y="0" type="line"/>
      <point x="494" y="0" type="line"/>
      <point x="494" y="184" type="line"/>
      <point x="494" y="500" type="line"/>
    </contour>
  </outline>
</glyph>
<glyph name="onesuperior" format="2">
  <advance width="203"/>
  <unicode hex="00B9"/>
  <anchor x="118" y="527" name="_indexring"/>
  <outline>
    <contour>
      <point x="146" y="730" type="line"/>
      <point x="124" y="730" type="line"/>
      <point x="121" y="699"/>
      <point x="120" y="663"/>
      <point x="120" y="632" type="curve" smooth="yes"/>
      <point x="120" y="333" type="line"/>
      <point x="146" y="333" type="line"/>
      <point x="146" y="642" type="line"/>
    </contour>
    <contour>
      <point x="138" y="723" type="curve"/>
      <point x="124" y="730" type="line"/>
      <point x="103" y="692"/>
      <point x="46" y="659"/>
      <point x="11" y="648" type="curve"/>
      <point x="11" y="626" type="line"/>
      <point x="61" y="643"/>
      <point x="116" y="678"/>
    </contour>
  </outline>
</glyph>
<glyph name="ordmasculine" format="2">
  <advance width="355"/>
  <unicode hex="00BA"/>
  <outline>
    <contour>
      <point x="320" y="496" type="curve" smooth="yes"/>
      <point x="320" y="611"/>
      <point x="275" y="665"/>
      <point x="178" y="665" type="curve" smooth="yes"/>
      <point x="80" y="665"/>
      <point x="35" y="611"/>
      <point x="35" y="496" type="curve" smooth="yes"/>
      <point x="35" y="381"/>
      <point x="80" y="327"/>
      <point x="178" y="327" type="curve" smooth="yes"/>
      <point x="275" y="327"/>
      <point x="320" y="381"/>
    </contour>
    <contour>
      <point x="313" y="219" type="line"/>
      <point x="313" y="240" type="line"/>
      <point x="43" y="240" type="line"/>
      <point x="43" y="219" type="line"/>
    </contour>
    <contour>
      <point x="61" y="496" type="curve" smooth="yes"/>
      <point x="61" y="596"/>
      <point x="97" y="644"/>
      <point x="178" y="644" type="curve" smooth="yes"/>
      <point x="258" y="644"/>
      <point x="294" y="596"/>
      <point x="294" y="496" type="curve" smooth="yes"/>
      <point x="294" y="396"/>
      <point x="258" y="349"/>
      <point x="178" y="349" type="curve" smooth="yes"/>
      <point x="97" y="349"/>
      <point x="61" y="396"/>
    </contour>
  </outline>
</glyph>
<glyph name="Idieresis" format="2">
  <advance width="229"/>
  <unicode hex="00CF"/>
  <anchor x="115" y="660" name="top"/>
  <anchor x="129" y="0" name="ogonek"/>
  <anchor x="115" y="0" name="bottom"/>
  <anchor x="121" y="0" name="bottomC"/>
  <outline>
    <contour>
      <point x="22" y="784" type="curve" smooth="yes"/>
      <point x="22" y="767"/>
      <point x="34" y="755"/>
      <point x="51" y="755" type="curve" smooth="yes"/>
      <point x="68" y="755"/>
      <point x="79" y="767"/>
      <point x="79" y="784" type="curve" smooth="yes"/>
      <point x="79" y="801"/>
      <point x="68" y="812"/>
      <point x="51" y="812" type="curve" smooth="yes"/>
      <point x="34" y="812"/>
      <point x="22" y="801"/>
    </contour>
    <contour>
      <point x="150" y="784" type="curve" smooth="yes"/>
      <point x="150" y="767"/>
      <point x="162" y="755"/>
      <point x="179" y="755" type="curve" smooth="yes"/>
      <point x="196" y="755"/>
      <point x="207" y="767"/>
      <point x="207" y="784" type="curve" smooth="yes"/>
      <point x="207" y="801"/>
      <point x="196" y="812"/>
      <point x="179" y="812" type="curve" smooth="yes"/>
      <point x="162" y="812"/>
      <point x="150" y="801"/>
    </contour>
    <component base="I"/>
  </outline>
</glyph>
<glyph name="multiply" format="2">
  <advance width="604"/>
  <unicode hex="00D7"/>
  <outline>
    <contour>
      <point x="116" y="148" type="line"/>
      <point x="467" y="499" type="line"/>
      <point x="488" y="479" type="line"/>
      <point x="136" y="127" type="line"/>
    </contour>
    <contour>
      <point x="116" y="479" type="line"/>
      <point x="136" y="499" type="line"/>
      <point x="488" y="148" type="line"/>
      <point x="467" y="127" type="line"/>
    </contour>
  </outline>
</glyph>
<glyph name="Thorn" format="2">
  <advance width="578"/>
  <unicode hex="00DE"/>
  <anchor x="121" y="0" name="bottomC"/>
  <anchor x="115" y="660" name="top"/>
  <anchor x="129" y="0" name="ogonek"/>
  <anchor x="115" y="0" name="bottom"/>
  <outline>
    <contour>
      <point x="116" y="528" type="line"/>
      <point x="116" y="503" type="line"/>
      <point x="309" y="503" type="line" smooth="yes"/>
      <point x="441" y="503"/>
      <point x="507" y="448"/>
      <point x="507" y="339" type="curve" smooth="yes"/>
      <point x="507" y="231"/>
      <point x="441" y="176"/>
      <point x="309" y="176" type="curve" smooth="yes"/>
      <point x="116" y="176" type="line"/>
      <point x="116" y="151" type="line"/>
      <point x="300" y="151" type="line" smooth="yes"/>
      <point x="456" y="151"/>
      <point x="536" y="216"/>
      <point x="536" y="339" type="curve" smooth="yes"/>
      <point x="536" y="463"/>
      <point x="456" y="528"/>
      <point x="300" y="528" type="curve" smooth="yes"/>
    </contour>
    <contour>
      <point x="101" y="660" type="line"/>
      <point x="101" y="0" type="line"/>
      <point x="129" y="0" type="line"/>
      <point x="129" y="660" type="line"/>
    </contour>
  </outline>
</glyph>
<glyph name="idieresis" format="2">
  <advance width="201"/>
  <unicode hex="00EF"/>
  <anchor x="101" y="500" name="top"/>
  <anchor x="115" y="0" name="ogonek"/>
  <anchor x="101" y="0" name="bottom"/>
  <anchor x="107" y="0" name="bottomC"/>
  <outline>
    <contour>
      <point x="185" y="624" type="curve" smooth="yes"/>
      <point x="185" y="641"/>
      <point x="173" y="652"/>
      <point x="156" y="652" type="curve" smooth="yes"/>
      <point x="139" y="652"/>
      <point x="127" y="641"/>
      <point x="127" y="624" type="curve" smooth="yes"/>
      <point x="127" y="607"/>
      <point x="139" y="595"/>
      <point x="156" y="595" type="curve" smooth="yes"/>
      <point x="173" y="595"/>
      <point x="185" y="607"/>
    </contour>
    <contour>
      <point x="74" y="624" type="curve" smooth="yes"/>
      <point x="74" y="641"/>
      <point x="62" y="652"/>
      <point x="45" y="652" type="curve" smooth="yes"/>
      <point x="28" y="652"/>
      <point x="16" y="641"/>
      <point x="16" y="624" type="curve" smooth="yes"/>
      <point x="16" y="607"/>
      <point x="28" y="595"/>
      <point x="45" y="595" type="curve" smooth="yes"/>
      <point x="62" y="595"/>
      <point x="74" y="607"/>
    </contour>
    <component base="idotless"/>
  </outline>
</glyph>
<glyph name="divide" format="2">
  <advance width="604"/>
  <unicode hex="00F7"/>
  <outline>
    <contour>
      <point x="74" y="329" type="line"/>
      <point x="74" y="303" type="line"/>
      <point x="530" y="303" type="line"/>
      <point x="530" y="329" type="line"/>
    </contour>
    <component base="period" xOffset="209" yOffset="106"/>
    <component base="period" xOffset="209" yOffset="480"/>
  </outline>
</glyph>
<glyph name="oslash" format="2">
  <advance width="577"/>
  <unicode hex="00F8"/>
  <anchor x="289" y="0" name="bottomC"/>
  <anchor x="289" y="500" name="top"/>
  <anchor x="411" y="20" name="ogonek"/>
  <anchor x="289" y="0" name="bottom"/>
  <outline>
    <contour>
      <point x="53" y="250" type="curve" smooth="yes"/>
      <point x="53" y="165"/>
      <point x="78" y="98"/>
      <point x="122" y="53" type="curve"/>
      <point x="56" y="-31" type="line"/>
      <point x="86" y="-31" type="line"/>
      <point x="140" y="37" type="line"/>
      <point x="178" y="7"/>
      <point x="229" y="-10"/>
      <point x="289" y="-10" type="curve" smooth="yes"/>
      <point x="435" y="-10"/>
      <point x="523" y="88"/>
      <point x="523" y="250" type="curve" smooth="yes"/>
      <point x="523" y="333"/>
      <point x="501" y="399"/>
      <point x="458" y="444" type="curve"/>
      <point x="525" y="529" type="line"/>
      <point x="495" y="529" type="line"/>
      <point x="441" y="459" type="line"/>
      <point x="402" y="492"/>
      <point x="351" y="510"/>
      <point x="289" y="510" type="curve" smooth="yes"/>
      <point x="142" y="510"/>
      <point x="53" y="412"/>
    </contour>
    <contour>
      <point x="81" y="250" type="curve" smooth="yes"/>
      <point x="81" y="397"/>
      <point x="160" y="486"/>
      <point x="289" y="486" type="curve" smooth="yes"/>
      <point x="344" y="486"/>
      <point x="390" y="469"/>
      <point x="425" y="438" type="curve"/>
      <point x="167" y="111" type="line"/>
      <point x="140" y="75" type="line"/>
      <point x="139" y="75" type="line"/>
      <point x="101" y="115"/>
      <point x="81" y="175"/>
    </contour>
    <contour>
      <point x="156" y="58" type="curve"/>
      <point x="419" y="394" type="line"/>
      <point x="440" y="422" type="line"/>
      <point x="441" y="422" type="line"/>
      <point x="476" y="381"/>
      <point x="495" y="323"/>
      <point x="495" y="250" type="curve" smooth="yes"/>
      <point x="495" y="103"/>
      <point x="417" y="14"/>
      <point x="289" y="14" type="curve" smooth="yes"/>
      <point x="235" y="14"/>
      <point x="190" y="30"/>
    </contour>
  </outline>
</glyph>
<glyph name="thorn" format="2">
  <advance width="593"/>
  <unicode hex="00FE"/>
  <anchor x="308" y="0" name="bottomC"/>
  <anchor x="101" y="730" name="top"/>
  <anchor x="429" y="20" name="ogonek"/>
  <anchor x="101" y="-210" name="bottom"/>
  <outline>
    <contour>
      <point x="87" y="730" type="line"/>
      <point x="87" y="-210" type="line"/>
      <point x="115" y="-210" type="line"/>
      <point x="115" y="730" type="line"/>
    </contour>
    <contour>
      <point x="101" y="280" type="curve"/>
      <point x="115" y="254" type="line"/>
      <point x="115" y="397"/>
      <point x="190" y="486"/>
      <point x="307" y="486" type="curve" smooth="yes"/>
      <point x="436" y="486"/>
      <point x="512" y="398"/>
      <point x="512" y="250" type="curve" smooth="yes"/>
      <point x="512" y="102"/>
      <point x="436" y="15"/>
      <point x="307" y="15" type="curve" smooth="yes"/>
      <point x="191" y="15"/>
      <point x="115" y="102"/>
      <point x="115" y="246" type="curve"/>
      <point x="102" y="217" type="line"/>
      <point x="102" y="77"/>
      <point x="184" y="-10"/>
      <point x="311" y="-10" type="curve" smooth="yes"/>
      <point x="454" y="-10"/>
      <point x="540" y="87"/>
      <point x="540" y="250" type="curve" smooth="yes"/>
      <point x="540" y="413"/>
      <point x="454" y="510"/>
      <point x="311" y="510" type="curve" smooth="yes"/>
      <point x="185" y="510"/>
      <point x="101" y="422"/>
    </contour>
  </outline>
</glyph>
<glyph name="Imacron" format="2">
  <advance width="229"/>
  <unicode hex="012A"/>
  <anchor x="115" y="660" name="top"/>
  <anchor x="129" y="0" name="ogonek"/>
  <anchor x="115" y="0" name="bottom"/>
  <anchor x="121" y="0" name="bottomC"/>
  <outline>
    <contour>
      <point x="6" y="787" type="line"/>
      <point x="6" y="763" type="line"/>
      <point x="224" y="763" type="line"/>
      <point x="224" y="787" type="line"/>
    </contour>
    <component base="I"/>
  </outline>
</glyph>
<glyph name="Lslash" format="2">
  <advance width="568"/>
  <unicode hex="0141"/>
  <anchor x="479" y="336" name="center"/>
  <anchor x="351" y="0" name="bottomC"/>
  <anchor x="129" y="660" name="top"/>
  <anchor x="351" y="0" name="bottom"/>
  <anchor x="283" y="700" name="topright"/>
  <anchor x="552" y="0" name="ogonek"/>
  <outline>
    <contour>
      <point x="14" y="241" type="line"/>
      <point x="14" y="209" type="line"/>
      <point x="345" y="415" type="line"/>
      <point x="345" y="447" type="line"/>
    </contour>
    <component base="L" xOffset="15"/>
  </outline>
</glyph>
<glyph name="uogonek" format="2">
  <advance width="574"/>
  <unicode hex="0173"/>
  <anchor x="424" y="-199" name="bottomC"/>
  <anchor x="280" y="500" name="top"/>
  <anchor x="461" y="-199" name="ogonek"/>
  <anchor x="285" y="-171" name="bottom"/>
  <outline>
    <contour>
      <point x="81" y="500" type="line"/>
      <point x="81" y="168" type="line" smooth="yes"/>
      <point x="81" y="52"/>
      <point x="149" y="-10"/>
      <point x="257" y="-10" type="curve" smooth="yes"/>
      <point x="380" y="-10"/>
      <point x="472" y="76"/>
      <point x="472" y="188" type="curve"/>
      <point x="460" y="204" type="line"/>
      <point x="460" y="123"/>
      <point x="394" y="15"/>
      <point x="262" y="15" type="curve" smooth="yes"/>
      <point x="165" y="15"/>
      <point x="109" y="69"/>
      <point x="109" y="174" type="curve" smooth="yes"/>
      <point x="109" y="500" type="line"/>
    </contour>
    <contour>
      <point x="488" y="0" type="curve"/>
      <point x="468" y="11" type="line"/>
      <point x="378" y="-40"/>
      <point x="344" y="-72"/>
      <point x="344" y="-127" type="curve" smooth="yes"/>
      <point x="344" y="-176"/>
      <point x="381" y="-204"/>
      <point x="435" y="-204" type="curve" smooth="yes"/>
      <point x="470" y="-204"/>
      <point x="493" y="-194"/>
      <point x="509" y="-181" type="curve"/>
      <point x="500" y="-164" type="line"/>
      <point x="486" y="-176"/>
      <point x="468" y="-182"/>
      <point x="437" y="-182" type="curve" smooth="yes"/>
      <point x="396" y="-182"/>
      <point x="367" y="-163"/>
      <point x="367" y="-125" type="curve" smooth="yes"/>
      <point x="367" y="-77"/>
      <point x="401" y="-51"/>
    </contour>
    <contour>
      <point x="460" y="500" type="line"/>
      <point x="460" y="192" type="line"/>
      <point x="460" y="156" type="line"/>
      <point x="463" y="0" type="line"/>
      <point x="488" y="0" type="line"/>
      <point x="488" y="184" type="line"/>
      <point x="488" y="500" type="line"/>
    </contour>
  </outline>
</glyph>
<glyph name="longs" format="2">
  <advance width="219"/>
  <unicode hex="017F"/>
  <anchor x="103" y="0" name="bottomC"/>
  <anchor x="173" y="730" name="top"/>
  <anchor x="111" y="0" name="ogonek"/>
  <anchor x="100" y="0" name="bottom"/>
  <outline>
    <contour>
      <point x="111" y="0" type="line"/>
      <point x="111" y="589" type="line" smooth="yes"/>
      <point x="111" y="670"/>
      <point x="141" y="710"/>
      <point x="199" y="710" type="curve" smooth="yes"/>
      <point x="228" y="710"/>
      <point x="240" y="704"/>
      <point x="256" y="688" type="curve"/>
      <point x="264" y="710" type="line"/>
      <point x="248" y="725"/>
      <point x="233" y="735"/>
      <point x="196" y="735" type="curve" smooth="yes"/>
      <point x="122" y="735"/>
      <point x="83" y="684"/>
      <point x="83" y="591" type="curve" smooth="yes"/>
      <point x="83" y="0" type="line"/>
    </contour>
  </outline>
</glyph>
<glyph name="caron" format="2">
  <advance width="541"/>
  <unicode hex="02C7"/>
  <anchor x="250" y="500" name="_top"/>
  <outline>
    <contour>
      <point x="347" y="730" type="line"/>
      <point x="250" y="603" type="line"/>
      <point x="153" y="730" type="line"/>
      <point x="125" y="730" type="line"/>
      <point x="234" y="583" type="line"/>
      <point x="266" y="583" type="line"/>
      <point x="375" y="730" type="line"/>
    </contour>
  </outline>
</glyph>
<glyph name="uni02C9" format="2">
  <advance width="541"/>
  <unicode hex="02C9"/>
  <outline>
    <contour>
      <point x="121" y="627" type="line"/>
      <point x="121" y="603" type="line"/>
      <point x="420" y="603" type="line"/>
      <point x="420" y="627" type="line"/>
    </contour>
  </outline>
</glyph>
<glyph name="dotaccent" format="2">
  <advance width="541"/>
  <unicode hex="02D9"/>
  <anchor x="270" y="500" name="_top"/>
  <outline>
    <contour>
      <point x="241" y="627" type="curve" smooth="yes"/>
      <point x="241" y="609"/>
      <point x="253" y="598"/>
      <point x="270" y="598" type="curve" smooth="yes"/>
      <point x="288" y="598"/>
      <point x="299" y="609"/>
      <point x="299" y="627" type="curve" smooth="yes"/>
      <point x="299" y="644"/>
      <point x="288" y="656"/>
      <point x="270" y="656" type="curve" smooth="yes"/>
      <point x="253" y="656"/>
      <point x="241" y="644"/>
    </contour>
  </outline>
</glyph>
<glyph name="ogonek" format="2">
  <advance width="541"/>
  <unicode hex="02DB"/>
  <anchor x="344" y="10" name="_ogonek"/>
  <outline>
    <contour>
      <point x="317" y="14" type="line"/>
      <point x="217" y="-26"/>
      <point x="180" y="-66"/>
      <point x="180" y="-123" type="curve" smooth="yes"/>
      <point x="180" y="-176"/>
      <point x="222" y="-204"/>
      <point x="274" y="-204" type="curve" smooth="yes"/>
      <point x="313" y="-204"/>
      <point x="335" y="-195"/>
      <point x="352" y="-184" type="curve"/>
      <point x="344" y="-164" type="line"/>
      <point x="330" y="-175"/>
      <point x="309" y="-182"/>
      <point x="276" y="-182" type="curve" smooth="yes"/>
      <point x="236" y="-182"/>
      <point x="205" y="-162"/>
      <point x="205" y="-120" type="curve" smooth="yes"/>
      <point x="205" y="-74"/>
      <point x="238" y="-36"/>
      <point x="344" y="10" type="curve"/>
    </contour>
  </outline>
</glyph>
<glyph name="tilde" format="2">
  <advance width="541"/>
  <unicode hex="02DC"/>
  <anchor x="251" y="500" name="_top"/>
  <outline>
    <contour>
      <point x="390" y="689" type="line"/>
      <point x="381" y="645"/>
      <point x="367" y="620"/>
      <point x="324" y="620" type="curve" smooth="yes"/>
      <point x="261" y="620"/>
      <point x="257" y="688"/>
      <point x="180" y="688" type="curve" smooth="yes"/>
      <point x="126" y="688"/>
      <point x="100" y="658"/>
      <point x="89" y="595" type="curve"/>
      <point x="113" y="595" type="line"/>
      <point x="123" y="640"/>
      <point x="136" y="665"/>
      <point x="179" y="665" type="curve" smooth="yes"/>
      <point x="243" y="665"/>
      <point x="246" y="596"/>
      <point x="324" y="596" type="curve" smooth="yes"/>
      <point x="377" y="596"/>
      <point x="404" y="627"/>
      <point x="414" y="689" type="curve"/>
    </contour>
  </outline>
</glyph>
<glyph name="Germandbls" format="2">
  <advance width="649"/>
  <unicode hex="1E9E"/>
  <anchor x="415" y="0" name="bottomC"/>
  <anchor x="342" y="656" name="top"/>
  <anchor x="459" y="0" name="ogonek"/>
  <anchor x="342" y="0" name="bottom"/>
  <outline>
    <contour>
      <point x="129" y="0" type="line"/>
      <point x="129" y="442" type="line" smooth="yes"/>
      <point x="129" y="556"/>
      <point x="201" y="635"/>
      <point x="315" y="635" type="curve" smooth="yes"/>
      <point x="537" y="635" type="line"/>
      <point x="307" y="349" type="line"/>
      <point x="327" y="336" type="line"/>
      <point x="569" y="634" type="line"/>
      <point x="569" y="660" type="line"/>
      <point x="315" y="660" type="line" smooth="yes"/>
      <point x="183" y="660"/>
      <point x="101" y="573"/>
      <point x="101" y="443" type="curve" smooth="yes"/>
      <point x="101" y="0" type="line"/>
    </contour>
    <contour>
      <point x="606" y="181" type="curve" smooth="yes"/>
      <point x="606" y="296"/>
      <point x="537" y="349"/>
      <point x="402" y="349" type="curve" smooth="yes"/>
      <point x="307" y="349" type="line"/>
      <point x="307" y="325" type="line"/>
      <point x="396" y="325" type="line" smooth="yes"/>
      <point x="518" y="325"/>
      <point x="577" y="280"/>
      <point x="577" y="181" type="curve" smooth="yes"/>
      <point x="577" y="85"/>
      <point x="510" y="19"/>
      <point x="412" y="19" type="curve" smooth="yes"/>
      <point x="343" y="19"/>
      <point x="296" y="45"/>
      <point x="275" y="77" type="curve"/>
      <point x="260" y="56" type="line"/>
      <point x="280" y="23"/>
      <point x="339" y="-5"/>
      <point x="414" y="-5" type="curve" smooth="yes"/>
      <point x="529" y="-5"/>
      <point x="606" y="70"/>
    </contour>
  </outline>
</glyph>
<glyph name="endash" format="2">
  <advance width="619"/>
  <unicode hex="2013"/>
  <outline>
    <contour>
      <point x="71" y="282" type="line"/>
      <point x="71" y="255" type="line"/>
      <point x="549" y="255" type="line"/>
      <point x="549" y="282" type="line"/>
    </contour>
  </outline>
</glyph>
<glyph name="emdash" format="2">
  <advance width="953"/>
  <unicode hex="2014"/>
  <outline>
    <contour>
      <point x="71" y="282" type="line"/>
      <point x="71" y="255" type="line"/>
      <point x="882" y="255" type="line"/>
      <point x="882" y="282" type="line"/>
    </contour>
  </outline>
</glyph>
<glyph name="dagger" format="2">
  <advance width="510"/>
  <unicode hex="2020"/>
  <outline>
    <contour>
      <point x="241" y="660" type="line"/>
      <point x="241" y="-100" type="line"/>
      <point x="269" y="-100" type="line"/>
      <point x="269" y="660" type="line"/>
    </contour>
    <contour>
      <point x="47" y="451" type="line"/>
      <point x="47" y="427" type="line"/>
      <point x="463" y="427" type="line"/>
      <point x="463" y="451" type="line"/>
    </contour>
  </outline>
</glyph>
<glyph name="bullet" format="2">
  <advance width="430"/>
  <unicode hex="2022"/>
  <outline>
    <contour>
      <point x="143" y="339" type="curve" smooth="yes"/>
      <point x="143" y="297"/>
      <point x="173" y="267"/>
      <point x="215" y="267" type="curve" smooth="yes"/>
      <point x="257" y="267"/>
      <point x="287" y="297"/>
      <point x="287" y="339" type="curve" smooth="yes"/>
      <point x="287" y="380"/>
      <point x="257" y="410"/>
      <point x="215" y="410" type="curve" smooth="yes"/>
      <point x="173" y="410"/>
      <point x="143" y="380"/>
    </contour>
  </outline>
</glyph>
<glyph name="perthousand" format="2">
  <advance width="1134"/>
  <unicode hex="2030"/>
  <outline>
    <contour>
      <point x="810" y="167" type="curve" smooth="yes"/>
      <point x="810" y="77"/>
      <point x="855" y="-2"/>
      <point x="953" y="-2" type="curve" smooth="yes"/>
      <point x="1051" y="-2"/>
      <point x="1095" y="77"/>
      <point x="1095" y="167" type="curve" smooth="yes"/>
      <point x="1095" y="257"/>
      <point x="1051" y="337"/>
      <point x="953" y="337" type="curve" smooth="yes"/>
      <point x="855" y="337"/>
      <point x="810" y="257"/>
    </contour>
    <contour>
      <point x="1069" y="167" type="curve" smooth="yes"/>
      <point x="1069" y="88"/>
      <point x="1033" y="21"/>
      <point x="953" y="21" type="curve" smooth="yes"/>
      <point x="873" y="21"/>
      <point x="836" y="88"/>
      <point x="836" y="167" type="curve" smooth="yes"/>
      <point x="836" y="246"/>
      <point x="872" y="314"/>
      <point x="953" y="314" type="curve" smooth="yes"/>
      <point x="1033" y="314"/>
      <point x="1069" y="246"/>
    </contour>
    <component base="percent"/>
  </outline>
</glyph>
<glyph name="sixsuperior" format="2">
  <advance width="345"/>
  <unicode hex="2076"/>
  <anchor x="184" y="530" name="_indexring"/>
  <outline>
    <contour>
      <point x="312" y="452" type="curve" smooth="yes"/>
      <point x="312" y="528"/>
      <point x="264" y="576"/>
      <point x="185" y="576" type="curve" smooth="yes"/>
      <point x="125" y="576"/>
      <point x="74" y="540"/>
      <point x="65" y="480" type="curve"/>
      <point x="64" y="480" type="line"/>
      <point x="63" y="494"/>
      <point x="62" y="508"/>
      <point x="62" y="523" type="curve" smooth="yes"/>
      <point x="62" y="618"/>
      <point x="97" y="713"/>
      <point x="189" y="713" type="curve" smooth="yes"/>
      <point x="239" y="713"/>
      <point x="268" y="686"/>
      <point x="282" y="649" type="curve"/>
      <point x="303" y="659" type="line"/>
      <point x="285" y="707"/>
      <point x="250" y="735"/>
      <point x="190" y="735" type="curve" smooth="yes"/>
      <point x="102" y="735"/>
      <point x="38" y="666"/>
      <point x="38" y="531" type="curve" smooth="yes"/>
      <point x="38" y="400"/>
      <point x="88" y="327"/>
      <point x="182" y="327" type="curve" smooth="yes"/>
      <point x="264" y="327"/>
      <point x="312" y="375"/>
    </contour>
    <contour>
      <point x="76" y="452" type="curve" smooth="yes"/>
      <point x="76" y="502"/>
      <point x="117" y="554"/>
      <point x="184" y="554" type="curve" smooth="yes"/>
      <point x="246" y="554"/>
      <point x="286" y="514"/>
      <point x="286" y="452" type="curve" smooth="yes"/>
      <point x="286" y="389"/>
      <point x="248" y="349"/>
      <point x="183" y="349" type="curve" smooth="yes"/>
      <point x="121" y="349"/>
      <point x="76" y="394"/>
    </contour>
  </outline>
</glyph>
<glyph name="sevensuperior" format="2">
  <advance width="297"/>
  <unicode hex="2077"/>
  <anchor x="144" y="543" name="_indexring"/>
  <outline>
    <contour>
      <point x="135" y="333" type="line"/>
      <point x="135" y="482"/>
      <point x="191" y="603"/>
      <point x="288" y="708" type="curve"/>
      <point x="288" y="730" type="line"/>
      <point x="5" y="730" type="line"/>
      <point x="5" y="708" type="line"/>
      <point x="272" y="708" type="line"/>
      <point x="267" y="715" type="line"/>
      <point x="164" y="606"/>
      <point x="110" y="476"/>
      <point x="110" y="333" type="curve"/>
    </contour>
  </outline>
</glyph>
<glyph name="eightsuperior" format="2">
  <advance width="353"/>
  <unicode hex="2078"/>
  <anchor x="177" y="530" name="_indexring"/>
  <outline>
    <contour>
      <point x="53" y="634" type="curve" smooth="yes"/>
      <point x="53" y="588"/>
      <point x="82" y="554"/>
      <point x="128" y="541" type="curve"/>
      <point x="128" y="540" type="line"/>
      <point x="73" y="528"/>
      <point x="36" y="489"/>
      <point x="36" y="437" type="curve" smooth="yes"/>
      <point x="36" y="371"/>
      <point x="93" y="327"/>
      <point x="177" y="327" type="curve" smooth="yes"/>
      <point x="260" y="327"/>
      <point x="317" y="371"/>
      <point x="317" y="437" type="curve" smooth="yes"/>
      <point x="317" y="489"/>
      <point x="281" y="527"/>
      <point x="225" y="540" type="curve"/>
      <point x="225" y="541" type="line"/>
      <point x="271" y="554"/>
      <point x="299" y="588"/>
      <point x="299" y="634" type="curve" smooth="yes"/>
      <point x="299" y="695"/>
      <point x="251" y="735"/>
      <point x="177" y="735" type="curve" smooth="yes"/>
      <point x="101" y="735"/>
      <point x="53" y="695"/>
    </contour>
    <contour>
      <point x="273" y="633" type="curve" smooth="yes"/>
      <point x="273" y="585"/>
      <point x="235" y="551"/>
      <point x="177" y="551" type="curve" smooth="yes"/>
      <point x="118" y="551"/>
      <point x="79" y="585"/>
      <point x="79" y="633" type="curve" smooth="yes"/>
      <point x="79" y="681"/>
      <point x="118" y="714"/>
      <point x="177" y="714" type="curve" smooth="yes"/>
      <point x="235" y="714"/>
      <point x="273" y="681"/>
    </contour>
    <contour>
      <point x="62" y="439" type="curve" smooth="yes"/>
      <point x="62" y="492"/>
      <point x="109" y="530"/>
      <point x="177" y="530" type="curve" smooth="yes"/>
      <point x="244" y="530"/>
      <point x="290" y="492"/>
      <point x="290" y="439" type="curve" smooth="yes"/>
      <point x="290" y="386"/>
      <point x="244" y="349"/>
      <point x="177" y="349" type="curve" smooth="yes"/>
      <point x="108" y="349"/>
      <point x="62" y="386"/>
    </contour>
  </outline>
</glyph>
<glyph name="plussuperior" format="2">
  <advance width="332"/>
  <unicode hex="207A"/>
  <outline>
    <contour>
      <point x="299" y="522" type="line"/>
      <point x="299" y="543" type="line"/>
      <point x="34" y="543" type="line"/>
      <point x="34" y="522" type="line"/>
    </contour>
    <contour>
      <point x="178" y="400" type="line"/>
      <point x="178" y="665" type="line"/>
      <point x="154" y="665" type="line"/>
      <point x="154" y="400" type="line"/>
    </contour>
  </outline>
</glyph>
<glyph name="equalsuperior" format="2">
  <advance width="389"/>
  <unicode hex="207C"/>
  <outline>
    <contour>
      <point x="327" y="465" type="line"/>
      <point x="327" y="487" type="line"/>
      <point x="61" y="487" type="line"/>
      <point x="61" y="465" type="line"/>
    </contour>
    <contour>
      <point x="327" y="578" type="line"/>
      <point x="327" y="600" type="line"/>
      <point x="61" y="600" type="line"/>
      <point x="61" y="578" type="line"/>
    </contour>
  </outline>
</glyph>
<glyph name="uni20BA" format="2">
  <advance width="587"/>
  <unicode hex="20BA"/>
  <outline>
    <contour>
      <point x="523" y="259" type="line"/>
      <point x="523" y="110"/>
      <point x="440" y="24"/>
      <point x="298" y="24" type="curve" smooth="yes"/>
      <point x="181" y="24" type="line"/>
      <point x="181" y="0" type="line"/>
      <point x="307" y="0" type="line" smooth="yes"/>
      <point x="459" y="0"/>
      <point x="549" y="94"/>
      <point x="550" y="259" type="curve"/>
    </contour>
    <contour>
      <point x="167" y="660" type="line"/>
      <point x="167" y="0" type="line"/>
      <point x="194" y="0" type="line"/>
      <point x="194" y="660" type="line"/>
    </contour>
    <contour>
      <point x="48" y="265" type="line"/>
      <point x="48" y="242" type="line"/>
      <point x="418" y="351" type="line"/>
      <point x="418" y="374" type="line"/>
    </contour>
    <contour>
      <point x="48" y="399" type="line"/>
      <point x="48" y="376" type="line"/>
      <point x="418" y="485" type="line"/>
      <point x="418" y="508" type="line"/>
    </contour>
  </outline>
</glyph>
<glyph name="trademark" format="2">
  <advance width="771"/>
  <unicode hex="2122"/>
  <outline>
    <contour>
      <point x="158" y="660" type="line"/>
      <point x="158" y="330" type="line"/>
      <point x="184" y="330" type="line"/>
      <point x="184" y="660" type="line"/>
    </contour>
    <contour>
      <point x="35" y="660" type="line"/>
      <point x="35" y="639" type="line"/>
      <point x="306" y="639" type="line"/>
      <point x="306" y="660" type="line"/>
    </contour>
    <contour>
      <point x="659" y="660" type="line"/>
      <point x="537" y="379" type="line"/>
      <point x="528" y="356" type="line"/>
      <point x="528" y="356" type="line"/>
      <point x="519" y="379" type="line"/>
      <point x="397" y="660" type="line"/>
      <point x="367" y="660" type="line"/>
      <point x="367" y="330" type="line"/>
      <point x="393" y="330" type="line"/>
      <point x="393" y="578" type="line"/>
      <point x="390" y="622" type="line"/>
      <point x="391" y="622" type="line"/>
      <point x="399" y="598" type="line"/>
      <point x="516" y="330" type="line"/>
      <point x="539" y="330" type="line"/>
      <point x="657" y="598" type="line"/>
      <point x="665" y="622" type="line"/>
      <point x="666" y="622" type="line"/>
      <point x="663" y="578" type="line"/>
      <point x="663" y="330" type="line"/>
      <point x="689" y="330" type="line"/>
      <point x="689" y="660" type="line"/>
    </contour>
  </outline>
</glyph>
<glyph name="uni2126" format="2">
  <advance width="734"/>
  <unicode hex="2126"/>
  <outline>
    <contour>
      <point x="66" y="338" type="curve" smooth="yes"/>
      <point x="66" y="167"/>
      <point x="155" y="56"/>
      <point x="291" y="8" type="curve"/>
      <point x="301" y="24" type="line"/>
      <point x="177" y="67"/>
      <point x="94" y="171"/>
      <point x="94" y="338" type="curve" smooth="yes"/>
      <point x="94" y="525"/>
      <point x="201" y="645"/>
      <point x="368" y="645" type="curve" smooth="yes"/>
      <point x="533" y="645"/>
      <point x="641" y="525"/>
      <point x="641" y="338" type="curve" smooth="yes"/>
      <point x="641" y="171"/>
      <point x="557" y="67"/>
      <point x="433" y="24" type="curve"/>
      <point x="442" y="8" type="line"/>
      <point x="579" y="56"/>
      <point x="669" y="167"/>
      <point x="669" y="338" type="curve" smooth="yes"/>
      <point x="669" y="540"/>
      <point x="551" y="670"/>
      <point x="368" y="670" type="curve" smooth="yes"/>
      <point x="184" y="670"/>
      <point x="66" y="540"/>
    </contour>
    <contour>
      <point x="63" y="0" type="line"/>
      <point x="301" y="0" type="line"/>
      <point x="301" y="24" type="line"/>
      <point x="63" y="24" type="line"/>
    </contour>
    <contour>
      <point x="433" y="24" type="line"/>
      <point x="433" y="0" type="line"/>
      <point x="671" y="0" type="line"/>
      <point x="671" y="24" type="line"/>
    </contour>
  </outline>
</glyph>
<glyph name="partialdiff" format="2">
  <advance width="566"/>
  <unicode hex="2202"/>
  <outline>
    <contour>
      <point x="93" y="600" type="curve"/>
      <point x="110" y="580" type="line"/>
      <point x="143" y="624"/>
      <point x="187" y="646"/>
      <point x="251" y="646" type="curve" smooth="yes"/>
      <point x="401" y="646"/>
      <point x="473" y="547"/>
      <point x="473" y="330" type="curve" smooth="yes"/>
      <point x="473" y="127"/>
      <point x="398" y="15"/>
      <point x="260" y="15" type="curve" smooth="yes"/>
      <point x="148" y="15"/>
      <point x="73" y="93"/>
      <point x="73" y="207" type="curve" smooth="yes"/>
      <point x="73" y="316"/>
      <point x="146" y="394"/>
      <point x="255" y="394" type="curve" smooth="yes"/>
      <point x="366" y="394"/>
      <point x="448" y="338"/>
      <point x="473" y="234" type="curve"/>
      <point x="487" y="246" type="line"/>
      <point x="463" y="355"/>
      <point x="376" y="419"/>
      <point x="256" y="419" type="curve" smooth="yes"/>
      <point x="132" y="419"/>
      <point x="45" y="332"/>
      <point x="45" y="206" type="curve" smooth="yes"/>
      <point x="45" y="79"/>
      <point x="133" y="-10"/>
      <point x="261" y="-10" type="curve" smooth="yes"/>
      <point x="415" y="-10"/>
      <point x="500" y="111"/>
      <point x="500" y="330" type="curve" smooth="yes"/>
      <point x="500" y="558"/>
      <point x="422" y="670"/>
      <point x="251" y="670" type="curve" smooth="yes"/>
      <point x="188" y="670"/>
      <point x="134" y="648"/>
    </contour>
  </outline>
</glyph>
<glyph name="uni2206" format="2">
  <advance width="623"/>
  <unicode hex="2206"/>
  <outline>
    <contour>
      <point x="294" y="660" type="line"/>
      <point x="30" y="24" type="line"/>
      <point x="30" y="0" type="line"/>
      <point x="592" y="0" type="line"/>
      <point x="592" y="24" type="line"/>
      <point x="330" y="660" type="line"/>
    </contour>
    <contour>
      <point x="564" y="24" type="line"/>
      <point x="59" y="24" type="line"/>
      <point x="312" y="639" type="line"/>
    </contour>
  </outline>
</glyph>
<glyph name="summation" format="2">
  <advance width="583"/>
  <unicode hex="2211"/>
  <outline>
    <contour>
      <point x="379" y="275" type="line"/>
      <point x="36" y="-103" type="line"/>
      <point x="56" y="-119" type="line"/>
      <point x="414" y="272" type="line"/>
      <point x="414" y="275" type="line"/>
    </contour>
    <contour>
      <point x="36" y="-103" type="line"/>
      <point x="36" y="-128" type="line"/>
      <point x="536" y="-128" type="line"/>
      <point x="536" y="-103" type="line"/>
    </contour>
    <contour>
      <point x="36" y="635" type="line"/>
      <point x="379" y="275" type="line"/>
      <point x="414" y="275" type="line"/>
      <point x="414" y="277" type="line"/>
      <point x="57" y="651" type="line"/>
    </contour>
    <contour>
      <point x="36" y="660" type="line"/>
      <point x="36" y="635" type="line"/>
      <point x="536" y="635" type="line"/>
      <point x="536" y="660" type="line"/>
    </contour>
  </outline>
</glyph>
<glyph name="approxequal" format="2">
  <advance width="604"/>
  <unicode hex="2248"/>
  <outline>
    <contour>
      <point x="84" y="404" type="curve"/>
      <point x="84" y="375" type="line"/>
      <point x="119" y="412"/>
      <point x="149" y="430"/>
      <point x="195" y="430" type="curve" smooth="yes"/>
      <point x="269" y="430"/>
      <point x="339" y="363"/>
      <point x="411" y="363" type="curve" smooth="yes"/>
      <point x="448" y="363"/>
      <point x="484" y="378"/>
      <point x="520" y="413" type="curve"/>
      <point x="520" y="442" type="line"/>
      <point x="479" y="399"/>
      <point x="444" y="388"/>
      <point x="412" y="388" type="curve" smooth="yes"/>
      <point x="339" y="388"/>
      <point x="272" y="454"/>
      <point x="195" y="454" type="curve" smooth="yes"/>
      <point x="151" y="454"/>
      <point x="122" y="440"/>
    </contour>
    <contour>
      <point x="84" y="216" type="curve"/>
      <point x="84" y="187" type="line"/>
      <point x="119" y="223"/>
      <point x="149" y="241"/>
      <point x="195" y="241" type="curve" smooth="yes"/>
      <point x="269" y="241"/>
      <point x="339" y="174"/>
      <point x="411" y="174" type="curve" smooth="yes"/>
      <point x="448" y="174"/>
      <point x="484" y="189"/>
      <point x="520" y="224" type="curve"/>
      <point x="520" y="253" type="line"/>
      <point x="479" y="211"/>
      <point x="444" y="198"/>
      <point x="412" y="198" type="curve" smooth="yes"/>
      <point x="339" y="198"/>
      <point x="272" y="266"/>
      <point x="195" y="266" type="curve" smooth="yes"/>
      <point x="151" y="266"/>
      <point x="122" y="251"/>
    </contour>
  </outline>
</glyph>
<glyph name="notequal" format="2">
  <advance width="604"/>
  <unicode hex="2260"/>
  <outline>
    <contour>
      <point x="403" y="546" type="line"/>
      <point x="174" y="72" type="line"/>
      <point x="203" y="72" type="line"/>
      <point x="431" y="546" type="line"/>
    </contour>
    <contour>
      <point x="83" y="426" type="line"/>
      <point x="83" y="401" type="line"/>
      <point x="521" y="401" type="line"/>
      <point x="521" y="426" type="line"/>
    </contour>
    <contour>
      <point x="83" y="221" type="line"/>
      <point x="83" y="197" type="line"/>
      <point x="521" y="197" type="line"/>
      <point x="521" y="221" type="line"/>
    </contour>
  </outline>
</glyph>
<glyph name="lessequal" format="2">
  <advance width="604"/>
  <unicode hex="2264"/>
  <outline>
    <contour>
      <point x="77" y="390" type="line"/>
      <point x="77" y="362" type="line"/>
      <point x="530" y="592" type="line"/>
      <point x="530" y="622" type="line"/>
    </contour>
    <contour>
      <point x="77" y="0" type="line"/>
      <point x="530" y="0" type="line"/>
      <point x="530" y="25" type="line"/>
      <point x="77" y="25" type="line"/>
    </contour>
    <contour>
      <point x="77" y="384" type="line"/>
      <point x="77" y="356" type="line"/>
      <point x="530" y="115" type="line"/>
      <point x="530" y="146" type="line"/>
    </contour>
  </outline>
</glyph>
<glyph name="lozenge" format="2">
  <advance width="495"/>
  <unicode hex="25CA"/>
  <outline>
    <contour>
      <point x="236" y="660" type="line"/>
      <point x="422" y="330" type="line"/>
      <point x="454" y="330" type="line"/>
      <point x="265" y="660" type="line"/>
    </contour>
    <contour>
      <point x="42" y="330" type="line"/>
      <point x="229" y="0" type="line"/>
      <point x="259" y="0" type="line"/>
      <point x="74" y="330" type="line"/>
    </contour>
    <contour>
      <point x="422" y="330" type="line"/>
      <point x="236" y="0" type="line"/>
      <point x="265" y="0" type="line"/>
      <point x="454" y="330" type="line"/>
    </contour>
    <contour>
      <point x="229" y="660" type="line"/>
      <point x="42" y="330" type="line"/>
      <point x="74" y="330" type="line"/>
      <point x="259" y="660" type="line"/>
    </contour>
  </outline>
</glyph>
<glyph name="A.swsh" format="2">
  <advance width="880"/>
  <anchor x="580" y="660" name="top"/>
  <anchor x="865" y="0" name="ogonek"/>
  <anchor x="580" y="0" name="bottom"/>
  <outline>
    <contour>
      <point x="334" y="24" type="curve" smooth="yes"/>
      <point x="560" y="578" type="line"/>
      <point x="580" y="631" type="line"/>
      <point x="580" y="631" type="line"/>
      <point x="600" y="577" type="line"/>
      <point x="835" y="0" type="line"/>
      <point x="865" y="0" type="line"/>
      <point x="596" y="660" type="line"/>
      <point x="564" y="660" type="line"/>
      <point x="314" y="47" type="line" smooth="yes"/>
      <point x="271" y="-58"/>
      <point x="239" y="-86"/>
      <point x="165" y="-86" type="curve" smooth="yes"/>
      <point x="84" y="-86"/>
      <point x="33" y="-54"/>
      <point x="30" y="44" type="curve"/>
      <point x="8" y="30" type="line"/>
      <point x="9" y="-70"/>
      <point x="73" y="-110"/>
      <point x="167" y="-110" type="curve" smooth="yes"/>
      <point x="253" y="-110"/>
      <point x="296" y="-70"/>
    </contour>
    <contour>
      <point x="754" y="224" type="line"/>
      <point x="754" y="250" type="line"/>
      <point x="404" y="250" type="line"/>
      <point x="404" y="224" type="line"/>
    </contour>
    <component base="__swash_topleft" xOffset="106"/>
  </outline>
</glyph>
<glyph name="Aogonek_y" format="2">
  <advance width="1051"/>
  <anchor x="300" y="660" name="top"/>
  <anchor x="585" y="0" name="ogonek"/>
  <anchor x="300" y="0" name="bottom"/>
  <anchor x="581" y="0" name="bottomC"/>
  <outline>
    <contour>
      <point x="999" y="500" type="line"/>
      <point x="830" y="84" type="line"/>
      <point x="810" y="31" type="line"/>
      <point x="789" y="81" type="line"/>
      <point x="616" y="500" type="line"/>
      <point x="584" y="500" type="line"/>
      <point x="742" y="127" type="line"/>
      <point x="796" y="-1" type="line"/>
      <point x="758" y="-93" type="line" smooth="yes"/>
      <point x="727" y="-170"/>
      <point x="700" y="-191"/>
      <point x="668" y="-191" type="curve" smooth="yes"/>
      <point x="642" y="-191"/>
      <point x="626" y="-184"/>
      <point x="612" y="-171" type="curve"/>
      <point x="601" y="-193" type="line"/>
      <point x="616" y="-205"/>
      <point x="634" y="-215"/>
      <point x="669" y="-215" type="curve" smooth="yes"/>
      <point x="714" y="-215"/>
      <point x="747" y="-187"/>
      <point x="781" y="-103" type="curve" smooth="yes"/>
      <point x="1030" y="500" type="line"/>
    </contour>
    <contour>
      <point x="569" y="14" type="line"/>
      <point x="460" y="-27"/>
      <point x="414" y="-67"/>
      <point x="414" y="-127" type="curve" smooth="yes"/>
      <point x="414" y="-176"/>
      <point x="445" y="-204"/>
      <point x="497" y="-204" type="curve" smooth="yes"/>
      <point x="523" y="-204"/>
      <point x="542" y="-197"/>
      <point x="556" y="-186" type="curve"/>
      <point x="549" y="-165" type="line"/>
      <point x="537" y="-176"/>
      <point x="520" y="-182"/>
      <point x="498" y="-182" type="curve" smooth="yes"/>
      <point x="461" y="-182"/>
      <point x="438" y="-162"/>
      <point x="438" y="-127" type="curve" smooth="yes"/>
      <point x="438" y="-73"/>
      <point x="491" y="-34"/>
      <point x="585" y="0" type="curve"/>
    </contour>
    <component base="A"/>
  </outline>
</glyph>
<glyph name="Euro.tf" format="2">
  <advance width="604"/>
  <outline>
    <contour>
      <point x="36" y="266" type="line"/>
      <point x="36" y="242" type="line"/>
      <point x="364" y="242" type="line"/>
      <point x="375" y="266" type="line"/>
    </contour>
    <contour>
      <point x="36" y="416" type="line"/>
      <point x="36" y="392" type="line"/>
      <point x="401" y="392" type="line"/>
      <point x="412" y="416" type="line"/>
    </contour>
    <component base="euro.part.tf"/>
  </outline>
</glyph>
<glyph name="M.swsh" format="2">
  <advance width="1014"/>
  <anchor x="627" y="0" name="bottomC"/>
  <anchor x="614" y="660" name="top"/>
  <anchor x="913" y="0" name="ogonek"/>
  <anchor x="614" y="0" name="bottom"/>
  <outline>
    <contour>
      <point x="629" y="0" type="line"/>
      <point x="888" y="628" type="line"/>
      <point x="888" y="628" type="line"/>
      <point x="886" y="549" type="line"/>
      <point x="886" y="0" type="line"/>
      <point x="913" y="0" type="line"/>
      <point x="913" y="660" type="line"/>
      <point x="873" y="660" type="line"/>
      <point x="634" y="87" type="line"/>
      <point x="615" y="33" type="line"/>
      <point x="614" y="33" type="line"/>
      <point x="595" y="88" type="line"/>
      <point x="356" y="660" type="line"/>
      <point x="316" y="660" type="line"/>
      <point x="316" y="103" type="line"/>
      <point x="343" y="103" type="line"/>
      <point x="343" y="549" type="line"/>
      <point x="340" y="628" type="line"/>
      <point x="341" y="628" type="line"/>
      <point x="600" y="0" type="line"/>
    </contour>
    <contour>
      <point x="154" y="362" type="line"/>
      <point x="83" y="377"/>
      <point x="38" y="423"/>
      <point x="38" y="498" type="curve" smooth="yes"/>
      <point x="38" y="594"/>
      <point x="95" y="636"/>
      <point x="197" y="636" type="curve" smooth="yes"/>
      <point x="343" y="636" type="line"/>
      <point x="343" y="660" type="line"/>
      <point x="190" y="660" type="line" smooth="yes"/>
      <point x="75" y="660"/>
      <point x="10" y="605"/>
      <point x="10" y="498" type="curve" smooth="yes"/>
      <point x="10" y="410"/>
      <point x="64" y="356"/>
      <point x="139" y="341" type="curve"/>
    </contour>
    <component base="swash_bttmleft" xOffset="42"/>
  </outline>
</glyph>
<glyph name="Osuperior" format="2">
  <advance width="441"/>
  <outline>
    <contour>
      <point x="37" y="531" type="curve" smooth="yes"/>
      <point x="37" y="406"/>
      <point x="108" y="327"/>
      <point x="220" y="327" type="curve" smooth="yes"/>
      <point x="333" y="327"/>
      <point x="404" y="406"/>
      <point x="404" y="531" type="curve" smooth="yes"/>
      <point x="404" y="656"/>
      <point x="333" y="735"/>
      <point x="220" y="735" type="curve" smooth="yes"/>
      <point x="108" y="735"/>
      <point x="37" y="656"/>
    </contour>
    <contour>
      <point x="378" y="531" type="curve" smooth="yes"/>
      <point x="378" y="419"/>
      <point x="316" y="349"/>
      <point x="220" y="349" type="curve" smooth="yes"/>
      <point x="125" y="349"/>
      <point x="63" y="419"/>
      <point x="63" y="531" type="curve" smooth="yes"/>
      <point x="63" y="643"/>
      <point x="125" y="713"/>
      <point x="220" y="713" type="curve" smooth="yes"/>
      <point x="316" y="713"/>
      <point x="378" y="643"/>
    </contour>
  </outline>
</glyph>
<glyph name="W.swsh" format="2">
  <advance width="1129"/>
  <anchor x="884" y="0" name="bottomC"/>
  <anchor x="670" y="660" name="top"/>
  <anchor x="890" y="0" name="ogonek"/>
  <anchor x="670" y="0" name="bottom"/>
  <outline>
    <contour>
      <point x="154" y="362" type="line"/>
      <point x="83" y="377"/>
      <point x="38" y="423"/>
      <point x="38" y="498" type="curve" smooth="yes"/>
      <point x="38" y="594"/>
      <point x="95" y="636"/>
      <point x="197" y="636" type="curve" smooth="yes"/>
      <point x="248" y="636" type="line"/>
      <point x="248" y="660" type="line"/>
      <point x="190" y="660" type="line" smooth="yes"/>
      <point x="75" y="660"/>
      <point x="10" y="605"/>
      <point x="10" y="498" type="curve" smooth="yes"/>
      <point x="10" y="410"/>
      <point x="64" y="356"/>
      <point x="139" y="341" type="curve"/>
    </contour>
    <component base="W" xOffset="210"/>
  </outline>
</glyph>
<glyph name="__swash_topleft" format="2">
  <advance width="507"/>
  <outline>
    <contour>
      <point x="189" y="362" type="line"/>
      <point x="118" y="377"/>
      <point x="73" y="423"/>
      <point x="73" y="498" type="curve" smooth="yes"/>
      <point x="73" y="594"/>
      <point x="130" y="636"/>
      <point x="232" y="636" type="curve" smooth="yes"/>
      <point x="468" y="636" type="line"/>
      <point x="468" y="660" type="line"/>
      <point x="225" y="660" type="line" smooth="yes"/>
      <point x="110" y="660"/>
      <point x="45" y="605"/>
      <point x="45" y="498" type="curve" smooth="yes"/>
      <point x="45" y="410"/>
      <point x="99" y="356"/>
      <point x="174" y="341" type="curve"/>
    </contour>
  </outline>
</glyph>
<glyph name="a.sc" format="2">
  <advance width="537"/>
  <anchor x="514" y="0" name="bottomC"/>
  <anchor x="269" y="560" name="top"/>
  <anchor x="522" y="0" name="ogonek"/>
  <anchor x="269" y="0" name="bottom"/>
  <outline>
    <contour>
      <point x="45" y="0" type="line"/>
      <point x="252" y="487" type="line"/>
      <point x="269" y="533" type="line"/>
      <point x="269" y="533" type="line"/>
      <point x="286" y="487" type="line"/>
      <point x="492" y="0" type="line"/>
      <point x="522" y="0" type="line"/>
      <point x="285" y="560" type="line"/>
      <point x="252" y="560" type="line"/>
      <point x="16" y="0" type="line"/>
    </contour>
    <contour>
      <point x="423" y="189" type="line"/>
      <point x="423" y="213" type="line"/>
      <point x="114" y="213" type="line"/>
      <point x="114" y="189" type="line"/>
    </contour>
  </outline>
</glyph>
<glyph name="acutecmb.cap" format="2">
  <anchor x="0" y="660" name="_top"/>
  <outline>
    <contour>
      <point x="-9" y="743" type="line"/>
      <point x="15" y="743" type="line"/>
      <point x="95" y="893" type="line"/>
      <point x="64" y="893" type="line"/>
    </contour>
  </outline>
</glyph>
<glyph name="ampersand.sc" format="2">
  <advance width="521"/>
  <outline>
    <contour>
      <point x="523" y="12" type="line"/>
      <point x="467" y="12"/>
      <point x="429" y="50"/>
      <point x="292" y="219" type="curve" smooth="yes"/>
      <point x="163" y="379"/>
      <point x="146" y="398"/>
      <point x="146" y="450" type="curve" smooth="yes"/>
      <point x="146" y="505"/>
      <point x="185" y="543"/>
      <point x="247" y="543" type="curve" smooth="yes"/>
      <point x="307" y="543"/>
      <point x="344" y="511"/>
      <point x="344" y="461" type="curve" smooth="yes"/>
      <point x="344" y="408"/>
      <point x="320" y="369"/>
      <point x="207" y="308" type="curve"/>
      <point x="109" y="256"/>
      <point x="42" y="210"/>
      <point x="42" y="121" type="curve" smooth="yes"/>
      <point x="42" y="40"/>
      <point x="116" y="-8"/>
      <point x="213" y="-8" type="curve" smooth="yes"/>
      <point x="298" y="-8"/>
      <point x="357" y="25"/>
      <point x="397" y="76" type="curve"/>
      <point x="445" y="138"/>
      <point x="464" y="225"/>
      <point x="463" y="307" type="curve"/>
      <point x="441" y="310" type="line"/>
      <point x="442" y="223"/>
      <point x="422" y="146"/>
      <point x="380" y="92" type="curve"/>
      <point x="343" y="43"/>
      <point x="287" y="13"/>
      <point x="212" y="13" type="curve" smooth="yes"/>
      <point x="132" y="13"/>
      <point x="69" y="55"/>
      <point x="69" y="123" type="curve" smooth="yes"/>
      <point x="69" y="203"/>
      <point x="129" y="241"/>
      <point x="222" y="290" type="curve"/>
      <point x="342" y="355"/>
      <point x="370" y="400"/>
      <point x="370" y="461" type="curve" smooth="yes"/>
      <point x="370" y="527"/>
      <point x="320" y="566"/>
      <point x="247" y="566" type="curve" smooth="yes"/>
      <point x="168" y="566"/>
      <point x="120" y="517"/>
      <point x="120" y="450" type="curve" smooth="yes"/>
      <point x="120" y="388"/>
      <point x="154" y="353"/>
      <point x="276" y="203" type="curve" smooth="yes"/>
      <point x="412" y="35"/>
      <point x="454" y="-8"/>
      <point x="519" y="-8" type="curve"/>
    </contour>
  </outline>
</glyph>
<glyph name="aring.sc" format="2">
  <advance width="537"/>
  <anchor x="518" y="0" name="bottomC"/>
  <anchor x="269" y="688" name="top"/>
  <anchor x="522" y="0" name="ogonek"/>
  <anchor x="269" y="0" name="bottom"/>
  <outline>
    <contour>
      <point x="45" y="0" type="line"/>
      <point x="252" y="487" type="line"/>
      <point x="269" y="533" type="line"/>
      <point x="269" y="533" type="line"/>
      <point x="286" y="487" type="line"/>
      <point x="492" y="0" type="line"/>
      <point x="522" y="0" type="line"/>
      <point x="285" y="560" type="line"/>
      <point x="252" y="560" type="line"/>
      <point x="16" y="0" type="line"/>
    </contour>
    <contour>
      <point x="423" y="189" type="line"/>
      <point x="423" y="213" type="line"/>
      <point x="114" y="213" type="line"/>
      <point x="114" y="189" type="line"/>
    </contour>
    <contour>
      <point x="187" y="619" type="curve" smooth="yes"/>
      <point x="187" y="572"/>
      <point x="220" y="540"/>
      <point x="269" y="540" type="curve" smooth="yes"/>
      <point x="318" y="540"/>
      <point x="351" y="572"/>
      <point x="351" y="619" type="curve" smooth="yes"/>
      <point x="351" y="667"/>
      <point x="318" y="698"/>
      <point x="269" y="698" type="curve" smooth="yes"/>
      <point x="220" y="698"/>
      <point x="187" y="667"/>
    </contour>
    <contour>
      <point x="327" y="619" type="curve" smooth="yes"/>
      <point x="327" y="584"/>
      <point x="304" y="561"/>
      <point x="269" y="561" type="curve" smooth="yes"/>
      <point x="233" y="561"/>
      <point x="210" y="584"/>
      <point x="210" y="619" type="curve" smooth="yes"/>
      <point x="210" y="655"/>
      <point x="233" y="678"/>
      <point x="269" y="678" type="curve" smooth="yes"/>
      <point x="304" y="678"/>
      <point x="327" y="655"/>
    </contour>
  </outline>
</glyph>
<glyph name="blackDiamond.case" format="2">
  <advance width="683"/>
  <outline>
    <contour>
      <point x="637" y="330" type="line"/>
      <point x="341" y="625" type="line"/>
      <point x="46" y="330" type="line"/>
      <point x="341" y="35" type="line"/>
    </contour>
  </outline>
</glyph>
<glyph name="blackSmallSquare.case" format="2">
  <advance width="683"/>
  <outline>
    <contour>
      <point x="93" y="81" type="line"/>
      <point x="590" y="81" type="line"/>
      <point x="590" y="579" type="line"/>
      <point x="93" y="579" type="line"/>
    </contour>
  </outline>
</glyph>
<glyph name="braceleft.case" format="2">
  <advance width="276"/>
  <outline>
    <contour>
      <point x="125" y="650" type="curve" smooth="yes"/>
      <point x="125" y="435" type="line" smooth="yes"/>
      <point x="125" y="373"/>
      <point x="85" y="339"/>
      <point x="12" y="339" type="curve"/>
      <point x="12" y="321" type="line"/>
      <point x="100" y="321"/>
      <point x="152" y="362"/>
      <point x="152" y="434" type="curve" smooth="yes"/>
      <point x="152" y="651" type="line" smooth="yes"/>
      <point x="152" y="707"/>
      <point x="188" y="741"/>
      <point x="252" y="741" type="curve"/>
      <point x="250" y="764" type="line"/>
      <point x="169" y="764"/>
      <point x="125" y="722"/>
    </contour>
    <contour>
      <point x="12" y="316" type="line"/>
      <point x="85" y="316"/>
      <point x="125" y="282"/>
      <point x="125" y="220" type="curve" smooth="yes"/>
      <point x="125" y="12" type="line" smooth="yes"/>
      <point x="125" y="-60"/>
      <point x="169" y="-103"/>
      <point x="250" y="-103" type="curve"/>
      <point x="252" y="-79" type="line"/>
      <point x="188" y="-79"/>
      <point x="152" y="-46"/>
      <point x="152" y="11" type="curve" smooth="yes"/>
      <point x="152" y="221" type="line" smooth="yes"/>
      <point x="152" y="293"/>
      <point x="100" y="334"/>
      <point x="12" y="334" type="curve"/>
    </contour>
  </outline>
</glyph>
<glyph name="bracketleft.case" format="2">
  <advance width="283"/>
  <outline>
    <contour>
      <point x="78" y="752" type="line"/>
      <point x="78" y="-97" type="line"/>
      <point x="104" y="-97" type="line"/>
      <point x="104" y="752" type="line"/>
    </contour>
    <contour>
      <point x="92" y="-73" type="line"/>
      <point x="92" y="-97" type="line"/>
      <point x="268" y="-97" type="line"/>
      <point x="268" y="-73" type="line"/>
    </contour>
    <contour>
      <point x="92" y="752" type="line"/>
      <point x="92" y="728" type="line"/>
      <point x="268" y="728" type="line"/>
      <point x="268" y="752" type="line"/>
    </contour>
  </outline>
</glyph>
<glyph name="c.sc" format="2">
  <advance width="584"/>
  <anchor x="315" y="0" name="bottomC"/>
  <anchor x="309" y="560" name="top"/>
  <anchor x="387" y="0" name="ogonek"/>
  <anchor x="309" y="0" name="bottom"/>
  <outline>
    <contour>
      <point x="521" y="152" type="line"/>
      <point x="496" y="65"/>
      <point x="422" y="16"/>
      <point x="313" y="16" type="curve" smooth="yes"/>
      <point x="176" y="16"/>
      <point x="82" y="117"/>
      <point x="82" y="280" type="curve" smooth="yes"/>
      <point x="82" y="442"/>
      <point x="175" y="544"/>
      <point x="314" y="544" type="curve" smooth="yes"/>
      <point x="423" y="544"/>
      <point x="488" y="499"/>
      <point x="516" y="408" type="curve"/>
      <point x="542" y="420" type="line"/>
      <point x="512" y="519"/>
      <point x="436" y="568"/>
      <point x="315" y="568" type="curve" smooth="yes"/>
      <point x="157" y="568"/>
      <point x="54" y="457"/>
      <point x="54" y="280" type="curve" smooth="yes"/>
      <point x="54" y="103"/>
      <point x="158" y="-8"/>
      <point x="314" y="-8" type="curve" smooth="yes"/>
      <point x="432" y="-8"/>
      <point x="519" y="46"/>
      <point x="547" y="142" type="curve"/>
    </contour>
  </outline>
</glyph>
<glyph name="c_t" format="2">
  <advance width="839"/>
  <outline>
    <contour>
      <point x="488" y="137" type="curve"/>
      <point x="463" y="146" type="line"/>
      <point x="448" y="65"/>
      <point x="372" y="15"/>
      <point x="283" y="15" type="curve" smooth="yes"/>
      <point x="154" y="15"/>
      <point x="81" y="103"/>
      <point x="81" y="250" type="curve" smooth="yes"/>
      <point x="81" y="397"/>
      <point x="157" y="486"/>
      <point x="285" y="486" type="curve" smooth="yes"/>
      <point x="374" y="486"/>
      <point x="436" y="441"/>
      <point x="458" y="361" type="curve"/>
      <point x="485" y="374" type="line"/>
      <point x="439" y="474"/>
      <point x="418" y="533"/>
      <point x="418" y="585" type="curve" smooth="yes"/>
      <point x="418" y="679"/>
      <point x="460" y="710"/>
      <point x="512" y="710" type="curve" smooth="yes"/>
      <point x="575" y="710"/>
      <point x="608" y="668"/>
      <point x="608" y="575" type="curve" smooth="yes"/>
      <point x="608" y="126" type="line" smooth="yes"/>
      <point x="608" y="35"/>
      <point x="652" y="-10"/>
      <point x="731" y="-10" type="curve" smooth="yes"/>
      <point x="774" y="-10"/>
      <point x="811" y="7"/>
      <point x="833" y="29" type="curve"/>
      <point x="822" y="52" type="line"/>
      <point x="798" y="27"/>
      <point x="769" y="15"/>
      <point x="734" y="15" type="curve" smooth="yes"/>
      <point x="667" y="15"/>
      <point x="636" y="54"/>
      <point x="636" y="128" type="curve" smooth="yes"/>
      <point x="636" y="588" type="line" smooth="yes"/>
      <point x="636" y="686"/>
      <point x="589" y="734"/>
      <point x="513" y="734" type="curve" smooth="yes"/>
      <point x="446" y="734"/>
      <point x="392" y="693"/>
      <point x="392" y="590" type="curve" smooth="yes"/>
      <point x="392" y="538"/>
      <point x="405" y="493"/>
      <point x="433" y="442" type="curve"/>
      <point x="441" y="446" type="line"/>
      <point x="406" y="488"/>
      <point x="353" y="510"/>
      <point x="285" y="510" type="curve" smooth="yes"/>
      <point x="139" y="510"/>
      <point x="53" y="412"/>
      <point x="53" y="250" type="curve" smooth="yes"/>
      <point x="53" y="88"/>
      <point x="137" y="-10"/>
      <point x="283" y="-10" type="curve" smooth="yes"/>
      <point x="385" y="-10"/>
      <point x="468" y="47"/>
    </contour>
    <contour>
      <point x="827" y="476" type="line"/>
      <point x="827" y="500" type="line"/>
      <point x="620" y="500" type="line"/>
      <point x="620" y="476" type="line"/>
    </contour>
  </outline>
</glyph>
<glyph name="caroncmb.cap" format="2">
  <anchor x="0" y="660" name="_top"/>
  <outline>
    <contour>
      <point x="98" y="888" type="line"/>
      <point x="0" y="763" type="line"/>
      <point x="-98" y="888" type="line"/>
      <point x="-126" y="888" type="line"/>
      <point x="-16" y="743" type="line"/>
      <point x="16" y="743" type="line"/>
      <point x="126" y="888" type="line"/>
    </contour>
  </outline>
</glyph>
<glyph name="d.sc" format="2">
  <advance width="616"/>
  <anchor x="239" y="0" name="bottomC"/>
  <anchor x="278" y="560" name="top"/>
  <anchor x="274" y="0" name="ogonek"/>
  <anchor x="311" y="271" name="center"/>
  <anchor x="278" y="0" name="bottom"/>
  <outline>
    <contour>
      <point x="107" y="560" type="line"/>
      <point x="107" y="536" type="line"/>
      <point x="275" y="536" type="line" smooth="yes"/>
      <point x="444" y="536"/>
      <point x="533" y="449"/>
      <point x="533" y="287" type="curve" smooth="yes"/>
      <point x="533" y="115"/>
      <point x="444" y="24"/>
      <point x="275" y="24" type="curve" smooth="yes"/>
      <point x="106" y="24" type="line"/>
      <point x="106" y="0" type="line"/>
      <point x="274" y="0" type="line" smooth="yes"/>
      <point x="461" y="0"/>
      <point x="561" y="99"/>
      <point x="561" y="287" type="curve" smooth="yes"/>
      <point x="561" y="465"/>
      <point x="461" y="560"/>
      <point x="274" y="560" type="curve" smooth="yes"/>
    </contour>
    <contour>
      <point x="91" y="560" type="line"/>
      <point x="91" y="0" type="line"/>
      <point x="119" y="0" type="line"/>
      <point x="119" y="560" type="line"/>
    </contour>
  </outline>
</glyph>
<glyph name="daggerdblsuperior" format="2">
  <advance width="402"/>
  <outline>
    <contour>
      <point x="37" y="589" type="line"/>
      <point x="37" y="567" type="line"/>
      <point x="365" y="567" type="line"/>
      <point x="365" y="589" type="line"/>
    </contour>
    <contour>
      <point x="210" y="730" type="line"/>
      <point x="184" y="730" type="line"/>
      <point x="184" y="276" type="line"/>
      <point x="210" y="276" type="line"/>
    </contour>
    <contour>
      <point x="365" y="439" type="line"/>
      <point x="37" y="439" type="line"/>
      <point x="37" y="417" type="line"/>
      <point x="365" y="417" type="line"/>
    </contour>
  </outline>
</glyph>
<glyph name="dcroat.sc" format="2">
  <advance width="624"/>
  <anchor x="252" y="0" name="bottomC"/>
  <anchor x="291" y="560" name="top"/>
  <anchor x="286" y="0" name="ogonek"/>
  <anchor x="323" y="271" name="center"/>
  <anchor x="291" y="0" name="bottom"/>
  <outline>
    <contour>
      <point x="11" y="294" type="line"/>
      <point x="11" y="272" type="line"/>
      <point x="306" y="272" type="line"/>
      <point x="306" y="294" type="line"/>
    </contour>
    <component base="d.sc" xOffset="13"/>
  </outline>
</glyph>
<glyph name="dollar.tf" format="2">
  <advance width="604"/>
  <outline>
    <contour>
      <point x="98" y="484" type="curve" smooth="yes"/>
      <point x="98" y="243"/>
      <point x="510" y="382"/>
      <point x="510" y="167" type="curve" smooth="yes"/>
      <point x="510" y="74"/>
      <point x="428" y="24"/>
      <point x="323" y="24" type="curve" smooth="yes"/>
      <point x="215" y="24"/>
      <point x="129" y="82"/>
      <point x="109" y="185" type="curve"/>
      <point x="83" y="171" type="line"/>
      <point x="110" y="60"/>
      <point x="200" y="0"/>
      <point x="323" y="0" type="curve" smooth="yes"/>
      <point x="453" y="0"/>
      <point x="537" y="68"/>
      <point x="537" y="168" type="curve" smooth="yes"/>
      <point x="537" y="410"/>
      <point x="126" y="268"/>
      <point x="126" y="485" type="curve" smooth="yes"/>
      <point x="126" y="572"/>
      <point x="196" y="636"/>
      <point x="311" y="636" type="curve" smooth="yes"/>
      <point x="415" y="636"/>
      <point x="480" y="594"/>
      <point x="507" y="496" type="curve"/>
      <point x="530" y="514" type="line"/>
      <point x="497" y="614"/>
      <point x="425" y="660"/>
      <point x="311" y="660" type="curve" smooth="yes"/>
      <point x="178" y="660"/>
      <point x="98" y="577"/>
    </contour>
    <contour>
      <point x="301" y="760" type="line"/>
      <point x="301" y="-100" type="line"/>
      <point x="325" y="-100" type="line"/>
      <point x="325" y="760" type="line"/>
    </contour>
  </outline>
</glyph>
<glyph name="euro.part.tf" format="2">
  <advance width="604"/>
  <outline>
    <contour>
      <point x="115" y="330" type="curve" smooth="yes"/>
      <point x="115" y="118"/>
      <point x="207" y="-10"/>
      <point x="362" y="-10" type="curve" smooth="yes"/>
      <point x="456" y="-10"/>
      <point x="540" y="50"/>
      <point x="568" y="169" type="curve"/>
      <point x="543" y="180" type="line"/>
      <point x="519" y="70"/>
      <point x="445" y="15"/>
      <point x="362" y="15" type="curve" smooth="yes"/>
      <point x="226" y="15"/>
      <point x="143" y="133"/>
      <point x="143" y="330" type="curve" smooth="yes"/>
      <point x="143" y="527"/>
      <point x="227" y="646"/>
      <point x="363" y="646" type="curve" smooth="yes"/>
      <point x="451" y="646"/>
      <point x="511" y="599"/>
      <point x="536" y="511" type="curve"/>
      <point x="560" y="526" type="line"/>
      <point x="531" y="620"/>
      <point x="461" y="670"/>
      <point x="361" y="670" type="curve" smooth="yes"/>
      <point x="208" y="670"/>
      <point x="115" y="542"/>
    </contour>
  </outline>
</glyph>
<glyph name="exclam.sc" format="2">
  <advance width="183"/>
  <outline>
    <contour>
      <point x="77" y="560" type="line"/>
      <point x="77" y="271" type="line"/>
      <point x="79" y="150" type="line"/>
      <point x="104" y="150" type="line"/>
      <point x="106" y="271" type="line"/>
      <point x="106" y="560" type="line"/>
    </contour>
    <component base="period" xScale="0.98875" yScale="0.985"/>
  </outline>
</glyph>
<glyph name="f.sc" format="2">
  <advance width="505"/>
  <anchor x="115" y="0" name="bottomC"/>
  <anchor x="287" y="560" name="top"/>
  <anchor x="119" y="0" name="ogonek"/>
  <anchor x="105" y="0" name="bottom"/>
  <outline>
    <contour>
      <point x="91" y="560" type="line"/>
      <point x="91" y="0" type="line"/>
      <point x="119" y="0" type="line"/>
      <point x="119" y="560" type="line"/>
    </contour>
    <contour>
      <point x="103" y="298" type="line"/>
      <point x="103" y="273" type="line"/>
      <point x="409" y="273" type="line"/>
      <point x="409" y="298" type="line"/>
    </contour>
    <contour>
      <point x="103" y="560" type="line"/>
      <point x="103" y="536" type="line"/>
      <point x="482" y="536" type="line"/>
      <point x="482" y="560" type="line"/>
    </contour>
  </outline>
</glyph>
<glyph name="five.osf" format="2">
  <advance width="540"/>
  <outline>
    <contour>
      <point x="100" y="227" type="curve"/>
      <point x="99" y="227" type="line"/>
      <point x="101" y="245" type="line"/>
      <point x="127" y="536" type="line"/>
      <point x="465" y="536" type="line"/>
      <point x="465" y="560" type="line"/>
      <point x="104" y="560" type="line"/>
      <point x="72" y="198" type="line"/>
      <point x="97" y="198" type="line"/>
      <point x="128" y="240"/>
      <point x="182" y="280"/>
      <point x="282" y="280" type="curve" smooth="yes"/>
      <point x="390" y="280"/>
      <point x="463" y="206"/>
      <point x="463" y="98" type="curve" smooth="yes"/>
      <point x="463" y="-11"/>
      <point x="388" y="-86"/>
      <point x="277" y="-86" type="curve" smooth="yes"/>
      <point x="166" y="-86"/>
      <point x="94" y="-39"/>
      <point x="76" y="60" type="curve"/>
      <point x="51" y="48" type="line"/>
      <point x="77" y="-66"/>
      <point x="161" y="-110"/>
      <point x="277" y="-110" type="curve" smooth="yes"/>
      <point x="404" y="-110"/>
      <point x="491" y="-25"/>
      <point x="491" y="99" type="curve" smooth="yes"/>
      <point x="491" y="220"/>
      <point x="406" y="304"/>
      <point x="285" y="304" type="curve" smooth="yes"/>
      <point x="187" y="304"/>
      <point x="131" y="269"/>
    </contour>
  </outline>
</glyph>
<glyph name="four.sc" format="2">
  <advance width="501"/>
  <outline>
    <contour>
      <point x="358" y="0" type="line"/>
      <point x="358" y="167" type="line"/>
      <point x="476" y="167" type="line"/>
      <point x="476" y="190" type="line"/>
      <point x="358" y="190" type="line"/>
      <point x="358" y="560" type="line"/>
      <point x="321" y="560" type="line"/>
      <point x="37" y="188" type="line"/>
      <point x="37" y="167" type="line"/>
      <point x="330" y="167" type="line"/>
      <point x="330" y="0" type="line"/>
    </contour>
    <contour>
      <point x="302" y="494" type="line" smooth="yes"/>
      <point x="310" y="506"/>
      <point x="321" y="521"/>
      <point x="329" y="533" type="curve"/>
      <point x="330" y="533" type="line"/>
      <point x="330" y="190" type="line"/>
      <point x="68" y="190" type="line"/>
    </contour>
  </outline>
</glyph>
<glyph name="four.tosf" format="2">
  <advance width="604"/>
  <outline>
    <contour>
      <point x="413" y="-100" type="line"/>
      <point x="413" y="99" type="line"/>
      <point x="557" y="99" type="line"/>
      <point x="557" y="123" type="line"/>
      <point x="413" y="123" type="line"/>
      <point x="413" y="560" type="line"/>
      <point x="374" y="560" type="line"/>
      <point x="56" y="121" type="line"/>
      <point x="56" y="99" type="line"/>
      <point x="385" y="99" type="line"/>
      <point x="385" y="-100" type="line"/>
    </contour>
    <contour>
      <point x="329" y="456" type="line" smooth="yes"/>
      <point x="348" y="481"/>
      <point x="367" y="507"/>
      <point x="385" y="535" type="curve"/>
      <point x="386" y="535" type="line"/>
      <point x="385" y="491"/>
      <point x="385" y="446"/>
      <point x="385" y="403" type="curve" smooth="yes"/>
      <point x="385" y="123" type="line"/>
      <point x="86" y="123" type="line"/>
    </contour>
  </outline>
</glyph>
<glyph name="g.ss01" format="2">
  <advance width="593"/>
  <anchor x="278" y="-210" name="bottomC"/>
  <anchor x="283" y="500" name="top"/>
  <anchor x="395" y="-190" name="ogonek"/>
  <anchor x="289" y="-210" name="bottom"/>
  <outline>
    <contour>
      <point x="482" y="499" type="line"/>
      <point x="479" y="338" type="line"/>
      <point x="479" y="331" type="line"/>
      <point x="479" y="10" type="line" smooth="yes"/>
      <point x="479" y="-114"/>
      <point x="402" y="-191"/>
      <point x="276" y="-191" type="curve" smooth="yes"/>
      <point x="174" y="-191"/>
      <point x="109" y="-149"/>
      <point x="96" y="-79" type="curve"/>
      <point x="69" y="-90" type="line"/>
      <point x="85" y="-170"/>
      <point x="164" y="-215"/>
      <point x="273" y="-215" type="curve" smooth="yes"/>
      <point x="422" y="-215"/>
      <point x="507" y="-132"/>
      <point x="507" y="14" type="curve" smooth="yes"/>
      <point x="507" y="394" type="line"/>
      <point x="507" y="499" type="line"/>
    </contour>
    <contour>
      <point x="53" y="251" type="curve" smooth="yes"/>
      <point x="53" y="89"/>
      <point x="140" y="-8"/>
      <point x="282" y="-8" type="curve" smooth="yes"/>
      <point x="409" y="-8"/>
      <point x="492" y="79"/>
      <point x="492" y="219" type="curve"/>
      <point x="479" y="247" type="line"/>
      <point x="479" y="103"/>
      <point x="402" y="16"/>
      <point x="286" y="16" type="curve" smooth="yes"/>
      <point x="158" y="16"/>
      <point x="82" y="104"/>
      <point x="82" y="251" type="curve" smooth="yes"/>
      <point x="82" y="398"/>
      <point x="158" y="486"/>
      <point x="286" y="486" type="curve" smooth="yes"/>
      <point x="403" y="486"/>
      <point x="480" y="398"/>
      <point x="479" y="255" type="curve"/>
      <point x="492" y="281" type="line"/>
      <point x="492" y="423"/>
      <point x="409" y="510"/>
      <point x="282" y="510" type="curve" smooth="yes"/>
      <point x="140" y="510"/>
      <point x="53" y="413"/>
    </contour>
  </outline>
</glyph>
<glyph name="g.ss01_j.liga" format="2">
  <advance width="776"/>
  <anchor x="283" y="500" name="top"/>
  <outline>
    <contour>
      <point x="482" y="499" type="line"/>
      <point x="479" y="338" type="line"/>
      <point x="479" y="331" type="line"/>
      <point x="479" y="10" type="line" smooth="yes"/>
      <point x="479" y="-114"/>
      <point x="402" y="-191"/>
      <point x="276" y="-191" type="curve" smooth="yes"/>
      <point x="174" y="-191"/>
      <point x="109" y="-149"/>
      <point x="96" y="-79" type="curve"/>
      <point x="69" y="-90" type="line"/>
      <point x="85" y="-170"/>
      <point x="164" y="-215"/>
      <point x="273" y="-215" type="curve" smooth="yes"/>
      <point x="422" y="-215"/>
      <point x="507" y="-132"/>
      <point x="507" y="14" type="curve" smooth="yes"/>
      <point x="507" y="394" type="line"/>
      <point x="507" y="499" type="line"/>
    </contour>
    <contour>
      <point x="53" y="251" type="curve" smooth="yes"/>
      <point x="53" y="89"/>
      <point x="140" y="-8"/>
      <point x="282" y="-8" type="curve" smooth="yes"/>
      <point x="409" y="-8"/>
      <point x="492" y="79"/>
      <point x="492" y="219" type="curve"/>
      <point x="479" y="247" type="line"/>
      <point x="479" y="103"/>
      <point x="402" y="16"/>
      <point x="286" y="16" type="curve" smooth="yes"/>
      <point x="158" y="16"/>
      <point x="82" y="104"/>
      <point x="82" y="251" type="curve" smooth="yes"/>
      <point x="82" y="398"/>
      <point x="158" y="486"/>
      <point x="286" y="486" type="curve" smooth="yes"/>
      <point x="403" y="486"/>
      <point x="480" y="398"/>
      <point x="479" y="255" type="curve"/>
      <point x="492" y="281" type="line"/>
      <point x="492" y="423"/>
      <point x="409" y="510"/>
      <point x="282" y="510" type="curve" smooth="yes"/>
      <point x="140" y="510"/>
      <point x="53" y="413"/>
    </contour>
    <contour>
      <point x="680" y="500" type="line"/>
      <point x="680" y="-60" type="line" smooth="yes"/>
      <point x="680" y="-141"/>
      <point x="637" y="-189"/>
      <point x="572" y="-189" type="curve" smooth="yes"/>
      <point x="546" y="-189"/>
      <point x="520" y="-181"/>
      <point x="503" y="-165" type="curve"/>
      <point x="496" y="-191" type="line"/>
      <point x="513" y="-206"/>
      <point x="542" y="-215"/>
      <point x="572" y="-215" type="curve" smooth="yes"/>
      <point x="650" y="-215"/>
      <point x="708" y="-160"/>
      <point x="708" y="-62" type="curve" smooth="yes"/>
      <point x="708" y="500" type="line"/>
    </contour>
    <contour>
      <point x="665" y="627" type="curve" smooth="yes"/>
      <point x="665" y="610"/>
      <point x="677" y="598"/>
      <point x="694" y="598" type="curve" smooth="yes"/>
      <point x="711" y="598"/>
      <point x="723" y="610"/>
      <point x="723" y="627" type="curve" smooth="yes"/>
      <point x="723" y="644"/>
      <point x="711" y="656"/>
      <point x="694" y="656" type="curve" smooth="yes"/>
      <point x="677" y="656"/>
      <point x="665" y="644"/>
    </contour>
  </outline>
</glyph>
<glyph name="g_idieresis" format="2">
  <advance width="704"/>
  <anchor x="610" y="0" name="bottomC"/>
  <anchor x="603" y="500" name="top"/>
  <anchor x="617" y="0" name="ogonek"/>
  <anchor x="603" y="0" name="bottom"/>
  <outline>
    <contour>
      <point x="378" y="468" type="curve"/>
      <point x="398" y="460" type="line"/>
      <point x="398" y="526"/>
      <point x="435" y="568"/>
      <point x="503" y="568" type="curve"/>
      <point x="495" y="592" type="line"/>
      <point x="424" y="592"/>
      <point x="378" y="544"/>
    </contour>
    <component base="gbase" xOffset="-14"/>
    <component base="idieresis" xOffset="503"/>
  </outline>
</glyph>
<glyph name="hyphensuperior" format="2">
  <advance width="270"/>
  <outline>
    <contour>
      <point x="45" y="543" type="line"/>
      <point x="45" y="522" type="line"/>
      <point x="225" y="522" type="line"/>
      <point x="225" y="543" type="line"/>
    </contour>
  </outline>
</glyph>
<glyph name="iacute_j.loclNLD" format="2">
  <advance width="402"/>
  <anchor x="107" y="0" name="bottomC"/>
  <anchor x="101" y="500" name="top"/>
  <anchor x="115" y="0" name="ogonek"/>
  <anchor x="101" y="0" name="bottom"/>
  <outline>
    <contour>
      <point x="288" y="500" type="line"/>
      <point x="288" y="-60" type="line" smooth="yes"/>
      <point x="288" y="-141"/>
      <point x="245" y="-189"/>
      <point x="180" y="-189" type="curve" smooth="yes"/>
      <point x="154" y="-189"/>
      <point x="127" y="-181"/>
      <point x="111" y="-165" type="curve"/>
      <point x="103" y="-191" type="line"/>
      <point x="121" y="-206"/>
      <point x="149" y="-215"/>
      <point x="180" y="-215" type="curve" smooth="yes"/>
      <point x="258" y="-215"/>
      <point x="316" y="-160"/>
      <point x="316" y="-62" type="curve" smooth="yes"/>
      <point x="316" y="500" type="line"/>
    </contour>
    <component base="iacute"/>
    <component base="acute" xOffset="9"/>
  </outline>
</glyph>
<glyph name="ij.sc.ss05" format="2">
  <advance width="515"/>
  <outline>
    <contour>
      <point x="84" y="560" type="line"/>
      <point x="84" y="227" type="line"/>
      <point x="112" y="227" type="line"/>
      <point x="112" y="560" type="line"/>
    </contour>
    <contour>
      <point x="403" y="560" type="line"/>
      <point x="403" y="184" type="line" smooth="yes"/>
      <point x="403" y="74"/>
      <point x="351" y="16"/>
      <point x="253" y="16" type="curve" smooth="yes"/>
      <point x="159" y="16"/>
      <point x="109" y="60"/>
      <point x="110" y="144" type="curve"/>
      <point x="82" y="144" type="line"/>
      <point x="80" y="45"/>
      <point x="137" y="-8"/>
      <point x="252" y="-8" type="curve" smooth="yes"/>
      <point x="368" y="-8"/>
      <point x="431" y="58"/>
      <point x="431" y="181" type="curve" smooth="yes"/>
      <point x="431" y="560" type="line"/>
    </contour>
  </outline>
</glyph>
<glyph name="indexring" format="2">
  <advance width="910"/>
  <anchor x="455" y="330" name="indexring"/>
  <outline>
    <contour>
      <point x="821" y="330" type="curve" smooth="yes"/>
      <point x="821" y="546"/>
      <point x="669" y="700"/>
      <point x="455" y="700" type="curve" smooth="yes"/>
      <point x="241" y="700"/>
      <point x="89" y="546"/>
      <point x="89" y="330" type="curve" smooth="yes"/>
      <point x="89" y="114"/>
      <point x="241" y="-40"/>
      <point x="455" y="-40" type="curve" smooth="yes"/>
      <point x="669" y="-40"/>
      <point x="821" y="114"/>
    </contour>
    <contour>
      <point x="115" y="330" type="curve" smooth="yes"/>
      <point x="115" y="533"/>
      <point x="257" y="677"/>
      <point x="455" y="677" type="curve" smooth="yes"/>
      <point x="653" y="677"/>
      <point x="796" y="533"/>
      <point x="796" y="330" type="curve" smooth="yes"/>
      <point x="796" y="127"/>
      <point x="653" y="-17"/>
      <point x="455" y="-17" type="curve" smooth="yes"/>
      <point x="257" y="-17"/>
      <point x="115" y="127"/>
    </contour>
  </outline>
</glyph>
<glyph name="j.sc" format="2">
  <advance width="458"/>
  <anchor x="202" y="0" name="bottomC"/>
  <anchor x="361" y="560" name="top"/>
  <anchor x="254" y="0" name="ogonek"/>
  <anchor x="204" y="0" name="bottom"/>
  <outline>
    <contour>
      <point x="347" y="560" type="line"/>
      <point x="347" y="184" type="line" smooth="yes"/>
      <point x="347" y="81"/>
      <point x="299" y="16"/>
      <point x="196" y="16" type="curve" smooth="yes"/>
      <point x="94" y="16"/>
      <point x="44" y="75"/>
      <point x="61" y="183" type="curve"/>
      <point x="33" y="174" type="line"/>
      <point x="16" y="65"/>
      <point x="75" y="-8"/>
      <point x="196" y="-8" type="curve" smooth="yes"/>
      <point x="312" y="-8"/>
      <point x="375" y="65"/>
      <point x="375" y="181" type="curve" smooth="yes"/>
      <point x="375" y="560" type="line"/>
    </contour>
  </outline>
</glyph>
<glyph name="j_j.liga" format="2">
  <advance width="402"/>
  <outline>
    <contour>
      <point x="87" y="500" type="line"/>
      <point x="87" y="-60" type="line" smooth="yes"/>
      <point x="87" y="-141"/>
      <point x="44" y="-189"/>
      <point x="-21" y="-189" type="curve" smooth="yes"/>
      <point x="-48" y="-189"/>
      <point x="-74" y="-181"/>
      <point x="-90" y="-165" type="curve"/>
      <point x="-98" y="-191" type="line"/>
      <point x="-80" y="-206"/>
      <point x="-52" y="-215"/>
      <point x="-21" y="-215" type="curve" smooth="yes"/>
      <point x="57" y="-215"/>
      <point x="115" y="-160"/>
      <point x="115" y="-62" type="curve" smooth="yes"/>
      <point x="115" y="500" type="line"/>
    </contour>
    <contour>
      <point x="288" y="500" type="line"/>
      <point x="288" y="-60" type="line" smooth="yes"/>
      <point x="288" y="-141"/>
      <point x="245" y="-189"/>
      <point x="180" y="-189" type="curve" smooth="yes"/>
      <point x="154" y="-189"/>
      <point x="127" y="-181"/>
      <point x="111" y="-165" type="curve"/>
      <point x="103" y="-191" type="line"/>
      <point x="121" y="-206"/>
      <point x="149" y="-215"/>
      <point x="180" y="-215" type="curve" smooth="yes"/>
      <point x="258" y="-215"/>
      <point x="316" y="-160"/>
      <point x="316" y="-62" type="curve" smooth="yes"/>
      <point x="316" y="500" type="line"/>
    </contour>
    <contour>
      <point x="71" y="627" type="curve" smooth="yes"/>
      <point x="71" y="610"/>
      <point x="84" y="598"/>
      <point x="101" y="598" type="curve" smooth="yes"/>
      <point x="117" y="598"/>
      <point x="130" y="610"/>
      <point x="130" y="627" type="curve" smooth="yes"/>
      <point x="130" y="644"/>
      <point x="117" y="656"/>
      <point x="101" y="656" type="curve" smooth="yes"/>
      <point x="84" y="656"/>
      <point x="71" y="644"/>
    </contour>
    <contour>
      <point x="272" y="627" type="curve" smooth="yes"/>
      <point x="272" y="610"/>
      <point x="285" y="598"/>
      <point x="302" y="598" type="curve" smooth="yes"/>
      <point x="318" y="598"/>
      <point x="331" y="610"/>
      <point x="331" y="627" type="curve" smooth="yes"/>
      <point x="331" y="644"/>
      <point x="318" y="656"/>
      <point x="302" y="656" type="curve" smooth="yes"/>
      <point x="285" y="656"/>
      <point x="272" y="644"/>
    </contour>
  </outline>
</glyph>
<glyph name="jdotless.ogonek" format="2">
  <advance width="237"/>
  <anchor x="79" y="-210" name="bottomC"/>
  <anchor x="137" y="500" name="top"/>
  <anchor x="106" y="-204" name="ogonek"/>
  <anchor x="79" y="-210" name="bottom"/>
  <outline>
    <contour>
      <point x="123" y="500" type="line"/>
      <point x="123" y="-84" type="line" smooth="yes"/>
      <point x="123" y="-159"/>
      <point x="105" y="-189"/>
      <point x="63" y="-189" type="curve" smooth="yes"/>
      <point x="37" y="-189"/>
      <point x="26" y="-185"/>
      <point x="13" y="-175" type="curve"/>
      <point x="6" y="-200" type="line"/>
      <point x="23" y="-212"/>
      <point x="39" y="-215"/>
      <point x="63" y="-215" type="curve" smooth="yes"/>
      <point x="119" y="-215"/>
      <point x="151" y="-178"/>
      <point x="151" y="-86" type="curve" smooth="yes"/>
      <point x="151" y="500" type="line"/>
    </contour>
  </outline>
</glyph>
<glyph name="k.sc" format="2">
  <advance width="516"/>
  <anchor x="492" y="0" name="bottomC"/>
  <anchor x="290" y="560" name="top"/>
  <anchor x="499" y="0" name="ogonek"/>
  <anchor x="289" y="0" name="bottom"/>
  <outline>
    <contour>
      <point x="455" y="560" type="line"/>
      <point x="104" y="215" type="line"/>
      <point x="104" y="180" type="line"/>
      <point x="250" y="323" type="line"/>
      <point x="253" y="324" type="line"/>
      <point x="491" y="560" type="line"/>
    </contour>
    <contour>
      <point x="91" y="560" type="line"/>
      <point x="91" y="0" type="line"/>
      <point x="119" y="0" type="line"/>
      <point x="119" y="560" type="line"/>
    </contour>
    <contour>
      <point x="235" y="327" type="line"/>
      <point x="464" y="0" type="line"/>
      <point x="499" y="0" type="line"/>
      <point x="256" y="346" type="line"/>
    </contour>
  </outline>
</glyph>
<glyph name="l.ss02" format="2">
  <advance width="208"/>
  <anchor x="111" y="0" name="bottomC"/>
  <anchor x="104" y="730" name="top"/>
  <anchor x="118" y="0" name="ogonek"/>
  <anchor x="220" y="730" name="topright"/>
  <anchor x="104" y="0" name="bottom"/>
  <outline>
    <contour>
      <point x="90" y="730" type="line"/>
      <point x="90" y="0" type="line"/>
      <point x="118" y="0" type="line"/>
      <point x="118" y="730" type="line"/>
    </contour>
  </outline>
</glyph>
<glyph name="longs.component" format="2">
  <advance width="202"/>
  <anchor x="103" y="0" name="bottomC"/>
  <anchor x="171" y="730" name="top"/>
  <anchor x="111" y="0" name="ogonek"/>
  <anchor x="100" y="0" name="bottom"/>
  <outline>
    <contour>
      <point x="111" y="0" type="line"/>
      <point x="111" y="589" type="line" smooth="yes"/>
      <point x="111" y="670"/>
      <point x="141" y="710"/>
      <point x="198" y="710" type="curve" smooth="yes"/>
      <point x="225" y="710"/>
      <point x="236" y="704"/>
      <point x="252" y="688" type="curve"/>
      <point x="259" y="713" type="line"/>
      <point x="243" y="727"/>
      <point x="229" y="735"/>
      <point x="195" y="735" type="curve" smooth="yes"/>
      <point x="120" y="735"/>
      <point x="83" y="684"/>
      <point x="83" y="591" type="curve" smooth="yes"/>
      <point x="83" y="0" type="line"/>
    </contour>
  </outline>
</glyph>
<glyph name="longs_l" format="2">
  <advance width="469"/>
  <anchor x="445" y="359" name="center"/>
  <anchor x="376" y="0" name="bottomC"/>
  <anchor x="315" y="730" name="top"/>
  <anchor x="404" y="0" name="bottom"/>
  <anchor x="436" y="730" name="topright"/>
  <anchor x="448" y="0" name="ogonek"/>
  <outline>
    <contour>
      <point x="111" y="0" type="line"/>
      <point x="111" y="589" type="line" smooth="yes"/>
      <point x="111" y="670"/>
      <point x="141" y="710"/>
      <point x="199" y="710" type="curve" smooth="yes"/>
      <point x="228" y="710"/>
      <point x="240" y="704"/>
      <point x="256" y="688" type="curve"/>
      <point x="264" y="710" type="line"/>
      <point x="248" y="725"/>
      <point x="233" y="735"/>
      <point x="196" y="735" type="curve" smooth="yes"/>
      <point x="122" y="735"/>
      <point x="83" y="684"/>
      <point x="83" y="591" type="curve" smooth="yes"/>
      <point x="83" y="0" type="line"/>
    </contour>
    <component base="l" xOffset="219"/>
  </outline>
</glyph>
<glyph name="longs_l.ss02" format="2">
  <advance width="419"/>
  <anchor x="315" y="0" name="bottom"/>
  <anchor x="315" y="730" name="top"/>
  <anchor x="329" y="0" name="ogonek"/>
  <anchor x="431" y="730" name="topright"/>
  <anchor x="322" y="0" name="bottomC"/>
  <outline>
    <contour>
      <point x="111" y="0" type="line"/>
      <point x="111" y="589" type="line" smooth="yes"/>
      <point x="111" y="670"/>
      <point x="141" y="710"/>
      <point x="199" y="710" type="curve" smooth="yes"/>
      <point x="228" y="710"/>
      <point x="240" y="704"/>
      <point x="256" y="688" type="curve"/>
      <point x="264" y="710" type="line"/>
      <point x="248" y="725"/>
      <point x="233" y="735"/>
      <point x="196" y="735" type="curve" smooth="yes"/>
      <point x="122" y="735"/>
      <point x="83" y="684"/>
      <point x="83" y="591" type="curve" smooth="yes"/>
      <point x="83" y="0" type="line"/>
    </contour>
    <component base="l.ss02" xOffset="211"/>
  </outline>
</glyph>
<glyph name="lslash.ss02" format="2">
  <advance width="233"/>
  <anchor x="126" y="0" name="bottomC"/>
  <anchor x="121" y="730" name="top"/>
  <anchor x="134" y="0" name="ogonek"/>
  <anchor x="236" y="730" name="topright"/>
  <anchor x="120" y="0" name="bottom"/>
  <outline>
    <contour>
      <point x="124" y="339" type="line"/>
      <point x="208" y="399" type="line"/>
      <point x="208" y="428" type="line"/>
      <point x="120" y="366" type="line"/>
      <point x="31" y="305" type="line"/>
      <point x="31" y="275" type="line"/>
    </contour>
    <component base="l.ss02" xOffset="16"/>
  </outline>
</glyph>
<glyph name="n.swsh" format="2">
  <advance width="610"/>
  <anchor x="559" y="-87" name="bottomC"/>
  <anchor x="298" y="500" name="top"/>
  <anchor x="566" y="-87" name="ogonek"/>
  <anchor x="310" y="0" name="bottom"/>
  <outline>
    <contour>
      <point x="102" y="312" type="curve"/>
      <point x="115" y="294" type="line"/>
      <point x="115" y="403"/>
      <point x="201" y="486"/>
      <point x="310" y="486" type="curve" smooth="yes"/>
      <point x="409" y="486"/>
      <point x="474" y="428"/>
      <point x="474" y="320" type="curve" smooth="yes"/>
      <point x="474" y="-11" type="line" smooth="yes"/>
      <point x="474" y="-58"/>
      <point x="495" y="-90"/>
      <point x="553" y="-90" type="curve" smooth="yes"/>
      <point x="576" y="-90"/>
      <point x="596" y="-84"/>
      <point x="608" y="-75" type="curve"/>
      <point x="613" y="-50" type="line"/>
      <point x="594" y="-64"/>
      <point x="579" y="-67"/>
      <point x="558" y="-67" type="curve" smooth="yes"/>
      <point x="522" y="-67"/>
      <point x="502" y="-49"/>
      <point x="502" y="-11" type="curve" smooth="yes"/>
      <point x="502" y="327" type="line" smooth="yes"/>
      <point x="502" y="445"/>
      <point x="428" y="510"/>
      <point x="314" y="510" type="curve" smooth="yes"/>
      <point x="193" y="510"/>
      <point x="102" y="428"/>
    </contour>
    <contour>
      <point x="87" y="500" type="line"/>
      <point x="87" y="316" type="line"/>
      <point x="87" y="0" type="line"/>
      <point x="115" y="0" type="line"/>
      <point x="115" y="308" type="line"/>
      <point x="114" y="316" type="line"/>
      <point x="113" y="500" type="line"/>
    </contour>
  </outline>
</glyph>
<glyph name="nine.osf" format="2">
  <advance width="575"/>
  <outline>
    <contour>
      <point x="59" y="366" type="curve" smooth="yes"/>
      <point x="59" y="241"/>
      <point x="142" y="161"/>
      <point x="272" y="161" type="curve" smooth="yes"/>
      <point x="372" y="161"/>
      <point x="478" y="230"/>
      <point x="476" y="352" type="curve"/>
      <point x="479" y="352" type="line"/>
      <point x="485" y="314"/>
      <point x="489" y="275"/>
      <point x="489" y="233" type="curve" smooth="yes"/>
      <point x="489" y="71"/>
      <point x="433" y="-86"/>
      <point x="277" y="-86" type="curve" smooth="yes"/>
      <point x="168" y="-86"/>
      <point x="106" y="-33"/>
      <point x="92" y="46" type="curve"/>
      <point x="64" y="32" type="line"/>
      <point x="86" y="-54"/>
      <point x="165" y="-110"/>
      <point x="277" y="-110" type="curve" smooth="yes"/>
      <point x="418" y="-110"/>
      <point x="515" y="7"/>
      <point x="515" y="230" type="curve" smooth="yes"/>
      <point x="515" y="444"/>
      <point x="431" y="570"/>
      <point x="276" y="570" type="curve" smooth="yes"/>
      <point x="144" y="570"/>
      <point x="59" y="490"/>
    </contour>
    <contour>
      <point x="462" y="364" type="curve" smooth="yes"/>
      <point x="462" y="275"/>
      <point x="383" y="185"/>
      <point x="274" y="185" type="curve" smooth="yes"/>
      <point x="160" y="185"/>
      <point x="87" y="256"/>
      <point x="87" y="364" type="curve" smooth="yes"/>
      <point x="87" y="474"/>
      <point x="160" y="546"/>
      <point x="277" y="546" type="curve" smooth="yes"/>
      <point x="387" y="546"/>
      <point x="462" y="468"/>
    </contour>
  </outline>
</glyph>
<glyph name="nine.sc" format="2">
  <advance width="511"/>
  <outline>
    <contour>
      <point x="456" y="281" type="curve" smooth="yes"/>
      <point x="456" y="462"/>
      <point x="381" y="568"/>
      <point x="245" y="568" type="curve" smooth="yes"/>
      <point x="128" y="568"/>
      <point x="53" y="498"/>
      <point x="53" y="394" type="curve" smooth="yes"/>
      <point x="53" y="291"/>
      <point x="125" y="221"/>
      <point x="243" y="221" type="curve" smooth="yes"/>
      <point x="326" y="221"/>
      <point x="419" y="273"/>
      <point x="420" y="379" type="curve"/>
      <point x="422" y="379" type="line"/>
      <point x="427" y="349"/>
      <point x="430" y="316"/>
      <point x="430" y="283" type="curve" smooth="yes"/>
      <point x="430" y="148"/>
      <point x="385" y="16"/>
      <point x="245" y="16" type="curve" smooth="yes"/>
      <point x="150" y="16"/>
      <point x="98" y="60"/>
      <point x="83" y="125" type="curve"/>
      <point x="57" y="111" type="line"/>
      <point x="76" y="39"/>
      <point x="147" y="-8"/>
      <point x="245" y="-8" type="curve" smooth="yes"/>
      <point x="370" y="-8"/>
      <point x="456" y="88"/>
    </contour>
    <contour>
      <point x="81" y="394" type="curve" smooth="yes"/>
      <point x="81" y="485"/>
      <point x="144" y="544"/>
      <point x="246" y="544" type="curve" smooth="yes"/>
      <point x="339" y="544"/>
      <point x="407" y="477"/>
      <point x="407" y="393" type="curve" smooth="yes"/>
      <point x="407" y="320"/>
      <point x="345" y="245"/>
      <point x="243" y="245" type="curve" smooth="yes"/>
      <point x="144" y="245"/>
      <point x="81" y="304"/>
    </contour>
  </outline>
</glyph>
<glyph name="numbersign.tf" format="2">
  <advance width="604"/>
  <outline>
    <contour>
      <point x="441" y="660" type="line"/>
      <point x="342" y="0" type="line"/>
      <point x="368" y="0" type="line"/>
      <point x="467" y="660" type="line"/>
    </contour>
    <contour>
      <point x="35" y="231" type="line"/>
      <point x="35" y="208" type="line"/>
      <point x="535" y="208" type="line"/>
      <point x="535" y="231" type="line"/>
    </contour>
    <contour>
      <point x="234" y="660" type="line"/>
      <point x="135" y="0" type="line"/>
      <point x="161" y="0" type="line"/>
      <point x="261" y="660" type="line"/>
    </contour>
    <contour>
      <point x="69" y="461" type="line"/>
      <point x="69" y="438" type="line"/>
      <point x="569" y="438" type="line"/>
      <point x="569" y="461" type="line"/>
    </contour>
  </outline>
</glyph>
<glyph name="o.sc" format="2">
  <advance width="641"/>
  <anchor x="321" y="0" name="bottomC"/>
  <anchor x="321" y="560" name="top"/>
  <anchor x="390" y="0" name="ogonek"/>
  <anchor x="321" y="0" name="bottom"/>
  <outline>
    <contour>
      <point x="54" y="280" type="curve" smooth="yes"/>
      <point x="54" y="103"/>
      <point x="156" y="-8"/>
      <point x="321" y="-8" type="curve" smooth="yes"/>
      <point x="485" y="-8"/>
      <point x="588" y="103"/>
      <point x="588" y="280" type="curve" smooth="yes"/>
      <point x="588" y="457"/>
      <point x="485" y="568"/>
      <point x="321" y="568" type="curve" smooth="yes"/>
      <point x="156" y="568"/>
      <point x="54" y="457"/>
    </contour>
    <contour>
      <point x="560" y="280" type="curve" smooth="yes"/>
      <point x="560" y="117"/>
      <point x="467" y="16"/>
      <point x="321" y="16" type="curve" smooth="yes"/>
      <point x="174" y="16"/>
      <point x="82" y="117"/>
      <point x="82" y="280" type="curve" smooth="yes"/>
      <point x="82" y="443"/>
      <point x="174" y="544"/>
      <point x="321" y="544" type="curve" smooth="yes"/>
      <point x="467" y="544"/>
      <point x="560" y="443"/>
    </contour>
  </outline>
</glyph>
<glyph name="oe.sc" format="2">
  <advance width="937"/>
  <anchor x="535" y="560" name="top"/>
  <anchor x="535" y="0" name="bottom"/>
  <outline>
    <contour>
      <point x="545" y="280" type="curve"/>
      <point x="545" y="469"/>
      <point x="471" y="568"/>
      <point x="306" y="568" type="curve" smooth="yes"/>
      <point x="152" y="568"/>
      <point x="54" y="457"/>
      <point x="54" y="280" type="curve" smooth="yes"/>
      <point x="54" y="103"/>
      <point x="153" y="-8"/>
      <point x="306" y="-8" type="curve" smooth="yes"/>
      <point x="470" y="-8"/>
      <point x="545" y="90"/>
    </contour>
    <contour>
      <point x="82" y="280" type="curve" smooth="yes"/>
      <point x="82" y="442"/>
      <point x="170" y="544"/>
      <point x="307" y="544" type="curve" smooth="yes"/>
      <point x="455" y="544"/>
      <point x="522" y="456"/>
      <point x="522" y="280" type="curve" smooth="yes"/>
      <point x="522" y="103"/>
      <point x="455" y="16"/>
      <point x="307" y="16" type="curve" smooth="yes"/>
      <point x="170" y="16"/>
      <point x="82" y="117"/>
    </contour>
    <contour>
      <point x="904" y="0" type="line"/>
      <point x="904" y="24" type="line"/>
      <point x="540" y="24" type="line"/>
      <point x="534" y="0" type="line"/>
    </contour>
    <contour>
      <point x="549" y="0" type="line"/>
      <point x="549" y="560" type="line"/>
      <point x="523" y="560" type="line"/>
      <point x="523" y="0" type="line"/>
    </contour>
    <contour>
      <point x="824" y="273" type="line"/>
      <point x="824" y="298" type="line"/>
      <point x="534" y="298" type="line"/>
      <point x="534" y="273" type="line"/>
    </contour>
    <contour>
      <point x="889" y="536" type="line"/>
      <point x="889" y="560" type="line"/>
      <point x="534" y="560" type="line"/>
      <point x="534" y="536" type="line"/>
    </contour>
  </outline>
</glyph>
<glyph name="ogonek.A" format="2">
  <advance width="579"/>
  <anchor x="575" y="0" name="_ogonek"/>
  <outline>
    <contour>
      <point x="554" y="12" type="line"/>
      <point x="455" y="-26"/>
      <point x="420" y="-67"/>
      <point x="420" y="-122" type="curve" smooth="yes"/>
      <point x="420" y="-176"/>
      <point x="461" y="-204"/>
      <point x="514" y="-204" type="curve" smooth="yes"/>
      <point x="548" y="-204"/>
      <point x="571" y="-195"/>
      <point x="588" y="-184" type="curve"/>
      <point x="580" y="-164" type="line"/>
      <point x="565" y="-175"/>
      <point x="546" y="-182"/>
      <point x="516" y="-182" type="curve" smooth="yes"/>
      <point x="476" y="-182"/>
      <point x="444" y="-162"/>
      <point x="444" y="-121" type="curve" smooth="yes"/>
      <point x="444" y="-74"/>
      <point x="475" y="-37"/>
      <point x="575" y="0" type="curve"/>
    </contour>
  </outline>
</glyph>
<glyph name="ogonek.E" format="2">
  <advance width="582"/>
  <anchor x="560" y="0" name="_ogonek"/>
  <outline>
    <contour>
      <point x="547" y="11" type="line"/>
      <point x="441" y="-25"/>
      <point x="406" y="-66"/>
      <point x="406" y="-123" type="curve" smooth="yes"/>
      <point x="406" y="-176"/>
      <point x="447" y="-204"/>
      <point x="499" y="-204" type="curve" smooth="yes"/>
      <point x="535" y="-204"/>
      <point x="557" y="-195"/>
      <point x="573" y="-184" type="curve"/>
      <point x="565" y="-164" type="line"/>
      <point x="551" y="-175"/>
      <point x="532" y="-182"/>
      <point x="501" y="-182" type="curve" smooth="yes"/>
      <point x="461" y="-182"/>
      <point x="430" y="-162"/>
      <point x="430" y="-121" type="curve" smooth="yes"/>
      <point x="430" y="-74"/>
      <point x="461" y="-37"/>
      <point x="560" y="0" type="curve"/>
    </contour>
  </outline>
</glyph>
<glyph name="ogonek.e" format="2">
  <advance width="530"/>
  <anchor x="371" y="25" name="_ogonek"/>
  <outline>
    <contour>
      <point x="225" y="-122" type="curve" smooth="yes"/>
      <point x="225" y="-175"/>
      <point x="266" y="-204"/>
      <point x="319" y="-204" type="curve" smooth="yes"/>
      <point x="353" y="-204"/>
      <point x="376" y="-195"/>
      <point x="392" y="-184" type="curve"/>
      <point x="385" y="-164" type="line"/>
      <point x="370" y="-175"/>
      <point x="351" y="-182"/>
      <point x="321" y="-182" type="curve" smooth="yes"/>
      <point x="281" y="-182"/>
      <point x="250" y="-161"/>
      <point x="250" y="-120" type="curve" smooth="yes"/>
      <point x="250" y="-73"/>
      <point x="283" y="-36"/>
      <point x="392" y="17" type="curve"/>
      <point x="371" y="25" type="line"/>
      <point x="260" y="-26"/>
      <point x="225" y="-67"/>
    </contour>
  </outline>
</glyph>
<glyph name="one.osf" format="2">
  <advance width="328"/>
  <outline>
    <contour>
      <point x="236" y="560" type="line"/>
      <point x="210" y="560" type="line"/>
      <point x="208" y="529"/>
      <point x="208" y="486"/>
      <point x="208" y="455" type="curve" smooth="yes"/>
      <point x="208" y="0" type="line"/>
      <point x="236" y="0" type="line"/>
      <point x="236" y="416" type="line"/>
    </contour>
    <contour>
      <point x="231" y="557" type="curve"/>
      <point x="210" y="560" type="line"/>
      <point x="175" y="493"/>
      <point x="96" y="443"/>
      <point x="28" y="419" type="curve"/>
      <point x="37" y="397" type="line"/>
      <point x="115" y="423"/>
      <point x="197" y="479"/>
    </contour>
  </outline>
</glyph>
<glyph name="one.sc" format="2">
  <advance width="326"/>
  <outline>
    <contour>
      <point x="234" y="560" type="line"/>
      <point x="208" y="560" type="line"/>
      <point x="207" y="528"/>
      <point x="206" y="493"/>
      <point x="206" y="461" type="curve" smooth="yes"/>
      <point x="206" y="0" type="line"/>
      <point x="234" y="0" type="line"/>
      <point x="234" y="416" type="line"/>
    </contour>
    <contour>
      <point x="229" y="555" type="curve"/>
      <point x="208" y="560" type="line"/>
      <point x="173" y="493"/>
      <point x="92" y="442"/>
      <point x="26" y="420" type="curve"/>
      <point x="35" y="397" type="line"/>
      <point x="113" y="423"/>
      <point x="195" y="478"/>
    </contour>
  </outline>
</glyph>
<glyph name="one.tf" format="2">
  <advance width="604"/>
  <outline>
    <contour>
      <point x="351" y="0" type="line"/>
      <point x="351" y="516" type="line"/>
      <point x="351" y="660" type="line"/>
      <point x="325" y="660" type="line"/>
      <point x="324" y="626"/>
      <point x="323" y="587"/>
      <point x="323" y="553" type="curve" smooth="yes"/>
      <point x="323" y="0" type="line"/>
    </contour>
    <contour>
      <point x="542" y="0" type="line"/>
      <point x="542" y="25" type="line"/>
      <point x="110" y="25" type="line"/>
      <point x="110" y="0" type="line"/>
    </contour>
    <contour>
      <point x="347" y="655" type="curve"/>
      <point x="325" y="660" type="line"/>
      <point x="289" y="592"/>
      <point x="166" y="529"/>
      <point x="101" y="508" type="curve"/>
      <point x="109" y="482" type="line"/>
      <point x="187" y="508"/>
      <point x="312" y="577"/>
    </contour>
  </outline>
</glyph>
<glyph name="q.sc" format="2">
  <advance width="641"/>
  <anchor x="457" y="-163" name="bottomC"/>
  <anchor x="321" y="560" name="top"/>
  <anchor x="494" y="-163" name="ogonek"/>
  <anchor x="321" y="-210" name="bottom"/>
  <outline>
    <contour>
      <point x="308" y="0" type="line"/>
      <point x="310" y="-109"/>
      <point x="377" y="-165"/>
      <point x="470" y="-165" type="curve" smooth="yes"/>
      <point x="514" y="-166"/>
      <point x="551" y="-154"/>
      <point x="575" y="-132" type="curve"/>
      <point x="564" y="-108" type="line"/>
      <point x="542" y="-131"/>
      <point x="506" y="-141"/>
      <point x="471" y="-141" type="curve" smooth="yes"/>
      <point x="390" y="-141"/>
      <point x="334" y="-96"/>
      <point x="331" y="3" type="curve"/>
    </contour>
    <component base="o.sc"/>
  </outline>
</glyph>
<glyph name="question.sc" format="2">
  <advance width="421"/>
  <outline>
    <contour>
      <point x="25" y="425" type="curve"/>
      <point x="52" y="413" type="line"/>
      <point x="65" y="493"/>
      <point x="111" y="544"/>
      <point x="216" y="544" type="curve" smooth="yes"/>
      <point x="303" y="544"/>
      <point x="362" y="498"/>
      <point x="362" y="422" type="curve" smooth="yes"/>
      <point x="362" y="337"/>
      <point x="319" y="292"/>
      <point x="190" y="258" type="curve"/>
      <point x="190" y="139" type="line"/>
      <point x="218" y="139" type="line"/>
      <point x="218" y="243" type="line"/>
      <point x="336" y="272"/>
      <point x="391" y="328"/>
      <point x="391" y="424" type="curve" smooth="yes"/>
      <point x="391" y="515"/>
      <point x="319" y="568"/>
      <point x="217" y="568" type="curve" smooth="yes"/>
      <point x="99" y="568"/>
      <point x="41" y="514"/>
    </contour>
    <component base="period" xScale="0.98875" yScale="0.985" xOffset="110"/>
  </outline>
</glyph>
<glyph name="quotesingle.sc" format="2">
  <advance width="166"/>
  <outline>
    <contour>
      <point x="69" y="574" type="line"/>
      <point x="69" y="399" type="line"/>
      <point x="94" y="399" type="line"/>
      <point x="99" y="574" type="line"/>
    </contour>
  </outline>
</glyph>
<glyph name="registeredsuperior" format="2">
  <advance width="501"/>
  <outline>
    <contour>
      <point x="480" y="442" type="curve" smooth="yes"/>
      <point x="480" y="573"/>
      <point x="383" y="670"/>
      <point x="250" y="670" type="curve" smooth="yes"/>
      <point x="118" y="670"/>
      <point x="21" y="573"/>
      <point x="21" y="442" type="curve" smooth="yes"/>
      <point x="21" y="311"/>
      <point x="118" y="214"/>
      <point x="250" y="214" type="curve" smooth="yes"/>
      <point x="383" y="214"/>
      <point x="480" y="311"/>
    </contour>
    <contour>
      <point x="191" y="317" type="line"/>
      <point x="191" y="563" type="line"/>
      <point x="167" y="563" type="line"/>
      <point x="167" y="317" type="line"/>
    </contour>
    <contour>
      <point x="359" y="317" type="line"/>
      <point x="281" y="435" type="line"/>
      <point x="260" y="427" type="line"/>
      <point x="331" y="317" type="line"/>
    </contour>
    <contour>
      <point x="46" y="442" type="curve" smooth="yes"/>
      <point x="46" y="559"/>
      <point x="133" y="647"/>
      <point x="250" y="647" type="curve" smooth="yes"/>
      <point x="368" y="647"/>
      <point x="455" y="559"/>
      <point x="455" y="442" type="curve" smooth="yes"/>
      <point x="455" y="324"/>
      <point x="368" y="237"/>
      <point x="250" y="237" type="curve" smooth="yes"/>
      <point x="133" y="237"/>
      <point x="46" y="324"/>
    </contour>
    <contour>
      <point x="268" y="422" type="line" smooth="yes"/>
      <point x="322" y="422"/>
      <point x="354" y="447"/>
      <point x="354" y="492" type="curve" smooth="yes"/>
      <point x="354" y="539"/>
      <point x="322" y="563"/>
      <point x="268" y="563" type="curve" smooth="yes"/>
      <point x="180" y="563" type="line"/>
      <point x="180" y="543" type="line"/>
      <point x="270" y="543" type="line" smooth="yes"/>
      <point x="311" y="543"/>
      <point x="330" y="528"/>
      <point x="330" y="493" type="curve" smooth="yes"/>
      <point x="330" y="457"/>
      <point x="311" y="441"/>
      <point x="270" y="441" type="curve" smooth="yes"/>
      <point x="180" y="441" type="line"/>
      <point x="180" y="422" type="line"/>
    </contour>
  </outline>
</glyph>
<glyph name="seven.sc" format="2">
  <advance width="455"/>
  <outline>
    <contour>
      <point x="26" y="536" type="line"/>
      <point x="423" y="536" type="line"/>
      <point x="421" y="546" type="line"/>
      <point x="268" y="395"/>
      <point x="196" y="210"/>
      <point x="181" y="0" type="curve"/>
      <point x="210" y="0" type="line"/>
      <point x="225" y="217"/>
      <point x="297" y="389"/>
      <point x="440" y="536" type="curve"/>
      <point x="440" y="560" type="line"/>
      <point x="26" y="560" type="line"/>
    </contour>
  </outline>
</glyph>
<glyph name="seven.tosf" format="2">
  <advance width="604"/>
  <outline>
    <contour>
      <point x="68" y="536" type="line"/>
      <point x="517" y="536" type="line"/>
      <point x="515" y="546" type="line"/>
      <point x="342" y="366"/>
      <point x="262" y="148"/>
      <point x="244" y="-100" type="curve"/>
      <point x="273" y="-100" type="line"/>
      <point x="290" y="157"/>
      <point x="373" y="361"/>
      <point x="535" y="535" type="curve"/>
      <point x="535" y="560" type="line"/>
      <point x="68" y="560" type="line"/>
    </contour>
  </outline>
</glyph>
<glyph name="six.osf" format="2">
  <advance width="551"/>
  <outline>
    <contour>
      <point x="56" y="330" type="curve" smooth="yes"/>
      <point x="56" y="112"/>
      <point x="136" y="-10"/>
      <point x="290" y="-10" type="curve" smooth="yes"/>
      <point x="418" y="-10"/>
      <point x="501" y="70"/>
      <point x="501" y="194" type="curve" smooth="yes"/>
      <point x="501" y="317"/>
      <point x="423" y="399"/>
      <point x="294" y="399" type="curve" smooth="yes"/>
      <point x="195" y="399"/>
      <point x="93" y="330"/>
      <point x="93" y="212" type="curve"/>
      <point x="91" y="212" type="line"/>
      <point x="86" y="246"/>
      <point x="82" y="283"/>
      <point x="82" y="317" type="curve" smooth="yes"/>
      <point x="82" y="483"/>
      <point x="143" y="646"/>
      <point x="306" y="646" type="curve" smooth="yes"/>
      <point x="393" y="646"/>
      <point x="441" y="598"/>
      <point x="460" y="534" type="curve"/>
      <point x="486" y="546" type="line"/>
      <point x="460" y="620"/>
      <point x="405" y="670"/>
      <point x="306" y="670" type="curve" smooth="yes"/>
      <point x="163" y="670"/>
      <point x="56" y="557"/>
    </contour>
    <contour>
      <point x="473" y="196" type="curve" smooth="yes"/>
      <point x="473" y="86"/>
      <point x="403" y="14"/>
      <point x="289" y="14" type="curve" smooth="yes"/>
      <point x="182" y="14"/>
      <point x="109" y="92"/>
      <point x="109" y="196" type="curve" smooth="yes"/>
      <point x="109" y="285"/>
      <point x="182" y="375"/>
      <point x="293" y="375" type="curve" smooth="yes"/>
      <point x="403" y="375"/>
      <point x="473" y="303"/>
    </contour>
  </outline>
</glyph>
<glyph name="six.sc" format="2">
  <advance width="492"/>
  <outline>
    <contour>
      <point x="446" y="165" type="curve" smooth="yes"/>
      <point x="446" y="269"/>
      <point x="378" y="338"/>
      <point x="262" y="338" type="curve" smooth="yes"/>
      <point x="176" y="338"/>
      <point x="91" y="281"/>
      <point x="86" y="186" type="curve"/>
      <point x="84" y="186" type="line"/>
      <point x="80" y="213"/>
      <point x="78" y="241"/>
      <point x="78" y="274" type="curve" smooth="yes"/>
      <point x="78" y="409"/>
      <point x="131" y="544"/>
      <point x="273" y="544" type="curve" smooth="yes"/>
      <point x="348" y="544"/>
      <point x="391" y="504"/>
      <point x="408" y="451" type="curve"/>
      <point x="433" y="463" type="line"/>
      <point x="409" y="526"/>
      <point x="360" y="568"/>
      <point x="273" y="568" type="curve" smooth="yes"/>
      <point x="146" y="568"/>
      <point x="52" y="472"/>
      <point x="52" y="276" type="curve" smooth="yes"/>
      <point x="52" y="92"/>
      <point x="122" y="-8"/>
      <point x="259" y="-8" type="curve" smooth="yes"/>
      <point x="373" y="-8"/>
      <point x="446" y="60"/>
    </contour>
    <contour>
      <point x="101" y="166" type="curve" smooth="yes"/>
      <point x="101" y="240"/>
      <point x="164" y="314"/>
      <point x="261" y="314" type="curve" smooth="yes"/>
      <point x="356" y="314"/>
      <point x="418" y="254"/>
      <point x="418" y="166" type="curve" smooth="yes"/>
      <point x="418" y="75"/>
      <point x="356" y="16"/>
      <point x="257" y="16" type="curve" smooth="yes"/>
      <point x="164" y="16"/>
      <point x="101" y="80"/>
    </contour>
  </outline>
</glyph>
<glyph name="six.tf" format="2">
  <advance width="604"/>
  <outline>
    <contour>
      <point x="92" y="330" type="curve" smooth="yes"/>
      <point x="92" y="112"/>
      <point x="173" y="-10"/>
      <point x="331" y="-10" type="curve" smooth="yes"/>
      <point x="463" y="-10"/>
      <point x="547" y="70"/>
      <point x="547" y="194" type="curve" smooth="yes"/>
      <point x="547" y="317"/>
      <point x="467" y="399"/>
      <point x="335" y="399" type="curve" smooth="yes"/>
      <point x="234" y="399"/>
      <point x="133" y="332"/>
      <point x="129" y="213" type="curve"/>
      <point x="127" y="213" type="line"/>
      <point x="122" y="250"/>
      <point x="118" y="284"/>
      <point x="118" y="317" type="curve" smooth="yes"/>
      <point x="118" y="483"/>
      <point x="181" y="645"/>
      <point x="347" y="645" type="curve" smooth="yes"/>
      <point x="436" y="645"/>
      <point x="486" y="598"/>
      <point x="506" y="534" type="curve"/>
      <point x="532" y="546" type="line"/>
      <point x="505" y="620"/>
      <point x="449" y="670"/>
      <point x="348" y="670" type="curve" smooth="yes"/>
      <point x="202" y="670"/>
      <point x="92" y="557"/>
    </contour>
    <contour>
      <point x="518" y="196" type="curve" smooth="yes"/>
      <point x="518" y="87"/>
      <point x="446" y="16"/>
      <point x="330" y="16" type="curve" smooth="yes"/>
      <point x="220" y="16"/>
      <point x="145" y="93"/>
      <point x="145" y="196" type="curve" smooth="yes"/>
      <point x="145" y="284"/>
      <point x="220" y="374"/>
      <point x="334" y="374" type="curve" smooth="yes"/>
      <point x="446" y="374"/>
      <point x="518" y="301"/>
    </contour>
  </outline>
</glyph>
<glyph name="sterling.part" format="2">
  <advance width="565"/>
  <outline>
    <contour>
      <point x="136" y="484" type="curve" smooth="yes"/>
      <point x="136" y="428"/>
      <point x="154" y="387"/>
      <point x="210" y="317" type="curve" smooth="yes"/>
      <point x="264" y="250"/>
      <point x="282" y="211"/>
      <point x="282" y="158" type="curve" smooth="yes"/>
      <point x="282" y="77"/>
      <point x="219" y="12"/>
      <point x="127" y="12" type="curve" smooth="yes"/>
      <point x="83" y="12"/>
      <point x="54" y="30"/>
      <point x="54" y="60" type="curve" smooth="yes"/>
      <point x="54" y="90"/>
      <point x="84" y="110"/>
      <point x="133" y="110" type="curve" smooth="yes"/>
      <point x="251" y="110"/>
      <point x="276" y="-10"/>
      <point x="409" y="-10" type="curve" smooth="yes"/>
      <point x="487" y="-10"/>
      <point x="539" y="31"/>
      <point x="539" y="122" type="curve"/>
      <point x="516" y="122" type="line"/>
      <point x="515" y="51"/>
      <point x="478" y="13"/>
      <point x="407" y="13" type="curve" smooth="yes"/>
      <point x="284" y="13"/>
      <point x="265" y="133"/>
      <point x="132" y="133" type="curve" smooth="yes"/>
      <point x="67" y="133"/>
      <point x="27" y="103"/>
      <point x="27" y="60" type="curve" smooth="yes"/>
      <point x="27" y="18"/>
      <point x="65" y="-10"/>
      <point x="125" y="-10" type="curve" smooth="yes"/>
      <point x="230" y="-10"/>
      <point x="306" y="66"/>
      <point x="306" y="160" type="curve" smooth="yes"/>
      <point x="306" y="214"/>
      <point x="288" y="257"/>
      <point x="233" y="327" type="curve" smooth="yes"/>
      <point x="180" y="398"/>
      <point x="163" y="437"/>
      <point x="163" y="487" type="curve" smooth="yes"/>
      <point x="163" y="583"/>
      <point x="228" y="645"/>
      <point x="331" y="645" type="curve" smooth="yes"/>
      <point x="417" y="645"/>
      <point x="475" y="592"/>
      <point x="485" y="511" type="curve"/>
      <point x="510" y="523" type="line"/>
      <point x="497" y="614"/>
      <point x="431" y="670"/>
      <point x="332" y="670" type="curve" smooth="yes"/>
      <point x="215" y="670"/>
      <point x="136" y="596"/>
    </contour>
  </outline>
</glyph>
<glyph name="sterling.part.tf" format="2">
  <advance width="551"/>
  <outline>
    <contour>
      <point x="145" y="484" type="curve" smooth="yes"/>
      <point x="145" y="427"/>
      <point x="160" y="384"/>
      <point x="206" y="317" type="curve" smooth="yes"/>
      <point x="251" y="251"/>
      <point x="265" y="211"/>
      <point x="265" y="158" type="curve" smooth="yes"/>
      <point x="265" y="77"/>
      <point x="214" y="12"/>
      <point x="142" y="12" type="curve" smooth="yes"/>
      <point x="100" y="12"/>
      <point x="77" y="30"/>
      <point x="77" y="60" type="curve" smooth="yes"/>
      <point x="77" y="90"/>
      <point x="101" y="110"/>
      <point x="147" y="110" type="curve" smooth="yes"/>
      <point x="252" y="110"/>
      <point x="280" y="-10"/>
      <point x="403" y="-10" type="curve" smooth="yes"/>
      <point x="476" y="-10"/>
      <point x="526" y="31"/>
      <point x="526" y="122" type="curve"/>
      <point x="502" y="122" type="line"/>
      <point x="501" y="51"/>
      <point x="468" y="13"/>
      <point x="400" y="13" type="curve" smooth="yes"/>
      <point x="285" y="13"/>
      <point x="267" y="133"/>
      <point x="146" y="133" type="curve" smooth="yes"/>
      <point x="85" y="133"/>
      <point x="50" y="103"/>
      <point x="50" y="60" type="curve" smooth="yes"/>
      <point x="50" y="18"/>
      <point x="83" y="-10"/>
      <point x="139" y="-10" type="curve" smooth="yes"/>
      <point x="225" y="-10"/>
      <point x="289" y="66"/>
      <point x="289" y="158" type="curve" smooth="yes"/>
      <point x="290" y="214"/>
      <point x="274" y="257"/>
      <point x="230" y="327" type="curve" smooth="yes"/>
      <point x="186" y="395"/>
      <point x="172" y="433"/>
      <point x="172" y="487" type="curve" smooth="yes"/>
      <point x="172" y="583"/>
      <point x="233" y="645"/>
      <point x="329" y="645" type="curve" smooth="yes"/>
      <point x="409" y="645"/>
      <point x="463" y="592"/>
      <point x="473" y="511" type="curve"/>
      <point x="498" y="523" type="line"/>
      <point x="486" y="614"/>
      <point x="424" y="670"/>
      <point x="330" y="670" type="curve" smooth="yes"/>
      <point x="220" y="670"/>
      <point x="145" y="596"/>
    </contour>
  </outline>
</glyph>
<glyph name="t.sc" format="2">
  <advance width="498"/>
  <anchor x="261" y="0" name="bottomC"/>
  <anchor x="249" y="560" name="top"/>
  <anchor x="263" y="0" name="ogonek"/>
  <anchor x="242" y="300" name="center"/>
  <anchor x="249" y="0" name="bottom"/>
  <outline>
    <contour>
      <point x="235" y="549" type="line"/>
      <point x="235" y="0" type="line"/>
      <point x="263" y="0" type="line"/>
      <point x="263" y="549" type="line"/>
    </contour>
    <contour>
      <point x="16" y="560" type="line"/>
      <point x="16" y="536" type="line"/>
      <point x="482" y="536" type="line"/>
      <point x="482" y="560" type="line"/>
    </contour>
  </outline>
</glyph>
<glyph name="t_t.liga" format="2">
  <advance width="680"/>
  <anchor x="461" y="275" name="center"/>
  <anchor x="589" y="767" name="topright"/>
  <anchor x="561" y="0" name="bottom"/>
  <outline>
    <contour>
      <point x="115" y="628" type="line"/>
      <point x="115" y="126" type="line" smooth="yes"/>
      <point x="115" y="35"/>
      <point x="159" y="-10"/>
      <point x="238" y="-10" type="curve" smooth="yes"/>
      <point x="281" y="-10"/>
      <point x="318" y="7"/>
      <point x="341" y="29" type="curve"/>
      <point x="329" y="52" type="line"/>
      <point x="305" y="27"/>
      <point x="277" y="15"/>
      <point x="241" y="15" type="curve" smooth="yes"/>
      <point x="175" y="15"/>
      <point x="143" y="54"/>
      <point x="143" y="128" type="curve" smooth="yes"/>
      <point x="143" y="636" type="line"/>
    </contour>
    <contour>
      <point x="15" y="500" type="line"/>
      <point x="15" y="476" type="line"/>
      <point x="334" y="476" type="line"/>
      <point x="334" y="500" type="line"/>
    </contour>
    <contour>
      <point x="449" y="628" type="line"/>
      <point x="449" y="126" type="line" smooth="yes"/>
      <point x="449" y="35"/>
      <point x="493" y="-10"/>
      <point x="572" y="-10" type="curve" smooth="yes"/>
      <point x="615" y="-10"/>
      <point x="652" y="7"/>
      <point x="674" y="29" type="curve"/>
      <point x="663" y="52" type="line"/>
      <point x="639" y="27"/>
      <point x="610" y="15"/>
      <point x="575" y="15" type="curve" smooth="yes"/>
      <point x="508" y="15"/>
      <point x="477" y="54"/>
      <point x="477" y="128" type="curve" smooth="yes"/>
      <point x="477" y="636" type="line"/>
    </contour>
    <contour>
      <point x="349" y="500" type="line"/>
      <point x="349" y="476" type="line"/>
      <point x="668" y="476" type="line"/>
      <point x="668" y="500" type="line"/>
    </contour>
  </outline>
</glyph>
<glyph name="three.sc" format="2">
  <advance width="477"/>
  <outline>
    <contour>
      <point x="60" y="451" type="curve"/>
      <point x="86" y="440" type="line"/>
      <point x="106" y="505"/>
      <point x="161" y="544"/>
      <point x="235" y="544" type="curve" smooth="yes"/>
      <point x="324" y="544"/>
      <point x="378" y="498"/>
      <point x="378" y="419" type="curve" smooth="yes"/>
      <point x="378" y="349"/>
      <point x="334" y="294"/>
      <point x="248" y="294" type="curve" smooth="yes"/>
      <point x="207" y="294" type="line"/>
      <point x="207" y="271" type="line"/>
      <point x="248" y="271" type="line" smooth="yes"/>
      <point x="343" y="271"/>
      <point x="393" y="221"/>
      <point x="393" y="148" type="curve" smooth="yes"/>
      <point x="393" y="67"/>
      <point x="326" y="16"/>
      <point x="238" y="16" type="curve" smooth="yes"/>
      <point x="139" y="16"/>
      <point x="84" y="62"/>
      <point x="68" y="135" type="curve"/>
      <point x="42" y="121" type="line"/>
      <point x="64" y="41"/>
      <point x="130" y="-8"/>
      <point x="237" y="-8" type="curve" smooth="yes"/>
      <point x="341" y="-8"/>
      <point x="421" y="52"/>
      <point x="421" y="148" type="curve" smooth="yes"/>
      <point x="421" y="224"/>
      <point x="368" y="278"/>
      <point x="293" y="282" type="curve"/>
      <point x="293" y="282" type="line"/>
      <point x="363" y="292"/>
      <point x="406" y="349"/>
      <point x="406" y="422" type="curve" smooth="yes"/>
      <point x="406" y="512"/>
      <point x="342" y="568"/>
      <point x="235" y="568" type="curve" smooth="yes"/>
      <point x="153" y="568"/>
      <point x="87" y="525"/>
    </contour>
  </outline>
</glyph>
<glyph name="three.tf" format="2">
  <advance width="604"/>
  <outline>
    <contour>
      <point x="104" y="534" type="curve"/>
      <point x="131" y="520" type="line"/>
      <point x="153" y="597"/>
      <point x="215" y="645"/>
      <point x="300" y="645" type="curve" smooth="yes"/>
      <point x="402" y="645"/>
      <point x="464" y="589"/>
      <point x="463" y="494" type="curve" smooth="yes"/>
      <point x="463" y="411"/>
      <point x="412" y="346"/>
      <point x="314" y="346" type="curve" smooth="yes"/>
      <point x="269" y="346" type="line"/>
      <point x="269" y="320" type="line"/>
      <point x="314" y="320" type="line" smooth="yes"/>
      <point x="422" y="320"/>
      <point x="480" y="255"/>
      <point x="480" y="176" type="curve" smooth="yes"/>
      <point x="480" y="76"/>
      <point x="403" y="15"/>
      <point x="303" y="15" type="curve" smooth="yes"/>
      <point x="189" y="15"/>
      <point x="123" y="72"/>
      <point x="105" y="157" type="curve"/>
      <point x="79" y="142" type="line"/>
      <point x="103" y="49"/>
      <point x="182" y="-10"/>
      <point x="302" y="-10" type="curve" smooth="yes"/>
      <point x="418" y="-10"/>
      <point x="509" y="60"/>
      <point x="509" y="173" type="curve" smooth="yes"/>
      <point x="509" y="254"/>
      <point x="450" y="327"/>
      <point x="365" y="332" type="curve"/>
      <point x="365" y="333" type="line"/>
      <point x="444" y="345"/>
      <point x="492" y="414"/>
      <point x="492" y="498" type="curve" smooth="yes"/>
      <point x="492" y="603"/>
      <point x="421" y="670"/>
      <point x="300" y="670" type="curve" smooth="yes"/>
      <point x="207" y="670"/>
      <point x="133" y="618"/>
    </contour>
  </outline>
</glyph>
<glyph name="two.sc" format="2">
  <advance width="522"/>
  <outline>
    <contour>
      <point x="72" y="384" type="curve"/>
      <point x="96" y="373" type="line"/>
      <point x="85" y="470"/>
      <point x="158" y="544"/>
      <point x="261" y="544" type="curve" smooth="yes"/>
      <point x="363" y="544"/>
      <point x="425" y="483"/>
      <point x="425" y="390" type="curve" smooth="yes"/>
      <point x="425" y="249"/>
      <point x="277" y="144"/>
      <point x="77" y="24" type="curve"/>
      <point x="77" y="0" type="line"/>
      <point x="479" y="0" type="line"/>
      <point x="479" y="24" type="line"/>
      <point x="163" y="24" type="line" smooth="yes"/>
      <point x="133" y="24"/>
      <point x="136" y="24"/>
      <point x="123" y="23" type="curve"/>
      <point x="123" y="24" type="line"/>
      <point x="311" y="138"/>
      <point x="453" y="240"/>
      <point x="453" y="392" type="curve" smooth="yes"/>
      <point x="453" y="498"/>
      <point x="381" y="568"/>
      <point x="262" y="568" type="curve" smooth="yes"/>
      <point x="143" y="568"/>
      <point x="63" y="488"/>
    </contour>
  </outline>
</glyph>
<glyph name="udieresis.titl.sc" format="2">
  <advance width="613"/>
  <outline>
    <contour>
      <point x="402" y="539" type="curve" smooth="yes"/>
      <point x="402" y="555"/>
      <point x="391" y="566"/>
      <point x="375" y="566" type="curve" smooth="yes"/>
      <point x="358" y="566"/>
      <point x="347" y="555"/>
      <point x="347" y="539" type="curve" smooth="yes"/>
      <point x="347" y="523"/>
      <point x="358" y="512"/>
      <point x="375" y="512" type="curve" smooth="yes"/>
      <point x="391" y="512"/>
      <point x="402" y="523"/>
    </contour>
    <contour>
      <point x="272" y="539" type="curve" smooth="yes"/>
      <point x="272" y="555"/>
      <point x="261" y="566"/>
      <point x="245" y="566" type="curve" smooth="yes"/>
      <point x="228" y="566"/>
      <point x="217" y="555"/>
      <point x="217" y="539" type="curve" smooth="yes"/>
      <point x="217" y="523"/>
      <point x="228" y="512"/>
      <point x="245" y="512" type="curve" smooth="yes"/>
      <point x="261" y="512"/>
      <point x="272" y="523"/>
    </contour>
    <contour>
      <point x="504" y="560" type="line"/>
      <point x="504" y="204" type="line" smooth="yes"/>
      <point x="504" y="83"/>
      <point x="433" y="16"/>
      <point x="310" y="16" type="curve" smooth="yes"/>
      <point x="186" y="16"/>
      <point x="115" y="83"/>
      <point x="115" y="204" type="curve" smooth="yes"/>
      <point x="115" y="560" type="line"/>
      <point x="87" y="560" type="line"/>
      <point x="87" y="202" type="line" smooth="yes"/>
      <point x="87" y="66"/>
      <point x="169" y="-8"/>
      <point x="310" y="-8" type="curve" smooth="yes"/>
      <point x="450" y="-8"/>
      <point x="532" y="66"/>
      <point x="532" y="202" type="curve" smooth="yes"/>
      <point x="532" y="560" type="line"/>
    </contour>
  </outline>
</glyph>
<glyph name="uni0123.ss01" format="2">
  <advance width="593"/>
  <anchor x="283" y="500" name="top"/>
  <anchor x="395" y="-190" name="ogonek"/>
  <anchor x="289" y="-210" name="bottom"/>
  <anchor x="278" y="-210" name="bottomC"/>
  <outline>
    <contour>
      <point x="336" y="778" type="line"/>
      <point x="274" y="587" type="line"/>
      <point x="305" y="587" type="line"/>
      <point x="358" y="778" type="line"/>
    </contour>
    <component base="g.ss01"/>
  </outline>
</glyph>
<glyph name="uni0162.sc" format="2">
  <advance width="498"/>
  <anchor x="243" y="-199" name="bottomC"/>
  <anchor x="249" y="560" name="top"/>
  <anchor x="282" y="-199" name="ogonek"/>
  <anchor x="242" y="300" name="center"/>
  <anchor x="249" y="-210" name="bottom"/>
  <outline>
    <contour>
      <point x="318" y="-113" type="curve" smooth="yes"/>
      <point x="318" y="-155"/>
      <point x="290" y="-183"/>
      <point x="248" y="-183" type="curve" smooth="yes"/>
      <point x="209" y="-183"/>
      <point x="187" y="-168"/>
      <point x="166" y="-144" type="curve"/>
      <point x="154" y="-162" type="line"/>
      <point x="175" y="-188"/>
      <point x="203" y="-204"/>
      <point x="250" y="-204" type="curve" smooth="yes"/>
      <point x="307" y="-204"/>
      <point x="345" y="-167"/>
      <point x="345" y="-116" type="curve" smooth="yes"/>
      <point x="345" y="-65"/>
      <point x="318" y="-30"/>
      <point x="261" y="5" type="curve"/>
      <point x="235" y="0" type="line"/>
      <point x="292" y="-37"/>
      <point x="318" y="-66"/>
    </contour>
    <component base="t.sc"/>
  </outline>
</glyph>
<glyph name="uni0163.swsh" format="2">
  <advance width="346"/>
  <anchor x="127" y="275" name="center"/>
  <anchor x="218" y="0" name="bottomC"/>
  <anchor x="129" y="730" name="top"/>
  <anchor x="227" y="0" name="bottom"/>
  <anchor x="255" y="767" name="topright"/>
  <anchor x="315" y="11" name="ogonek"/>
  <outline>
    <contour>
      <point x="293" y="-115" type="curve" smooth="yes"/>
      <point x="293" y="-156"/>
      <point x="266" y="-183"/>
      <point x="225" y="-183" type="curve" smooth="yes"/>
      <point x="187" y="-183"/>
      <point x="164" y="-171"/>
      <point x="140" y="-144" type="curve"/>
      <point x="128" y="-164" type="line"/>
      <point x="153" y="-193"/>
      <point x="181" y="-204"/>
      <point x="227" y="-204" type="curve" smooth="yes"/>
      <point x="283" y="-204"/>
      <point x="318" y="-167"/>
      <point x="318" y="-116" type="curve" smooth="yes"/>
      <point x="318" y="-68"/>
      <point x="288" y="-28"/>
      <point x="205" y="12" type="curve"/>
      <point x="183" y="8" type="line"/>
      <point x="271" y="-43"/>
      <point x="293" y="-73"/>
    </contour>
    <component base="t.swsh"/>
  </outline>
</glyph>
<glyph name="uni20BD.tf" format="2">
  <advance width="604"/>
  <outline>
    <contour>
      <point x="162" y="660" type="line"/>
      <point x="162" y="635" type="line"/>
      <point x="328" y="635" type="line" smooth="yes"/>
      <point x="449" y="635"/>
      <point x="518" y="575"/>
      <point x="518" y="472" type="curve" smooth="yes"/>
      <point x="518" y="369"/>
      <point x="449" y="310"/>
      <point x="328" y="310" type="curve" smooth="yes"/>
      <point x="47" y="310" type="line"/>
      <point x="47" y="285" type="line"/>
      <point x="330" y="285" type="line" smooth="yes"/>
      <point x="465" y="285"/>
      <point x="547" y="355"/>
      <point x="547" y="472" type="curve" smooth="yes"/>
      <point x="547" y="590"/>
      <point x="465" y="660"/>
      <point x="330" y="660" type="curve" smooth="yes"/>
    </contour>
    <contour>
      <point x="148" y="660" type="line"/>
      <point x="148" y="0" type="line"/>
      <point x="175" y="0" type="line"/>
      <point x="175" y="660" type="line"/>
    </contour>
    <contour>
      <point x="375" y="192" type="line"/>
      <point x="47" y="192" type="line"/>
      <point x="47" y="169" type="line"/>
      <point x="375" y="169" type="line"/>
    </contour>
  </outline>
</glyph>
<glyph name="v.sc" format="2">
  <advance width="528"/>
  <anchor x="275" y="0" name="bottomC"/>
  <anchor x="264" y="560" name="top"/>
  <anchor x="281" y="0" name="ogonek"/>
  <anchor x="264" y="0" name="bottom"/>
  <outline>
    <contour>
      <point x="480" y="560" type="line"/>
      <point x="290" y="94" type="line"/>
      <point x="264" y="27" type="line"/>
      <point x="264" y="27" type="line"/>
      <point x="238" y="95" type="line"/>
      <point x="49" y="560" type="line"/>
      <point x="19" y="560" type="line"/>
      <point x="247" y="0" type="line"/>
      <point x="281" y="0" type="line"/>
      <point x="509" y="560" type="line"/>
    </contour>
  </outline>
</glyph>
<glyph name="y.sc" format="2">
  <advance width="471"/>
  <anchor x="249" y="0" name="bottomC"/>
  <anchor x="235" y="560" name="top"/>
  <anchor x="249" y="0" name="ogonek"/>
  <anchor x="235" y="0" name="bottom"/>
  <outline>
    <contour>
      <point x="221" y="0" type="line"/>
      <point x="249" y="0" type="line"/>
      <point x="249" y="217" type="line"/>
      <point x="455" y="560" type="line"/>
      <point x="423" y="560" type="line"/>
      <point x="310" y="369" type="line"/>
      <point x="235" y="242" type="line"/>
      <point x="161" y="369" type="line"/>
      <point x="49" y="560" type="line"/>
      <point x="16" y="560" type="line"/>
      <point x="221" y="217" type="line"/>
    </contour>
  </outline>
</glyph>
<glyph name="y.swsh" format="2">
  <advance width="526"/>
  <anchor x="69" y="-210" name="bottomC"/>
  <anchor x="249" y="500" name="top"/>
  <anchor x="119" y="-210" name="ogonek"/>
  <anchor x="130" y="-210" name="bottom"/>
  <outline>
    <contour>
      <point x="224" y="-98" type="curve" smooth="yes"/>
      <point x="452" y="458" type="line" smooth="yes"/>
      <point x="475" y="513"/>
      <point x="502" y="547"/>
      <point x="550" y="547" type="curve" smooth="yes"/>
      <point x="571" y="547"/>
      <point x="585" y="543"/>
      <point x="606" y="527" type="curve"/>
      <point x="613" y="549" type="line"/>
      <point x="593" y="566"/>
      <point x="577" y="574"/>
      <point x="547" y="574" type="curve" smooth="yes"/>
      <point x="494" y="574"/>
      <point x="459" y="546"/>
      <point x="427" y="467" type="curve" smooth="yes"/>
      <point x="270" y="84" type="line"/>
      <point x="250" y="31" type="line"/>
      <point x="229" y="81" type="line"/>
      <point x="56" y="500" type="line"/>
      <point x="24" y="500" type="line"/>
      <point x="182" y="127" type="line"/>
      <point x="236" y="-1" type="line"/>
      <point x="199" y="-92" type="line" smooth="yes"/>
      <point x="167" y="-169"/>
      <point x="133" y="-191"/>
      <point x="84" y="-191" type="curve" smooth="yes"/>
      <point x="56" y="-191"/>
      <point x="29" y="-183"/>
      <point x="12" y="-158" type="curve"/>
      <point x="0" y="-181" type="line"/>
      <point x="16" y="-204"/>
      <point x="46" y="-215"/>
      <point x="84" y="-215" type="curve" smooth="yes"/>
      <point x="148" y="-215"/>
      <point x="187" y="-187"/>
    </contour>
  </outline>
</glyph>
<glyph name="ydieresis.titl.sc" format="2">
  <advance width="471"/>
  <outline>
    <contour>
      <point x="323" y="539" type="curve" smooth="yes"/>
      <point x="323" y="556"/>
      <point x="312" y="567"/>
      <point x="295" y="567" type="curve" smooth="yes"/>
      <point x="279" y="567"/>
      <point x="268" y="556"/>
      <point x="268" y="539" type="curve" smooth="yes"/>
      <point x="268" y="523"/>
      <point x="279" y="512"/>
      <point x="295" y="512" type="curve" smooth="yes"/>
      <point x="312" y="512"/>
      <point x="323" y="523"/>
    </contour>
    <contour>
      <point x="210" y="539" type="curve" smooth="yes"/>
      <point x="210" y="556"/>
      <point x="199" y="567"/>
      <point x="183" y="567" type="curve" smooth="yes"/>
      <point x="166" y="567"/>
      <point x="155" y="556"/>
      <point x="155" y="539" type="curve" smooth="yes"/>
      <point x="155" y="523"/>
      <point x="166" y="512"/>
      <point x="183" y="512" type="curve" smooth="yes"/>
      <point x="199" y="512"/>
      <point x="210" y="523"/>
    </contour>
    <contour>
      <point x="426" y="560" type="line"/>
      <point x="313" y="369" type="line"/>
      <point x="239" y="242" type="line"/>
      <point x="164" y="369" type="line"/>
      <point x="52" y="560" type="line"/>
      <point x="19" y="560" type="line"/>
      <point x="225" y="217" type="line"/>
      <point x="225" y="0" type="line"/>
      <point x="253" y="0" type="line"/>
      <point x="253" y="217" type="line"/>
      <point x="458" y="560" type="line"/>
    </contour>
  </outline>
</glyph>
<glyph name="yen.tf" format="2">
  <advance width="604"/>
  <outline>
    <contour>
      <point x="55" y="660" type="line"/>
      <point x="289" y="260" type="line"/>
      <point x="315" y="260" type="line"/>
      <point x="549" y="660" type="line"/>
      <point x="516" y="660" type="line"/>
      <point x="323" y="320" type="line"/>
      <point x="303" y="281" type="line"/>
      <point x="301" y="281" type="line"/>
      <point x="281" y="320" type="line"/>
      <point x="88" y="660" type="line"/>
    </contour>
    <contour>
      <point x="315" y="0" type="line"/>
      <point x="315" y="262" type="line"/>
      <point x="289" y="262" type="line"/>
      <point x="289" y="0" type="line"/>
    </contour>
    <contour>
      <point x="519" y="128" type="line"/>
      <point x="519" y="150" type="line"/>
      <point x="86" y="150" type="line"/>
      <point x="86" y="128" type="line"/>
    </contour>
    <contour>
      <point x="519" y="252" type="line"/>
      <point x="519" y="275" type="line"/>
      <point x="342" y="275" type="line"/>
      <point x="302" y="273" type="line"/>
      <point x="263" y="275" type="line"/>
      <point x="86" y="275" type="line"/>
      <point x="86" y="252" type="line"/>
    </contour>
  </outline>
</glyph>
<glyph name="z.sc" format="2">
  <advance width="508"/>
  <anchor x="253" y="0" name="bottomC"/>
  <anchor x="253" y="560" name="top"/>
  <anchor x="478" y="0" name="ogonek"/>
  <anchor x="253" y="0" name="bottom"/>
  <outline>
    <contour>
      <point x="107" y="78" type="line"/>
      <point x="461" y="536" type="line"/>
      <point x="461" y="560" type="line"/>
      <point x="37" y="560" type="line"/>
      <point x="37" y="536" type="line"/>
      <point x="444" y="536" type="line"/>
      <point x="439" y="546" type="line"/>
      <point x="394" y="490" type="line"/>
      <point x="33" y="23" type="line"/>
      <point x="33" y="0" type="line"/>
      <point x="478" y="0" type="line"/>
      <point x="478" y="24" type="line"/>
      <point x="51" y="24" type="line"/>
      <point x="56" y="14" type="line"/>
    </contour>
  </outline>
</glyph>
